<?xml version="1.0" encoding="UTF-8"?>
<!DOCTYPE svg PUBLIC "-//W3C//DTD SVG 1.1//EN" "http://www.w3.org/Graphics/SVG/1.1/DTD/svg11.dtd">
<svg version="1.2" width="129.54mm" height="129.54mm" viewBox="0 0 12954 12954" preserveAspectRatio="xMidYMid" fill-rule="evenodd" stroke-width="28.222" stroke-linejoin="round" xmlns="http://www.w3.org/2000/svg" xmlns:ooo="http://xml.openoffice.org/svg/export" xmlns:xlink="http://www.w3.org/1999/xlink" xmlns:presentation="http://sun.com/xmlns/staroffice/presentation" xmlns:smil="http://www.w3.org/2001/SMIL20/" xmlns:anim="urn:oasis:names:tc:opendocument:xmlns:animation:1.0" xml:space="preserve">
 <defs class="ClipPathGroup">
  <clipPath id="presentation_clip_path" clipPathUnits="userSpaceOnUse">
   <rect x="0" y="0" width="12954" height="12954"/>
  </clipPath>
  <clipPath id="presentation_clip_path_shrink" clipPathUnits="userSpaceOnUse">
   <rect x="12" y="12" width="12929" height="12929"/>
  </clipPath>
 </defs>
 <defs class="TextShapeIndex">
  <g ooo:slide="id1" ooo:id-list="id3 id4 id5 id6 id7 id8 id9"/>
 </defs>
 <defs class="EmbeddedBulletChars">
  <g id="bullet-char-template-57356" transform="scale(0.00048828125,-0.00048828125)">
   <path d="M 580,1141 L 1163,571 580,0 -4,571 580,1141 Z"/>
  </g>
  <g id="bullet-char-template-57354" transform="scale(0.00048828125,-0.00048828125)">
   <path d="M 8,1128 L 1137,1128 1137,0 8,0 8,1128 Z"/>
  </g>
  <g id="bullet-char-template-10146" transform="scale(0.00048828125,-0.00048828125)">
   <path d="M 174,0 L 602,739 174,1481 1456,739 174,0 Z M 1358,739 L 309,1346 659,739 1358,739 Z"/>
  </g>
  <g id="bullet-char-template-10132" transform="scale(0.00048828125,-0.00048828125)">
   <path d="M 2015,739 L 1276,0 717,0 1260,543 174,543 174,936 1260,936 717,1481 1274,1481 2015,739 Z"/>
  </g>
  <g id="bullet-char-template-10007" transform="scale(0.00048828125,-0.00048828125)">
   <path d="M 0,-2 C -7,14 -16,27 -25,37 L 356,567 C 262,823 215,952 215,954 215,979 228,992 255,992 264,992 276,990 289,987 310,991 331,999 354,1012 L 381,999 492,748 772,1049 836,1024 860,1049 C 881,1039 901,1025 922,1006 886,937 835,863 770,784 769,783 710,716 594,584 L 774,223 C 774,196 753,168 711,139 L 727,119 C 717,90 699,76 672,76 641,76 570,178 457,381 L 164,-76 C 142,-110 111,-127 72,-127 30,-127 9,-110 8,-76 1,-67 -2,-52 -2,-32 -2,-23 -1,-13 0,-2 Z"/>
  </g>
  <g id="bullet-char-template-10004" transform="scale(0.00048828125,-0.00048828125)">
   <path d="M 285,-33 C 182,-33 111,30 74,156 52,228 41,333 41,471 41,549 55,616 82,672 116,743 169,778 240,778 293,778 328,747 346,684 L 369,508 C 377,444 397,411 428,410 L 1163,1116 C 1174,1127 1196,1133 1229,1133 1271,1133 1292,1118 1292,1087 L 1292,965 C 1292,929 1282,901 1262,881 L 442,47 C 390,-6 338,-33 285,-33 Z"/>
  </g>
  <g id="bullet-char-template-9679" transform="scale(0.00048828125,-0.00048828125)">
   <path d="M 813,0 C 632,0 489,54 383,161 276,268 223,411 223,592 223,773 276,916 383,1023 489,1130 632,1184 813,1184 992,1184 1136,1130 1245,1023 1353,916 1407,772 1407,592 1407,412 1353,268 1245,161 1136,54 992,0 813,0 Z"/>
  </g>
  <g id="bullet-char-template-8226" transform="scale(0.00048828125,-0.00048828125)">
   <path d="M 346,457 C 273,457 209,483 155,535 101,586 74,649 74,723 74,796 101,859 155,911 209,963 273,989 346,989 419,989 480,963 531,910 582,859 608,796 608,723 608,648 583,586 532,535 482,483 420,457 346,457 Z"/>
  </g>
  <g id="bullet-char-template-8211" transform="scale(0.00048828125,-0.00048828125)">
   <path d="M -4,459 L 1135,459 1135,606 -4,606 -4,459 Z"/>
  </g>
  <g id="bullet-char-template-61548" transform="scale(0.00048828125,-0.00048828125)">
   <path d="M 173,740 C 173,903 231,1043 346,1159 462,1274 601,1332 765,1332 928,1332 1067,1274 1183,1159 1299,1043 1357,903 1357,740 1357,577 1299,437 1183,322 1067,206 928,148 765,148 601,148 462,206 346,322 231,437 173,577 173,740 Z"/>
  </g>
 </defs>
 <defs class="TextEmbeddedBitmaps"/>
 <g>
  <g id="id2" class="Master_Slide">
   <g id="bg-id2" class="Background"/>
   <g id="bo-id2" class="BackgroundObjects"/>
  </g>
 </g>
 <g class="SlideGroup">
  <g>
   <g id="container-id1">
    <g id="id1" class="Slide" clip-path="url(#presentation_clip_path)">
     <g class="Page">
      <g class="com.sun.star.drawing.ClosedBezierShape">
       <g id="id3">
        <rect class="BoundingBox" stroke="none" fill="none" x="2766" y="1497" width="7675" height="10468"/>
        <path fill="rgb(202,144,110)" stroke="none" d="M 4368,4352 C 4224,4279 4096,4198 3980,4107 3688,3878 3554,3653 3554,3388 3554,3372 3555,3357 3556,3341 3880,3467 4274,3564 4789,3644 5408,3740 6015,3784 6730,3784 7444,3784 8051,3740 8670,3644 9185,3564 9579,3467 9903,3341 9904,3357 9905,3372 9905,3388 9905,3653 9771,3878 9479,4107 9331,4223 9165,4322 8971,4409 L 9627,8979 C 9685,9011 9740,9044 9794,9079 10133,9302 10287,9521 10287,9778 10287,10035 10133,10254 9794,10477 9454,10700 9033,10860 8445,10988 7858,11117 7282,11176 6604,11176 5925,11176 5349,11117 4762,10988 4174,10860 3753,10700 3413,10477 3074,10254 2920,10035 2920,9778 2920,9521 3074,9302 3413,9079 3507,9018 3606,8961 3714,8909 L 4368,4352 Z M 3412,10604 C 3752,10827 4173,10987 4761,11115 5348,11244 5924,11303 6603,11303 7281,11303 7857,11244 8444,11115 9032,10987 9453,10827 9793,10604 10015,10458 10158,10313 10230,10159 10268,10240 10286,10324 10286,10413 10286,10670 10132,10889 9793,11112 9453,11335 9032,11495 8444,11623 7857,11752 7281,11811 6603,11811 5924,11811 5348,11752 4761,11623 4173,11495 3752,11335 3412,11112 3073,10889 2919,10670 2919,10413 2919,10324 2937,10240 2975,10159 3047,10313 3190,10458 3412,10604 Z M 3682,1947 L 3704,1947 4507,1650 5310,1947 5333,1947 5333,1955 5333,3123 5333,3131 5310,3131 4507,3428 3704,3131 3682,3131 3682,3123 3682,1955 3682,1947 Z M 5968,2201 L 5990,2201 6793,1904 7596,2201 7619,2201 7619,2209 7619,3377 7619,3385 7596,3385 6793,3682 5990,3385 5968,3385 5968,3377 5968,2209 5968,2201 Z M 8127,1947 L 8149,1947 8952,1650 9755,1947 9778,1947 9778,1955 9778,3123 9778,3131 9755,3131 8952,3428 8149,3131 8127,3131 8127,3123 8127,1955 8127,1947 Z"/>
        <path fill="none" stroke="rgb(0,0,0)" stroke-width="305" stroke-linejoin="round" d="M 4368,4352 C 4224,4279 4096,4198 3980,4107 3688,3878 3554,3653 3554,3388 3554,3372 3555,3357 3556,3341 3880,3467 4274,3564 4789,3644 5408,3740 6015,3784 6730,3784 7444,3784 8051,3740 8670,3644 9185,3564 9579,3467 9903,3341 9904,3357 9905,3372 9905,3388 9905,3653 9771,3878 9479,4107 9331,4223 9165,4322 8971,4409 L 9627,8979 C 9685,9011 9740,9044 9794,9079 10133,9302 10287,9521 10287,9778 10287,10035 10133,10254 9794,10477 9454,10700 9033,10860 8445,10988 7858,11117 7282,11176 6604,11176 5925,11176 5349,11117 4762,10988 4174,10860 3753,10700 3413,10477 3074,10254 2920,10035 2920,9778 2920,9521 3074,9302 3413,9079 3507,9018 3606,8961 3714,8909 L 4368,4352 Z"/>
        <path fill="none" stroke="rgb(0,0,0)" stroke-width="305" stroke-linejoin="round" d="M 3412,10604 C 3752,10827 4173,10987 4761,11115 5348,11244 5924,11303 6603,11303 7281,11303 7857,11244 8444,11115 9032,10987 9453,10827 9793,10604 10015,10458 10158,10313 10230,10159 10268,10240 10286,10324 10286,10413 10286,10670 10132,10889 9793,11112 9453,11335 9032,11495 8444,11623 7857,11752 7281,11811 6603,11811 5924,11811 5348,11752 4761,11623 4173,11495 3752,11335 3412,11112 3073,10889 2919,10670 2919,10413 2919,10324 2937,10240 2975,10159 3047,10313 3190,10458 3412,10604 Z"/>
        <path fill="none" stroke="rgb(0,0,0)" stroke-width="305" stroke-linejoin="round" d="M 3682,1947 L 3704,1947 4507,1650 5310,1947 5333,1947 5333,1955 5333,3123 5333,3131 5310,3131 4507,3428 3704,3131 3682,3131 3682,3123 3682,1955 3682,1947 Z"/>
        <path fill="none" stroke="rgb(0,0,0)" stroke-width="305" stroke-linejoin="round" d="M 5968,2201 L 5990,2201 6793,1904 7596,2201 7619,2201 7619,2209 7619,3377 7619,3385 7596,3385 6793,3682 5990,3385 5968,3385 5968,3377 5968,2209 5968,2201 Z"/>
        <path fill="none" stroke="rgb(0,0,0)" stroke-width="305" stroke-linejoin="round" d="M 8127,1947 L 8149,1947 8952,1650 9755,1947 9778,1947 9778,1955 9778,3123 9778,3131 9755,3131 8952,3428 8149,3131 8127,3131 8127,3123 8127,1955 8127,1947 Z"/>
       </g>
      </g>
      <g class="com.sun.star.drawing.ClosedBezierShape">
       <g id="id4">
        <rect class="BoundingBox" stroke="none" fill="none" x="3987" y="9449" width="5361" height="789"/>
        <path fill="rgb(51,51,51)" stroke="none" d="M 7969,9943 C 7554,9995 7147,10019 6668,10019 6188,10019 5781,9995 5366,9943 4951,9891 4652,9827 4413,9737 4229,9668 4122,9600 4082,9525 4070,9548 4064,9571 4064,9595 4064,9699 4173,9788 4413,9878 4652,9968 4951,10032 5366,10084 5781,10136 6188,10160 6668,10160 7147,10160 7554,10136 7969,10084 8384,10032 8683,9968 8922,9878 9162,9788 9271,9699 9271,9595 9271,9571 9265,9548 9253,9525 9213,9600 9106,9668 8922,9737 8683,9827 8384,9891 7969,9943 Z"/>
        <path fill="none" stroke="rgb(235,189,139)" stroke-width="152" stroke-linejoin="round" d="M 7969,9943 C 7554,9995 7147,10019 6668,10019 6188,10019 5781,9995 5366,9943 4951,9891 4652,9827 4413,9737 4229,9668 4122,9600 4082,9525 4070,9548 4064,9571 4064,9595 4064,9699 4173,9788 4413,9878 4652,9968 4951,10032 5366,10084 5781,10136 6188,10160 6668,10160 7147,10160 7554,10136 7969,10084 8384,10032 8683,9968 8922,9878 9162,9788 9271,9699 9271,9595 9271,9571 9265,9548 9253,9525 9213,9600 9106,9668 8922,9737 8683,9827 8384,9891 7969,9943 Z"/>
       </g>
      </g>
      <g class="com.sun.star.drawing.CustomShape">
       <g id="id5">
        <rect class="BoundingBox" stroke="none" fill="none" x="3936" y="2285" width="1145" height="384"/>
        <path fill="rgb(235,189,139)" stroke="none" d="M 4508,2285 L 5080,2476 4508,2667 3936,2476 4508,2285 4508,2285 Z"/>
       </g>
      </g>
      <g class="com.sun.star.drawing.CustomShape">
       <g id="id6">
        <rect class="BoundingBox" stroke="none" fill="none" x="6222" y="2539" width="1145" height="383"/>
        <path fill="rgb(235,189,139)" stroke="none" d="M 6794,2539 L 7366,2730 6794,2921 6222,2730 6794,2539 6794,2539 Z"/>
       </g>
      </g>
      <g class="com.sun.star.drawing.CustomShape">
       <g id="id7">
        <rect class="BoundingBox" stroke="none" fill="none" x="8381" y="2285" width="1145" height="384"/>
        <path fill="rgb(235,189,139)" stroke="none" d="M 8953,2285 L 9525,2476 8953,2667 8381,2476 8953,2285 8953,2285 Z"/>
       </g>
      </g>
      <g class="com.sun.star.drawing.ClosedBezierShape">
       <g id="id8">
        <rect class="BoundingBox" stroke="none" fill="none" x="6862" y="5126" width="2232" height="4391"/>
        <path fill="rgb(235,189,139)" stroke="none" d="M 8574,5126 C 8876,8159 6863,9459 6863,9459 6863,9459 7363,9614 8265,9411 9166,9209 9091,9031 9091,9031 L 8574,5126 Z"/>
       </g>
      </g>
      <g class="com.sun.star.drawing.ClosedBezierShape">
       <g id="id9">
        <rect class="BoundingBox" stroke="none" fill="none" x="4801" y="4784" width="3684" height="426"/>
        <path fill="rgb(235,189,139)" stroke="none" d="M 7558,5096 C 7265,5121 6976,5129 6638,5121 6298,5114 6010,5093 5718,5056 5425,5018 5214,4975 5047,4917 4918,4873 4843,4831 4816,4785 4806,4799 4802,4813 4802,4827 4800,4890 4876,4944 5045,5002 5213,5060 5423,5102 5716,5141 6008,5178 6296,5199 6636,5206 6975,5214 7263,5206 7556,5181 7851,5156 8063,5122 8233,5072 8404,5022 8482,4971 8484,4908 8484,4894 8480,4880 8472,4865 8443,4910 8366,4949 8235,4987 8065,5037 7853,5072 7558,5096 Z"/>
       </g>
      </g>
     </g>
    </g>
   </g>
  </g>
 </g>
</svg>