<?xml version="1.0" encoding="UTF-8"?>
<!DOCTYPE svg PUBLIC "-//W3C//DTD SVG 1.1//EN" "http://www.w3.org/Graphics/SVG/1.1/DTD/svg11.dtd">
<svg version="1.2" width="129.54mm" height="129.54mm" viewBox="0 0 12954 12954" preserveAspectRatio="xMidYMid" fill-rule="evenodd" stroke-width="28.222" stroke-linejoin="round" xmlns="http://www.w3.org/2000/svg" xmlns:ooo="http://xml.openoffice.org/svg/export" xmlns:xlink="http://www.w3.org/1999/xlink" xmlns:presentation="http://sun.com/xmlns/staroffice/presentation" xmlns:smil="http://www.w3.org/2001/SMIL20/" xmlns:anim="urn:oasis:names:tc:opendocument:xmlns:animation:1.0" xml:space="preserve">
 <defs class="ClipPathGroup">
  <clipPath id="presentation_clip_path" clipPathUnits="userSpaceOnUse">
   <rect x="0" y="0" width="12954" height="12954"/>
  </clipPath>
  <clipPath id="presentation_clip_path_shrink" clipPathUnits="userSpaceOnUse">
   <rect x="12" y="12" width="12929" height="12929"/>
  </clipPath>
 </defs>
 <defs class="TextShapeIndex">
  <g ooo:slide="id1" ooo:id-list="id3 id4 id5 id6 id7 id8 id9 id10 id11 id12"/>
 </defs>
 <defs class="EmbeddedBulletChars">
  <g id="bullet-char-template-57356" transform="scale(0.00048828125,-0.00048828125)">
   <path d="M 580,1141 L 1163,571 580,0 -4,571 580,1141 Z"/>
  </g>
  <g id="bullet-char-template-57354" transform="scale(0.00048828125,-0.00048828125)">
   <path d="M 8,1128 L 1137,1128 1137,0 8,0 8,1128 Z"/>
  </g>
  <g id="bullet-char-template-10146" transform="scale(0.00048828125,-0.00048828125)">
   <path d="M 174,0 L 602,739 174,1481 1456,739 174,0 Z M 1358,739 L 309,1346 659,739 1358,739 Z"/>
  </g>
  <g id="bullet-char-template-10132" transform="scale(0.00048828125,-0.00048828125)">
   <path d="M 2015,739 L 1276,0 717,0 1260,543 174,543 174,936 1260,936 717,1481 1274,1481 2015,739 Z"/>
  </g>
  <g id="bullet-char-template-10007" transform="scale(0.00048828125,-0.00048828125)">
   <path d="M 0,-2 C -7,14 -16,27 -25,37 L 356,567 C 262,823 215,952 215,954 215,979 228,992 255,992 264,992 276,990 289,987 310,991 331,999 354,1012 L 381,999 492,748 772,1049 836,1024 860,1049 C 881,1039 901,1025 922,1006 886,937 835,863 770,784 769,783 710,716 594,584 L 774,223 C 774,196 753,168 711,139 L 727,119 C 717,90 699,76 672,76 641,76 570,178 457,381 L 164,-76 C 142,-110 111,-127 72,-127 30,-127 9,-110 8,-76 1,-67 -2,-52 -2,-32 -2,-23 -1,-13 0,-2 Z"/>
  </g>
  <g id="bullet-char-template-10004" transform="scale(0.00048828125,-0.00048828125)">
   <path d="M 285,-33 C 182,-33 111,30 74,156 52,228 41,333 41,471 41,549 55,616 82,672 116,743 169,778 240,778 293,778 328,747 346,684 L 369,508 C 377,444 397,411 428,410 L 1163,1116 C 1174,1127 1196,1133 1229,1133 1271,1133 1292,1118 1292,1087 L 1292,965 C 1292,929 1282,901 1262,881 L 442,47 C 390,-6 338,-33 285,-33 Z"/>
  </g>
  <g id="bullet-char-template-9679" transform="scale(0.00048828125,-0.00048828125)">
   <path d="M 813,0 C 632,0 489,54 383,161 276,268 223,411 223,592 223,773 276,916 383,1023 489,1130 632,1184 813,1184 992,1184 1136,1130 1245,1023 1353,916 1407,772 1407,592 1407,412 1353,268 1245,161 1136,54 992,0 813,0 Z"/>
  </g>
  <g id="bullet-char-template-8226" transform="scale(0.00048828125,-0.00048828125)">
   <path d="M 346,457 C 273,457 209,483 155,535 101,586 74,649 74,723 74,796 101,859 155,911 209,963 273,989 346,989 419,989 480,963 531,910 582,859 608,796 608,723 608,648 583,586 532,535 482,483 420,457 346,457 Z"/>
  </g>
  <g id="bullet-char-template-8211" transform="scale(0.00048828125,-0.00048828125)">
   <path d="M -4,459 L 1135,459 1135,606 -4,606 -4,459 Z"/>
  </g>
  <g id="bullet-char-template-61548" transform="scale(0.00048828125,-0.00048828125)">
   <path d="M 173,740 C 173,903 231,1043 346,1159 462,1274 601,1332 765,1332 928,1332 1067,1274 1183,1159 1299,1043 1357,903 1357,740 1357,577 1299,437 1183,322 1067,206 928,148 765,148 601,148 462,206 346,322 231,437 173,577 173,740 Z"/>
  </g>
 </defs>
 <defs class="TextEmbeddedBitmaps"/>
 <g>
  <g id="id2" class="Master_Slide">
   <g id="bg-id2" class="Background"/>
   <g id="bo-id2" class="BackgroundObjects"/>
  </g>
 </g>
 <g class="SlideGroup">
  <g>
   <g id="container-id1">
    <g id="id1" class="Slide" clip-path="url(#presentation_clip_path)">
     <g class="Page">
      <g class="com.sun.star.drawing.ClosedBezierShape">
       <g id="id3">
        <rect class="BoundingBox" stroke="none" fill="none" x="2386" y="1115" width="8564" height="11231"/>
        <path fill="rgb(238,238,238)" stroke="none" d="M 2539,4953 L 2540,4953 3466,2896 C 3388,2878 3313,2850 3238,2809 3096,2733 2995,2639 2913,2507 2831,2375 2794,2246 2794,2094 2794,1942 2831,1813 2913,1681 2995,1549 3096,1455 3238,1379 3380,1303 3519,1268 3683,1268 3847,1268 3986,1303 4128,1379 4270,1455 4371,1549 4453,1681 4535,1813 4573,1942 4573,2094 4573,2246 4535,2375 4453,2507 4371,2639 4270,2733 4128,2809 4053,2850 3978,2878 3901,2896 L 4757,4798 5348,3482 C 5322,3471 5296,3458 5270,3444 5128,3368 5027,3274 4945,3142 4863,3010 4826,2881 4826,2729 4826,2577 4863,2448 4945,2316 5027,2184 5128,2090 5270,2014 5412,1938 5551,1903 5715,1903 5879,1903 6018,1938 6160,2014 6302,2090 6403,2184 6485,2316 6567,2448 6605,2577 6605,2729 6605,2881 6567,3010 6485,3142 6403,3274 6302,3368 6160,3444 6134,3458 6108,3471 6082,3482 L 6744,4953 6960,4953 7594,3544 C 7492,3528 7398,3496 7302,3444 7160,3368 7059,3274 6977,3142 6895,3010 6858,2881 6858,2729 6858,2577 6895,2448 6977,2316 7059,2184 7160,2090 7302,2014 7444,1938 7583,1903 7747,1903 7911,1903 8050,1938 8192,2014 8334,2090 8435,2184 8517,2316 8599,2448 8637,2577 8637,2729 8637,2881 8599,3010 8517,3142 8435,3274 8334,3368 8192,3444 8169,3456 8147,3467 8124,3477 L 8649,4643 9402,2969 C 9379,2959 9357,2948 9334,2936 9192,2860 9091,2766 9009,2634 8927,2502 8890,2373 8890,2221 8890,2069 8927,1940 9009,1808 9091,1676 9192,1582 9334,1506 9476,1430 9615,1395 9779,1395 9943,1395 10082,1430 10224,1506 10366,1582 10467,1676 10549,1808 10631,1940 10669,2069 10669,2221 10669,2373 10631,2502 10549,2634 10467,2766 10366,2860 10224,2936 10128,2988 10034,3020 9932,3036 L 10796,4954 10795,4954 9021,9102 C 9327,9202 9578,9319 9795,9461 10134,9684 10289,9903 10289,10160 10289,10417 10134,10636 9795,10859 9456,11082 9034,11242 8447,11370 7859,11499 7283,11558 6605,11558 5927,11558 5351,11499 4763,11370 4176,11242 3754,11082 3415,10859 3076,10636 2922,10417 2922,10160 2921,9903 3076,9684 3415,9461 3657,9302 3942,9175 4299,9068 L 2539,4953 Z M 3414,10986 C 3753,11209 4175,11369 4762,11497 5350,11626 5926,11685 6604,11685 7282,11685 7858,11626 8446,11497 9033,11369 9455,11209 9794,10986 10016,10840 10159,10695 10231,10541 10269,10622 10288,10706 10288,10795 10288,11052 10133,11271 9794,11494 9455,11717 9033,11877 8446,12005 7858,12134 7282,12193 6604,12193 5926,12193 5350,12134 4762,12005 4175,11877 3753,11717 3414,11494 3075,11271 2921,11052 2921,10795 2920,10706 2939,10622 2977,10541 3049,10695 3192,10840 3414,10986 Z"/>
        <path fill="none" stroke="rgb(0,0,0)" stroke-width="305" stroke-linejoin="round" d="M 2539,4953 L 2540,4953 3466,2896 C 3388,2878 3313,2850 3238,2809 3096,2733 2995,2639 2913,2507 2831,2375 2794,2246 2794,2094 2794,1942 2831,1813 2913,1681 2995,1549 3096,1455 3238,1379 3380,1303 3519,1268 3683,1268 3847,1268 3986,1303 4128,1379 4270,1455 4371,1549 4453,1681 4535,1813 4573,1942 4573,2094 4573,2246 4535,2375 4453,2507 4371,2639 4270,2733 4128,2809 4053,2850 3978,2878 3901,2896 L 4757,4798 5348,3482 C 5322,3471 5296,3458 5270,3444 5128,3368 5027,3274 4945,3142 4863,3010 4826,2881 4826,2729 4826,2577 4863,2448 4945,2316 5027,2184 5128,2090 5270,2014 5412,1938 5551,1903 5715,1903 5879,1903 6018,1938 6160,2014 6302,2090 6403,2184 6485,2316 6567,2448 6605,2577 6605,2729 6605,2881 6567,3010 6485,3142 6403,3274 6302,3368 6160,3444 6134,3458 6108,3471 6082,3482 L 6744,4953 6960,4953 7594,3544 C 7492,3528 7398,3496 7302,3444 7160,3368 7059,3274 6977,3142 6895,3010 6858,2881 6858,2729 6858,2577 6895,2448 6977,2316 7059,2184 7160,2090 7302,2014 7444,1938 7583,1903 7747,1903 7911,1903 8050,1938 8192,2014 8334,2090 8435,2184 8517,2316 8599,2448 8637,2577 8637,2729 8637,2881 8599,3010 8517,3142 8435,3274 8334,3368 8192,3444 8169,3456 8147,3467 8124,3477 L 8649,4643 9402,2969 C 9379,2959 9357,2948 9334,2936 9192,2860 9091,2766 9009,2634 8927,2502 8890,2373 8890,2221 8890,2069 8927,1940 9009,1808 9091,1676 9192,1582 9334,1506 9476,1430 9615,1395 9779,1395 9943,1395 10082,1430 10224,1506 10366,1582 10467,1676 10549,1808 10631,1940 10669,2069 10669,2221 10669,2373 10631,2502 10549,2634 10467,2766 10366,2860 10224,2936 10128,2988 10034,3020 9932,3036 L 10796,4954 10795,4954 9021,9102 C 9327,9202 9578,9319 9795,9461 10134,9684 10289,9903 10289,10160 10289,10417 10134,10636 9795,10859 9456,11082 9034,11242 8447,11370 7859,11499 7283,11558 6605,11558 5927,11558 5351,11499 4763,11370 4176,11242 3754,11082 3415,10859 3076,10636 2922,10417 2922,10160 2921,9903 3076,9684 3415,9461 3657,9302 3942,9175 4299,9068 L 2539,4953 Z"/>
        <path fill="none" stroke="rgb(0,0,0)" stroke-width="305" stroke-linejoin="round" d="M 3414,10986 C 3753,11209 4175,11369 4762,11497 5350,11626 5926,11685 6604,11685 7282,11685 7858,11626 8446,11497 9033,11369 9455,11209 9794,10986 10016,10840 10159,10695 10231,10541 10269,10622 10288,10706 10288,10795 10288,11052 10133,11271 9794,11494 9455,11717 9033,11877 8446,12005 7858,12134 7282,12193 6604,12193 5926,12193 5350,12134 4762,12005 4175,11877 3753,11717 3414,11494 3075,11271 2921,11052 2921,10795 2920,10706 2939,10622 2977,10541 3049,10695 3192,10840 3414,10986 Z"/>
       </g>
      </g>
      <g class="com.sun.star.drawing.PolyPolygonShape">
       <g id="id4">
        <rect class="BoundingBox" stroke="none" fill="none" x="5842" y="3937" width="511" height="2162"/>
        <path fill="rgb(51,51,51)" stroke="none" d="M 6071,5018 L 5843,3976 5861,3938 6351,5018 5861,6097 5843,6059 6071,5018 Z"/>
        <path fill="none" stroke="rgb(52,101,164)" d="M 6071,5018 L 5843,3976 5861,3938 6351,5018 5861,6097 5843,6059 6071,5018 Z"/>
       </g>
      </g>
      <g class="com.sun.star.drawing.PolyPolygonShape">
       <g id="id5">
        <rect class="BoundingBox" stroke="none" fill="none" x="7874" y="3937" width="638" height="2035"/>
        <path fill="rgb(51,51,51)" stroke="none" d="M 8160,4954 L 7875,3974 7896,3938 8510,4954 7896,5970 7875,5934 8160,4954 Z"/>
        <path fill="none" stroke="rgb(52,101,164)" d="M 8160,4954 L 7875,3974 7896,3938 8510,4954 7896,5970 7875,5934 8160,4954 Z"/>
       </g>
      </g>
      <g class="com.sun.star.drawing.PolyPolygonShape">
       <g id="id6">
        <rect class="BoundingBox" stroke="none" fill="none" x="10033" y="3810" width="511" height="2162"/>
        <path fill="rgb(51,51,51)" stroke="none" d="M 10262,4891 L 10034,3849 10052,3811 10542,4891 10052,5970 10034,5932 10262,4891 Z"/>
        <path fill="none" stroke="rgb(52,101,164)" d="M 10262,4891 L 10034,3849 10052,3811 10542,4891 10052,5970 10034,5932 10262,4891 Z"/>
       </g>
      </g>
      <g class="com.sun.star.drawing.PolyPolygonShape">
       <g id="id7">
        <rect class="BoundingBox" stroke="none" fill="none" x="3936" y="3682" width="511" height="2162"/>
        <path fill="rgb(51,51,51)" stroke="none" d="M 4165,4763 L 3937,3721 3955,3683 4445,4763 3955,5842 3937,5804 4165,4763 Z"/>
        <path fill="none" stroke="rgb(52,101,164)" d="M 4165,4763 L 3937,3721 3955,3683 4445,4763 3955,5842 3937,5804 4165,4763 Z"/>
       </g>
      </g>
      <g class="com.sun.star.drawing.ClosedBezierShape">
       <g id="id8">
        <rect class="BoundingBox" stroke="none" fill="none" x="3682" y="1526" width="683" height="1015"/>
        <path fill="rgb(51,51,51)" stroke="none" d="M 3923,2365 C 3979,2246 3997,2134 3981,2006 3965,1878 3920,1774 3836,1672 3790,1616 3740,1569 3683,1531 3792,1519 3889,1529 3990,1561 4097,1595 4176,1644 4244,1717 4312,1790 4349,1866 4360,1958 4372,2051 4355,2133 4307,2221 4259,2309 4194,2376 4100,2435 4009,2491 3918,2524 3809,2540 3855,2488 3892,2431 3923,2365 Z"/>
       </g>
      </g>
      <g class="com.sun.star.drawing.ClosedBezierShape">
       <g id="id9">
        <rect class="BoundingBox" stroke="none" fill="none" x="5714" y="2161" width="683" height="1015"/>
        <path fill="rgb(51,51,51)" stroke="none" d="M 5955,3000 C 6011,2881 6029,2769 6013,2641 5997,2513 5952,2409 5868,2307 5822,2251 5772,2204 5715,2166 5824,2154 5921,2164 6022,2196 6129,2230 6208,2279 6276,2352 6344,2425 6381,2501 6392,2593 6404,2686 6387,2768 6339,2856 6291,2944 6226,3011 6132,3070 6041,3126 5950,3159 5841,3175 5887,3123 5924,3066 5955,3000 Z"/>
       </g>
      </g>
      <g class="com.sun.star.drawing.ClosedBezierShape">
       <g id="id10">
        <rect class="BoundingBox" stroke="none" fill="none" x="7700" y="2161" width="683" height="1015"/>
        <path fill="rgb(51,51,51)" stroke="none" d="M 7941,3000 C 7997,2881 8015,2769 7999,2641 7983,2513 7938,2409 7854,2307 7808,2251 7758,2204 7701,2166 7810,2154 7907,2164 8008,2196 8115,2230 8194,2279 8262,2352 8330,2425 8367,2501 8378,2593 8390,2686 8373,2768 8325,2856 8277,2944 8212,3011 8118,3070 8027,3126 7936,3159 7827,3175 7873,3123 7910,3066 7941,3000 Z"/>
       </g>
      </g>
      <g class="com.sun.star.drawing.ClosedBezierShape">
       <g id="id11">
        <rect class="BoundingBox" stroke="none" fill="none" x="9733" y="1652" width="683" height="1015"/>
        <path fill="rgb(51,51,51)" stroke="none" d="M 9974,2491 C 10030,2372 10048,2260 10032,2132 10016,2004 9971,1900 9887,1798 9841,1742 9791,1695 9734,1657 9843,1645 9940,1655 10041,1687 10148,1721 10227,1770 10295,1843 10363,1916 10400,1992 10411,2084 10423,2177 10406,2259 10358,2347 10310,2435 10245,2502 10151,2561 10060,2617 9969,2650 9860,2666 9906,2614 9943,2557 9974,2491 Z"/>
       </g>
      </g>
      <g class="com.sun.star.drawing.ClosedBezierShape">
       <g id="id12">
        <rect class="BoundingBox" stroke="none" fill="none" x="4497" y="9704" width="4219" height="789"/>
        <path fill="rgb(51,51,51)" stroke="none" d="M 7622,10199 C 7298,10251 6980,10274 6606,10274 6232,10274 5914,10251 5590,10199 5266,10147 5033,10082 4846,9992 4702,9923 4619,9855 4588,9780 4578,9803 4573,9827 4573,9851 4573,9955 4659,10043 4846,10133 5033,10223 5266,10288 5590,10340 5914,10392 6232,10415 6606,10415 6980,10415 7298,10392 7622,10340 7946,10288 8179,10223 8366,10133 8553,10043 8638,9955 8638,9851 8638,9827 8634,9803 8624,9780 8593,9855 8510,9923 8366,9992 8179,10082 7946,10147 7622,10199 Z"/>
        <path fill="none" stroke="rgb(0,0,0)" stroke-width="152" stroke-linejoin="round" d="M 7622,10199 C 7298,10251 6980,10274 6606,10274 6232,10274 5914,10251 5590,10199 5266,10147 5033,10082 4846,9992 4702,9923 4619,9855 4588,9780 4578,9803 4573,9827 4573,9851 4573,9955 4659,10043 4846,10133 5033,10223 5266,10288 5590,10340 5914,10392 6232,10415 6606,10415 6980,10415 7298,10392 7622,10340 7946,10288 8179,10223 8366,10133 8553,10043 8638,9955 8638,9851 8638,9827 8634,9803 8624,9780 8593,9855 8510,9923 8366,9992 8179,10082 7946,10147 7622,10199 Z"/>
       </g>
      </g>
     </g>
    </g>
   </g>
  </g>
 </g>
</svg>