<?xml version="1.0" encoding="UTF-8"?>
<!DOCTYPE svg PUBLIC "-//W3C//DTD SVG 1.1//EN" "http://www.w3.org/Graphics/SVG/1.1/DTD/svg11.dtd">
<svg version="1.2" width="129.54mm" height="129.54mm" viewBox="0 0 12954 12954" preserveAspectRatio="xMidYMid" fill-rule="evenodd" stroke-width="28.222" stroke-linejoin="round" xmlns="http://www.w3.org/2000/svg" xmlns:ooo="http://xml.openoffice.org/svg/export" xmlns:xlink="http://www.w3.org/1999/xlink" xmlns:presentation="http://sun.com/xmlns/staroffice/presentation" xmlns:smil="http://www.w3.org/2001/SMIL20/" xmlns:anim="urn:oasis:names:tc:opendocument:xmlns:animation:1.0" xml:space="preserve">
 <defs class="ClipPathGroup">
  <clipPath id="presentation_clip_path" clipPathUnits="userSpaceOnUse">
   <rect x="0" y="0" width="12954" height="12954"/>
  </clipPath>
  <clipPath id="presentation_clip_path_shrink" clipPathUnits="userSpaceOnUse">
   <rect x="12" y="12" width="12929" height="12929"/>
  </clipPath>
 </defs>
 <defs class="TextShapeIndex">
  <g ooo:slide="id1" ooo:id-list="id3 id4 id5 id6 id7 id8"/>
 </defs>
 <defs class="EmbeddedBulletChars">
  <g id="bullet-char-template-57356" transform="scale(0.00048828125,-0.00048828125)">
   <path d="M 580,1141 L 1163,571 580,0 -4,571 580,1141 Z"/>
  </g>
  <g id="bullet-char-template-57354" transform="scale(0.00048828125,-0.00048828125)">
   <path d="M 8,1128 L 1137,1128 1137,0 8,0 8,1128 Z"/>
  </g>
  <g id="bullet-char-template-10146" transform="scale(0.00048828125,-0.00048828125)">
   <path d="M 174,0 L 602,739 174,1481 1456,739 174,0 Z M 1358,739 L 309,1346 659,739 1358,739 Z"/>
  </g>
  <g id="bullet-char-template-10132" transform="scale(0.00048828125,-0.00048828125)">
   <path d="M 2015,739 L 1276,0 717,0 1260,543 174,543 174,936 1260,936 717,1481 1274,1481 2015,739 Z"/>
  </g>
  <g id="bullet-char-template-10007" transform="scale(0.00048828125,-0.00048828125)">
   <path d="M 0,-2 C -7,14 -16,27 -25,37 L 356,567 C 262,823 215,952 215,954 215,979 228,992 255,992 264,992 276,990 289,987 310,991 331,999 354,1012 L 381,999 492,748 772,1049 836,1024 860,1049 C 881,1039 901,1025 922,1006 886,937 835,863 770,784 769,783 710,716 594,584 L 774,223 C 774,196 753,168 711,139 L 727,119 C 717,90 699,76 672,76 641,76 570,178 457,381 L 164,-76 C 142,-110 111,-127 72,-127 30,-127 9,-110 8,-76 1,-67 -2,-52 -2,-32 -2,-23 -1,-13 0,-2 Z"/>
  </g>
  <g id="bullet-char-template-10004" transform="scale(0.00048828125,-0.00048828125)">
   <path d="M 285,-33 C 182,-33 111,30 74,156 52,228 41,333 41,471 41,549 55,616 82,672 116,743 169,778 240,778 293,778 328,747 346,684 L 369,508 C 377,444 397,411 428,410 L 1163,1116 C 1174,1127 1196,1133 1229,1133 1271,1133 1292,1118 1292,1087 L 1292,965 C 1292,929 1282,901 1262,881 L 442,47 C 390,-6 338,-33 285,-33 Z"/>
  </g>
  <g id="bullet-char-template-9679" transform="scale(0.00048828125,-0.00048828125)">
   <path d="M 813,0 C 632,0 489,54 383,161 276,268 223,411 223,592 223,773 276,916 383,1023 489,1130 632,1184 813,1184 992,1184 1136,1130 1245,1023 1353,916 1407,772 1407,592 1407,412 1353,268 1245,161 1136,54 992,0 813,0 Z"/>
  </g>
  <g id="bullet-char-template-8226" transform="scale(0.00048828125,-0.00048828125)">
   <path d="M 346,457 C 273,457 209,483 155,535 101,586 74,649 74,723 74,796 101,859 155,911 209,963 273,989 346,989 419,989 480,963 531,910 582,859 608,796 608,723 608,648 583,586 532,535 482,483 420,457 346,457 Z"/>
  </g>
  <g id="bullet-char-template-8211" transform="scale(0.00048828125,-0.00048828125)">
   <path d="M -4,459 L 1135,459 1135,606 -4,606 -4,459 Z"/>
  </g>
  <g id="bullet-char-template-61548" transform="scale(0.00048828125,-0.00048828125)">
   <path d="M 173,740 C 173,903 231,1043 346,1159 462,1274 601,1332 765,1332 928,1332 1067,1274 1183,1159 1299,1043 1357,903 1357,740 1357,577 1299,437 1183,322 1067,206 928,148 765,148 601,148 462,206 346,322 231,437 173,577 173,740 Z"/>
  </g>
 </defs>
 <defs class="TextEmbeddedBitmaps"/>
 <g>
  <g id="id2" class="Master_Slide">
   <g id="bg-id2" class="Background"/>
   <g id="bo-id2" class="BackgroundObjects"/>
  </g>
 </g>
 <g class="SlideGroup">
  <g>
   <g id="container-id1">
    <g id="id1" class="Slide" clip-path="url(#presentation_clip_path)">
     <g class="Page">
      <g class="com.sun.star.drawing.ClosedBezierShape">
       <g id="id3">
        <rect class="BoundingBox" stroke="none" fill="none" x="3275" y="2004" width="6532" height="9962"/>
        <path fill="rgb(51,51,51)" stroke="none" d="M 8904,6507 C 9155,6882 9270,7249 9270,7682 9270,8115 9155,8482 8904,8857 8843,8948 8779,9032 8710,9111 8911,9189 9083,9279 9235,9384 9522,9582 9652,9776 9652,10005 9652,10234 9522,10428 9235,10626 8949,10824 8592,10967 8096,11081 7600,11195 7113,11248 6540,11248 5967,11248 5480,11195 4984,11081 4488,10967 4131,10824 3845,10626 3558,10428 3428,10234 3428,10005 3428,9776 3558,9582 3845,9384 3997,9279 4168,9190 4369,9112 4300,9033 4235,8948 4174,8857 3923,8482 3808,8115 3808,7682 3808,7249 3923,6882 4174,6507 4396,6175 4667,5926 5029,5723 4868,5689 4734,5649 4616,5602 4412,5519 4319,5438 4319,5343 4318,5248 4412,5167 4616,5084 4795,5012 5013,4958 5301,4913 5259,4856 5219,4795 5181,4730 5023,4456 4951,4188 4951,3872 4951,3556 5023,3288 5181,3015 5339,2741 5535,2545 5808,2387 6082,2229 6350,2157 6666,2157 6982,2157 7250,2229 7524,2387 7797,2545 7993,2741 8151,3014 8309,3288 8381,3556 8381,3872 8381,4188 8309,4456 8151,4730 8105,4810 8055,4884 8001,4952 8185,4989 8335,5032 8466,5084 8670,5167 8764,5248 8764,5343 8764,5438 8670,5519 8466,5602 8347,5650 8212,5690 8050,5724 8411,5927 8682,6176 8904,6507 Z M 3846,10739 C 4132,10937 4488,11079 4985,11194 5481,11308 5968,11360 6541,11360 7113,11360 7600,11308 8097,11194 8593,11079 8949,10937 9236,10739 9423,10609 9544,10481 9605,10344 9637,10416 9653,10490 9653,10569 9653,10798 9522,10992 9236,11190 8949,11388 8593,11531 8097,11645 7600,11759 7113,11812 6541,11812 5968,11812 5481,11759 4985,11645 4488,11531 4132,11388 3846,11190 3559,10992 3429,10798 3429,10569 3429,10490 3444,10416 3476,10344 3537,10481 3658,10609 3846,10739 Z"/>
        <path fill="none" stroke="rgb(221,221,221)" stroke-width="305" stroke-linejoin="round" d="M 8904,6507 C 9155,6882 9270,7249 9270,7682 9270,8115 9155,8482 8904,8857 8843,8948 8779,9032 8710,9111 8911,9189 9083,9279 9235,9384 9522,9582 9652,9776 9652,10005 9652,10234 9522,10428 9235,10626 8949,10824 8592,10967 8096,11081 7600,11195 7113,11248 6540,11248 5967,11248 5480,11195 4984,11081 4488,10967 4131,10824 3845,10626 3558,10428 3428,10234 3428,10005 3428,9776 3558,9582 3845,9384 3997,9279 4168,9190 4369,9112 4300,9033 4235,8948 4174,8857 3923,8482 3808,8115 3808,7682 3808,7249 3923,6882 4174,6507 4396,6175 4667,5926 5029,5723 4868,5689 4734,5649 4616,5602 4412,5519 4319,5438 4319,5343 4318,5248 4412,5167 4616,5084 4795,5012 5013,4958 5301,4913 5259,4856 5219,4795 5181,4730 5023,4456 4951,4188 4951,3872 4951,3556 5023,3288 5181,3015 5339,2741 5535,2545 5808,2387 6082,2229 6350,2157 6666,2157 6982,2157 7250,2229 7524,2387 7797,2545 7993,2741 8151,3014 8309,3288 8381,3556 8381,3872 8381,4188 8309,4456 8151,4730 8105,4810 8055,4884 8001,4952 8185,4989 8335,5032 8466,5084 8670,5167 8764,5248 8764,5343 8764,5438 8670,5519 8466,5602 8347,5650 8212,5690 8050,5724 8411,5927 8682,6176 8904,6507 Z"/>
        <path fill="none" stroke="rgb(221,221,221)" stroke-width="305" stroke-linejoin="round" d="M 3846,10739 C 4132,10937 4488,11079 4985,11194 5481,11308 5968,11360 6541,11360 7113,11360 7600,11308 8097,11194 8593,11079 8949,10937 9236,10739 9423,10609 9544,10481 9605,10344 9637,10416 9653,10490 9653,10569 9653,10798 9522,10992 9236,11190 8949,11388 8593,11531 8097,11645 7600,11759 7113,11812 6541,11812 5968,11812 5481,11759 4985,11645 4488,11531 4132,11388 3846,11190 3559,10992 3429,10798 3429,10569 3429,10490 3444,10416 3476,10344 3537,10481 3658,10609 3846,10739 Z"/>
       </g>
      </g>
      <g class="com.sun.star.drawing.ClosedBezierShape">
       <g id="id4">
        <rect class="BoundingBox" stroke="none" fill="none" x="6312" y="2577" width="1652" height="2289"/>
        <path fill="rgb(153,153,153)" stroke="none" d="M 7356,4472 C 7371,4204 7323,3950 7201,3662 7080,3374 6922,3138 6695,2907 6570,2779 6445,2675 6312,2588 6503,2562 6688,2585 6897,2659 7116,2735 7297,2847 7474,3012 7652,3177 7773,3348 7861,3558 7950,3768 7978,3953 7954,4150 7930,4348 7860,4498 7729,4630 7605,4757 7461,4830 7273,4864 7320,4749 7347,4621 7356,4472 Z"/>
       </g>
      </g>
      <g class="com.sun.star.drawing.ClosedBezierShape">
       <g id="id5">
        <rect class="BoundingBox" stroke="none" fill="none" x="5054" y="9654" width="3076" height="662"/>
        <path fill="rgb(153,153,153)" stroke="none" d="M 7321,10065 C 7089,10106 6860,10125 6591,10125 6322,10125 6093,10106 5860,10065 5628,10023 5460,9971 5326,9899 5223,9844 5163,9790 5140,9730 5133,9748 5130,9767 5130,9786 5130,9870 5191,9940 5326,10012 5460,10084 5628,10136 5860,10177 6093,10219 6322,10238 6591,10238 6860,10238 7089,10219 7321,10177 7554,10136 7722,10084 7856,10012 7991,9940 8052,9870 8052,9786 8052,9767 8049,9748 8042,9730 8019,9790 7959,9844 7856,9899 7722,9971 7554,10023 7321,10065 Z"/>
        <path fill="none" stroke="rgb(153,153,153)" stroke-width="152" stroke-linejoin="round" d="M 7321,10065 C 7089,10106 6860,10125 6591,10125 6322,10125 6093,10106 5860,10065 5628,10023 5460,9971 5326,9899 5223,9844 5163,9790 5140,9730 5133,9748 5130,9767 5130,9786 5130,9870 5191,9940 5326,10012 5460,10084 5628,10136 5860,10177 6093,10219 6322,10238 6591,10238 6860,10238 7089,10219 7321,10177 7554,10136 7722,10084 7856,10012 7991,9940 8052,9870 8052,9786 8052,9767 8049,9748 8042,9730 8019,9790 7959,9844 7856,9899 7722,9971 7554,10023 7321,10065 Z"/>
       </g>
      </g>
      <g class="com.sun.star.drawing.ClosedBezierShape">
       <g id="id6">
        <rect class="BoundingBox" stroke="none" fill="none" x="5587" y="6222" width="3050" height="3127"/>
        <path fill="rgb(153,153,153)" stroke="none" d="M 7620,7984 C 7228,8710 5878,8861 5635,8902 5205,9521 7831,9592 8471,8489 9112,7384 7695,6392 7345,6223 7438,6420 8013,7257 7620,7984 Z"/>
       </g>
      </g>
      <g class="com.sun.star.drawing.ClosedBezierShape">
       <g id="id7">
        <rect class="BoundingBox" stroke="none" fill="none" x="5587" y="4953" width="2161" height="509"/>
        <path fill="rgb(153,153,153)" stroke="none" d="M 7205,5326 C 7032,5356 6862,5365 6664,5356 6466,5348 6297,5323 6125,5277 5953,5232 5830,5181 5732,5111 5655,5058 5612,5008 5596,4953 5590,4969 5588,4986 5588,5003 5587,5078 5631,5144 5731,5212 5829,5282 5952,5334 6123,5379 6296,5424 6465,5449 6663,5458 6862,5466 7031,5457 7203,5428 7376,5397 7500,5357 7600,5296 7700,5237 7746,5175 7747,5101 7747,5083 7745,5066 7739,5049 7723,5103 7677,5149 7601,5195 7501,5256 7377,5296 7205,5326 Z"/>
       </g>
      </g>
      <g class="com.sun.star.drawing.CustomShape">
       <g id="id8">
        <rect class="BoundingBox" stroke="none" fill="none" x="5459" y="6601" width="1527" height="1401"/>
        <path fill="rgb(255,255,255)" stroke="none" d="M 6222,6602 C 6362,6602 6482,6631 6603,6696 6724,6760 6812,6840 6882,6952 6952,7063 6984,7172 6984,7301 6984,7430 6952,7539 6882,7651 6812,7762 6724,7842 6603,7906 6482,7971 6362,8000 6222,8000 6082,8000 5962,7971 5841,7906 5720,7842 5632,7762 5562,7651 5492,7539 5460,7430 5460,7301 5460,7172 5492,7063 5562,6952 5632,6840 5720,6760 5841,6696 5962,6631 6082,6602 6222,6602 L 6222,6602 Z"/>
        <path fill="none" stroke="rgb(52,101,164)" d="M 6222,6602 C 6362,6602 6482,6631 6603,6696 6724,6760 6812,6840 6882,6952 6952,7063 6984,7172 6984,7301 6984,7430 6952,7539 6882,7651 6812,7762 6724,7842 6603,7906 6482,7971 6362,8000 6222,8000 6082,8000 5962,7971 5841,7906 5720,7842 5632,7762 5562,7651 5492,7539 5460,7430 5460,7301 5460,7172 5492,7063 5562,6952 5632,6840 5720,6760 5841,6696 5962,6631 6082,6602 6222,6602 L 6222,6602 Z"/>
       </g>
      </g>
     </g>
    </g>
   </g>
  </g>
 </g>
</svg>