<?xml version="1.0" encoding="UTF-8"?>
<!DOCTYPE svg PUBLIC "-//W3C//DTD SVG 1.1//EN" "http://www.w3.org/Graphics/SVG/1.1/DTD/svg11.dtd">
<svg version="1.2" width="129.54mm" height="129.54mm" viewBox="0 0 12954 12954" preserveAspectRatio="xMidYMid" fill-rule="evenodd" stroke-width="28.222" stroke-linejoin="round" xmlns="http://www.w3.org/2000/svg" xmlns:ooo="http://xml.openoffice.org/svg/export" xmlns:xlink="http://www.w3.org/1999/xlink" xmlns:presentation="http://sun.com/xmlns/staroffice/presentation" xmlns:smil="http://www.w3.org/2001/SMIL20/" xmlns:anim="urn:oasis:names:tc:opendocument:xmlns:animation:1.0" xml:space="preserve">
 <defs class="ClipPathGroup">
  <clipPath id="presentation_clip_path" clipPathUnits="userSpaceOnUse">
   <rect x="0" y="0" width="12954" height="12954"/>
  </clipPath>
  <clipPath id="presentation_clip_path_shrink" clipPathUnits="userSpaceOnUse">
   <rect x="12" y="12" width="12929" height="12929"/>
  </clipPath>
 </defs>
 <defs class="TextShapeIndex">
  <g ooo:slide="id1" ooo:id-list="id3 id4 id5 id6 id7 id8 id9"/>
 </defs>
 <defs class="EmbeddedBulletChars">
  <g id="bullet-char-template-57356" transform="scale(0.00048828125,-0.00048828125)">
   <path d="M 580,1141 L 1163,571 580,0 -4,571 580,1141 Z"/>
  </g>
  <g id="bullet-char-template-57354" transform="scale(0.00048828125,-0.00048828125)">
   <path d="M 8,1128 L 1137,1128 1137,0 8,0 8,1128 Z"/>
  </g>
  <g id="bullet-char-template-10146" transform="scale(0.00048828125,-0.00048828125)">
   <path d="M 174,0 L 602,739 174,1481 1456,739 174,0 Z M 1358,739 L 309,1346 659,739 1358,739 Z"/>
  </g>
  <g id="bullet-char-template-10132" transform="scale(0.00048828125,-0.00048828125)">
   <path d="M 2015,739 L 1276,0 717,0 1260,543 174,543 174,936 1260,936 717,1481 1274,1481 2015,739 Z"/>
  </g>
  <g id="bullet-char-template-10007" transform="scale(0.00048828125,-0.00048828125)">
   <path d="M 0,-2 C -7,14 -16,27 -25,37 L 356,567 C 262,823 215,952 215,954 215,979 228,992 255,992 264,992 276,990 289,987 310,991 331,999 354,1012 L 381,999 492,748 772,1049 836,1024 860,1049 C 881,1039 901,1025 922,1006 886,937 835,863 770,784 769,783 710,716 594,584 L 774,223 C 774,196 753,168 711,139 L 727,119 C 717,90 699,76 672,76 641,76 570,178 457,381 L 164,-76 C 142,-110 111,-127 72,-127 30,-127 9,-110 8,-76 1,-67 -2,-52 -2,-32 -2,-23 -1,-13 0,-2 Z"/>
  </g>
  <g id="bullet-char-template-10004" transform="scale(0.00048828125,-0.00048828125)">
   <path d="M 285,-33 C 182,-33 111,30 74,156 52,228 41,333 41,471 41,549 55,616 82,672 116,743 169,778 240,778 293,778 328,747 346,684 L 369,508 C 377,444 397,411 428,410 L 1163,1116 C 1174,1127 1196,1133 1229,1133 1271,1133 1292,1118 1292,1087 L 1292,965 C 1292,929 1282,901 1262,881 L 442,47 C 390,-6 338,-33 285,-33 Z"/>
  </g>
  <g id="bullet-char-template-9679" transform="scale(0.00048828125,-0.00048828125)">
   <path d="M 813,0 C 632,0 489,54 383,161 276,268 223,411 223,592 223,773 276,916 383,1023 489,1130 632,1184 813,1184 992,1184 1136,1130 1245,1023 1353,916 1407,772 1407,592 1407,412 1353,268 1245,161 1136,54 992,0 813,0 Z"/>
  </g>
  <g id="bullet-char-template-8226" transform="scale(0.00048828125,-0.00048828125)">
   <path d="M 346,457 C 273,457 209,483 155,535 101,586 74,649 74,723 74,796 101,859 155,911 209,963 273,989 346,989 419,989 480,963 531,910 582,859 608,796 608,723 608,648 583,586 532,535 482,483 420,457 346,457 Z"/>
  </g>
  <g id="bullet-char-template-8211" transform="scale(0.00048828125,-0.00048828125)">
   <path d="M -4,459 L 1135,459 1135,606 -4,606 -4,459 Z"/>
  </g>
  <g id="bullet-char-template-61548" transform="scale(0.00048828125,-0.00048828125)">
   <path d="M 173,740 C 173,903 231,1043 346,1159 462,1274 601,1332 765,1332 928,1332 1067,1274 1183,1159 1299,1043 1357,903 1357,740 1357,577 1299,437 1183,322 1067,206 928,148 765,148 601,148 462,206 346,322 231,437 173,577 173,740 Z"/>
  </g>
 </defs>
 <defs class="TextEmbeddedBitmaps"/>
 <g>
  <g id="id2" class="Master_Slide">
   <g id="bg-id2" class="Background"/>
   <g id="bo-id2" class="BackgroundObjects"/>
  </g>
 </g>
 <g class="SlideGroup">
  <g>
   <g id="container-id1">
    <g id="id1" class="Slide" clip-path="url(#presentation_clip_path)">
     <g class="Page">
      <g class="com.sun.star.drawing.ClosedBezierShape">
       <g id="id3">
        <rect class="BoundingBox" stroke="none" fill="none" x="3275" y="861" width="6532" height="11105"/>
        <path fill="rgb(238,238,238)" stroke="none" d="M 9124,4762 C 9399,5188 9524,5605 9524,6096 9524,6587 9399,7004 9124,7430 8869,7824 8556,8116 8132,8352 L 7973,8902 C 8014,8910 8055,8920 8096,8929 8592,9043 8949,9186 9235,9384 9522,9582 9652,9776 9652,10005 9652,10234 9522,10428 9235,10626 8949,10824 8592,10967 8096,11081 7600,11195 7113,11248 6540,11248 5967,11248 5480,11195 4984,11081 4488,10967 4131,10824 3845,10626 3558,10428 3428,10234 3428,10005 3428,9776 3558,9582 3845,9384 4131,9186 4488,9043 4984,8929 5025,8920 5065,8911 5106,8902 L 4947,8353 C 4522,8117 4209,7825 3954,7430 3679,7004 3554,6587 3554,6096 3554,5605 3679,5188 3954,4762 4083,4563 4226,4390 4391,4237 L 5969,2519 C 5859,2449 5776,2364 5707,2253 5625,2121 5588,1992 5588,1840 5588,1688 5625,1559 5707,1427 5789,1295 5890,1201 6032,1125 6174,1049 6313,1014 6477,1014 6641,1014 6780,1049 6922,1125 7064,1201 7165,1295 7247,1427 7329,1559 7367,1688 7367,1840 7367,1992 7329,2121 7247,2253 7195,2337 7134,2406 7060,2465 L 8701,4250 C 8860,4400 8999,4569 9124,4762 Z M 3846,10739 C 4132,10937 4488,11079 4985,11194 5481,11308 5968,11360 6541,11360 7113,11360 7600,11308 8097,11194 8593,11079 8949,10937 9236,10739 9423,10609 9544,10481 9605,10344 9637,10416 9653,10490 9653,10569 9653,10798 9522,10992 9236,11190 8949,11388 8593,11531 8097,11645 7600,11759 7113,11812 6541,11812 5968,11812 5481,11759 4985,11645 4488,11531 4132,11388 3846,11190 3559,10992 3429,10798 3429,10569 3429,10490 3444,10416 3476,10344 3537,10481 3658,10609 3846,10739 Z"/>
        <path fill="none" stroke="rgb(0,0,0)" stroke-width="305" stroke-linejoin="round" d="M 9124,4762 C 9399,5188 9524,5605 9524,6096 9524,6587 9399,7004 9124,7430 8869,7824 8556,8116 8132,8352 L 7973,8902 C 8014,8910 8055,8920 8096,8929 8592,9043 8949,9186 9235,9384 9522,9582 9652,9776 9652,10005 9652,10234 9522,10428 9235,10626 8949,10824 8592,10967 8096,11081 7600,11195 7113,11248 6540,11248 5967,11248 5480,11195 4984,11081 4488,10967 4131,10824 3845,10626 3558,10428 3428,10234 3428,10005 3428,9776 3558,9582 3845,9384 4131,9186 4488,9043 4984,8929 5025,8920 5065,8911 5106,8902 L 4947,8353 C 4522,8117 4209,7825 3954,7430 3679,7004 3554,6587 3554,6096 3554,5605 3679,5188 3954,4762 4083,4563 4226,4390 4391,4237 L 5969,2519 C 5859,2449 5776,2364 5707,2253 5625,2121 5588,1992 5588,1840 5588,1688 5625,1559 5707,1427 5789,1295 5890,1201 6032,1125 6174,1049 6313,1014 6477,1014 6641,1014 6780,1049 6922,1125 7064,1201 7165,1295 7247,1427 7329,1559 7367,1688 7367,1840 7367,1992 7329,2121 7247,2253 7195,2337 7134,2406 7060,2465 L 8701,4250 C 8860,4400 8999,4569 9124,4762 Z"/>
        <path fill="none" stroke="rgb(0,0,0)" stroke-width="305" stroke-linejoin="round" d="M 3846,10739 C 4132,10937 4488,11079 4985,11194 5481,11308 5968,11360 6541,11360 7113,11360 7600,11308 8097,11194 8593,11079 8949,10937 9236,10739 9423,10609 9544,10481 9605,10344 9637,10416 9653,10490 9653,10569 9653,10798 9522,10992 9236,11190 8949,11388 8593,11531 8097,11645 7600,11759 7113,11812 6541,11812 5968,11812 5481,11759 4985,11645 4488,11531 4132,11388 3846,11190 3559,10992 3429,10798 3429,10569 3429,10490 3444,10416 3476,10344 3537,10481 3658,10609 3846,10739 Z"/>
       </g>
      </g>
      <g class="com.sun.star.drawing.ClosedBezierShape">
       <g id="id4">
        <rect class="BoundingBox" stroke="none" fill="none" x="6342" y="1270" width="771" height="1046"/>
        <path fill="rgb(153,153,153)" stroke="none" d="M 6862,2101 C 6860,1963 6829,1844 6767,1721 6704,1598 6626,1507 6520,1433 6462,1391 6403,1361 6342,1342 6425,1293 6506,1271 6599,1271 6697,1270 6780,1292 6863,1343 6946,1395 7004,1459 7050,1548 7096,1637 7115,1726 7111,1830 7108,1934 7083,2022 7030,2112 6980,2199 6921,2262 6840,2315 6856,2247 6863,2178 6862,2101 Z"/>
       </g>
      </g>
      <g class="com.sun.star.drawing.ClosedBezierShape">
       <g id="id5">
        <rect class="BoundingBox" stroke="none" fill="none" x="5131" y="9450" width="2821" height="662"/>
        <path fill="rgb(51,51,51)" stroke="none" d="M 7207,9861 C 6995,9902 6786,9921 6540,9921 6295,9921 6086,9902 5874,9861 5661,9819 5508,9767 5386,9695 5292,9640 5237,9586 5216,9526 5210,9544 5207,9563 5207,9582 5207,9666 5263,9736 5386,9808 5508,9880 5661,9932 5874,9973 6086,10015 6295,10034 6540,10034 6786,10034 6995,10015 7207,9973 7420,9932 7573,9880 7695,9808 7818,9736 7874,9666 7874,9582 7874,9563 7871,9544 7865,9526 7844,9586 7789,9640 7695,9695 7573,9767 7420,9819 7207,9861 Z"/>
        <path fill="none" stroke="rgb(153,153,153)" stroke-width="152" stroke-linejoin="round" d="M 7207,9861 C 6995,9902 6786,9921 6540,9921 6295,9921 6086,9902 5874,9861 5661,9819 5508,9767 5386,9695 5292,9640 5237,9586 5216,9526 5210,9544 5207,9563 5207,9582 5207,9666 5263,9736 5386,9808 5508,9880 5661,9932 5874,9973 6086,10015 6295,10034 6540,10034 6786,10034 6995,10015 7207,9973 7420,9932 7573,9880 7695,9808 7818,9736 7874,9666 7874,9582 7874,9563 7871,9544 7865,9526 7844,9586 7789,9640 7695,9695 7573,9767 7420,9819 7207,9861 Z"/>
       </g>
      </g>
      <g class="com.sun.star.drawing.CustomShape">
       <g id="id6">
        <rect class="BoundingBox" stroke="none" fill="none" x="7355" y="8378" width="407" height="1025"/>
        <path fill="rgb(153,153,153)" stroke="none" d="M 7473,8379 L 7760,8385 7642,9401 7356,9395 7473,8379 Z"/>
       </g>
      </g>
      <g class="com.sun.star.drawing.ClosedBezierShape">
       <g id="id7">
        <rect class="BoundingBox" stroke="none" fill="none" x="7199" y="3174" width="1819" height="4461"/>
        <path fill="rgb(153,153,153)" stroke="none" d="M 8469,6477 C 8477,7048 8167,7522 8087,7620 8333,7759 9148,6815 8999,5884 8850,4952 8192,4134 7929,3827 7676,3533 7447,3328 7199,3174 7352,3410 8478,5143 8469,6477 Z"/>
       </g>
      </g>
      <g class="com.sun.star.drawing.ClosedBezierShape">
       <g id="id8">
        <rect class="BoundingBox" stroke="none" fill="none" x="4698" y="3428" width="2795" height="3304"/>
        <path fill="rgb(153,153,153)" stroke="none" d="M 6422,4221 C 6186,4047 5954,3968 5681,3968 5409,3968 5177,4047 4940,4221 4851,4287 4770,4359 4698,4440 4707,4417 4717,4395 4727,4373 4864,4072 5033,3856 5270,3682 5506,3508 5738,3429 6011,3429 6283,3429 6515,3508 6751,3682 6988,3856 7157,4072 7294,4373 7430,4673 7492,4969 7492,5316 7492,5664 7430,5959 7294,6260 7209,6446 7112,6600 6994,6731 7110,6453 7163,6177 7163,5855 7163,5508 7101,5212 6965,4912 6828,4611 6659,4394 6422,4221 Z"/>
       </g>
      </g>
      <g class="com.sun.star.drawing.CustomShape">
       <g id="id9">
        <rect class="BoundingBox" stroke="none" fill="none" x="4823" y="4949" width="1527" height="1401"/>
        <path fill="rgb(0,0,0)" stroke="none" d="M 5586,4950 C 5726,4950 5846,4979 5967,5044 6088,5108 6176,5188 6246,5300 6316,5411 6348,5520 6348,5649 6348,5778 6316,5887 6246,5999 6176,6110 6088,6190 5967,6254 5846,6319 5726,6348 5586,6348 5446,6348 5326,6319 5205,6254 5084,6190 4996,6110 4926,5999 4856,5887 4824,5778 4824,5649 4824,5520 4856,5411 4926,5300 4996,5188 5084,5108 5205,5044 5326,4979 5446,4950 5586,4950 L 5586,4950 Z"/>
        <path fill="none" stroke="rgb(52,101,164)" d="M 5586,4950 C 5726,4950 5846,4979 5967,5044 6088,5108 6176,5188 6246,5300 6316,5411 6348,5520 6348,5649 6348,5778 6316,5887 6246,5999 6176,6110 6088,6190 5967,6254 5846,6319 5726,6348 5586,6348 5446,6348 5326,6319 5205,6254 5084,6190 4996,6110 4926,5999 4856,5887 4824,5778 4824,5649 4824,5520 4856,5411 4926,5300 4996,5188 5084,5108 5205,5044 5326,4979 5446,4950 5586,4950 L 5586,4950 Z"/>
       </g>
      </g>
     </g>
    </g>
   </g>
  </g>
 </g>
</svg>