<?xml version="1.0" encoding="UTF-8"?>
<!DOCTYPE svg PUBLIC "-//W3C//DTD SVG 1.1//EN" "http://www.w3.org/Graphics/SVG/1.1/DTD/svg11.dtd">
<svg version="1.2" width="129.54mm" height="129.54mm" viewBox="0 0 12954 12954" preserveAspectRatio="xMidYMid" fill-rule="evenodd" stroke-width="28.222" stroke-linejoin="round" xmlns="http://www.w3.org/2000/svg" xmlns:ooo="http://xml.openoffice.org/svg/export" xmlns:xlink="http://www.w3.org/1999/xlink" xmlns:presentation="http://sun.com/xmlns/staroffice/presentation" xmlns:smil="http://www.w3.org/2001/SMIL20/" xmlns:anim="urn:oasis:names:tc:opendocument:xmlns:animation:1.0" xml:space="preserve">
 <defs class="ClipPathGroup">
  <clipPath id="presentation_clip_path" clipPathUnits="userSpaceOnUse">
   <rect x="0" y="0" width="12954" height="12954"/>
  </clipPath>
  <clipPath id="presentation_clip_path_shrink" clipPathUnits="userSpaceOnUse">
   <rect x="12" y="12" width="12929" height="12929"/>
  </clipPath>
 </defs>
 <defs class="TextShapeIndex">
  <g ooo:slide="id1" ooo:id-list="id3 id4 id5 id6 id7 id8 id9 id10 id11 id12 id13 id14"/>
 </defs>
 <defs class="EmbeddedBulletChars">
  <g id="bullet-char-template-57356" transform="scale(0.00048828125,-0.00048828125)">
   <path d="M 580,1141 L 1163,571 580,0 -4,571 580,1141 Z"/>
  </g>
  <g id="bullet-char-template-57354" transform="scale(0.00048828125,-0.00048828125)">
   <path d="M 8,1128 L 1137,1128 1137,0 8,0 8,1128 Z"/>
  </g>
  <g id="bullet-char-template-10146" transform="scale(0.00048828125,-0.00048828125)">
   <path d="M 174,0 L 602,739 174,1481 1456,739 174,0 Z M 1358,739 L 309,1346 659,739 1358,739 Z"/>
  </g>
  <g id="bullet-char-template-10132" transform="scale(0.00048828125,-0.00048828125)">
   <path d="M 2015,739 L 1276,0 717,0 1260,543 174,543 174,936 1260,936 717,1481 1274,1481 2015,739 Z"/>
  </g>
  <g id="bullet-char-template-10007" transform="scale(0.00048828125,-0.00048828125)">
   <path d="M 0,-2 C -7,14 -16,27 -25,37 L 356,567 C 262,823 215,952 215,954 215,979 228,992 255,992 264,992 276,990 289,987 310,991 331,999 354,1012 L 381,999 492,748 772,1049 836,1024 860,1049 C 881,1039 901,1025 922,1006 886,937 835,863 770,784 769,783 710,716 594,584 L 774,223 C 774,196 753,168 711,139 L 727,119 C 717,90 699,76 672,76 641,76 570,178 457,381 L 164,-76 C 142,-110 111,-127 72,-127 30,-127 9,-110 8,-76 1,-67 -2,-52 -2,-32 -2,-23 -1,-13 0,-2 Z"/>
  </g>
  <g id="bullet-char-template-10004" transform="scale(0.00048828125,-0.00048828125)">
   <path d="M 285,-33 C 182,-33 111,30 74,156 52,228 41,333 41,471 41,549 55,616 82,672 116,743 169,778 240,778 293,778 328,747 346,684 L 369,508 C 377,444 397,411 428,410 L 1163,1116 C 1174,1127 1196,1133 1229,1133 1271,1133 1292,1118 1292,1087 L 1292,965 C 1292,929 1282,901 1262,881 L 442,47 C 390,-6 338,-33 285,-33 Z"/>
  </g>
  <g id="bullet-char-template-9679" transform="scale(0.00048828125,-0.00048828125)">
   <path d="M 813,0 C 632,0 489,54 383,161 276,268 223,411 223,592 223,773 276,916 383,1023 489,1130 632,1184 813,1184 992,1184 1136,1130 1245,1023 1353,916 1407,772 1407,592 1407,412 1353,268 1245,161 1136,54 992,0 813,0 Z"/>
  </g>
  <g id="bullet-char-template-8226" transform="scale(0.00048828125,-0.00048828125)">
   <path d="M 346,457 C 273,457 209,483 155,535 101,586 74,649 74,723 74,796 101,859 155,911 209,963 273,989 346,989 419,989 480,963 531,910 582,859 608,796 608,723 608,648 583,586 532,535 482,483 420,457 346,457 Z"/>
  </g>
  <g id="bullet-char-template-8211" transform="scale(0.00048828125,-0.00048828125)">
   <path d="M -4,459 L 1135,459 1135,606 -4,606 -4,459 Z"/>
  </g>
  <g id="bullet-char-template-61548" transform="scale(0.00048828125,-0.00048828125)">
   <path d="M 173,740 C 173,903 231,1043 346,1159 462,1274 601,1332 765,1332 928,1332 1067,1274 1183,1159 1299,1043 1357,903 1357,740 1357,577 1299,437 1183,322 1067,206 928,148 765,148 601,148 462,206 346,322 231,437 173,577 173,740 Z"/>
  </g>
 </defs>
 <defs class="TextEmbeddedBitmaps"/>
 <g>
  <g id="id2" class="Master_Slide">
   <g id="bg-id2" class="Background"/>
   <g id="bo-id2" class="BackgroundObjects"/>
  </g>
 </g>
 <g class="SlideGroup">
  <g>
   <g id="container-id1">
    <g id="id1" class="Slide" clip-path="url(#presentation_clip_path)">
     <g class="Page">
      <g class="com.sun.star.drawing.ClosedBezierShape">
       <g id="id3">
        <rect class="BoundingBox" stroke="none" fill="none" x="1370" y="1622" width="10722" height="10597"/>
        <path fill="rgb(238,238,238)" stroke="none" d="M 10668,4951 L 9025,8937 C 9388,9044 9676,9172 9922,9333 10261,9556 10415,9775 10415,10032 10415,10289 10261,10508 9922,10731 9582,10954 9161,11114 8573,11242 7986,11371 7410,11430 6732,11430 6053,11430 5477,11371 4890,11242 4302,11114 3881,10954 3541,10731 3202,10508 3048,10289 3048,10032 3048,9775 3202,9556 3541,9333 3811,9156 4133,9019 4549,8905 L 3376,6060 3374,6061 2273,3426 2283,3419 C 2173,3405 2071,3372 1968,3316 1826,3240 1724,3146 1642,3014 1560,2882 1523,2753 1523,2601 1523,2449 1560,2320 1642,2188 1724,2056 1826,1962 1968,1886 2110,1810 2249,1775 2412,1775 2576,1775 2715,1810 2857,1886 2999,1962 3101,2056 3183,2188 3265,2320 3302,2449 3302,2601 3302,2753 3265,2882 3183,3014 3181,3017 3179,3021 3177,3024 L 4533,4536 C 4651,4568 4776,4599 4909,4628 L 5144,3374 C 5101,3359 5059,3339 5016,3316 4874,3240 4772,3146 4690,3014 4608,2882 4571,2753 4571,2601 4571,2449 4608,2320 4690,2188 4772,2056 4874,1962 5016,1886 5158,1810 5297,1775 5461,1775 5624,1775 5763,1810 5905,1886 6047,1962 6149,2056 6231,2188 6313,2320 6350,2449 6350,2601 6350,2753 6313,2882 6231,3014 6155,3136 6062,3226 5936,3299 L 6568,4821 C 6654,4823 6740,4824 6828,4824 L 7475,3268 C 7374,3201 7296,3119 7230,3014 7148,2882 7111,2753 7111,2601 7111,2449 7148,2320 7230,2188 7312,2056 7414,1962 7556,1886 7698,1810 7837,1775 8001,1775 8164,1775 8303,1810 8445,1886 8587,1962 8689,2056 8771,2188 8853,2320 8890,2449 8890,2601 8890,2753 8853,2882 8771,3014 8689,3146 8587,3240 8445,3316 8383,3350 8321,3375 8257,3393 L 8500,4689 C 8588,4673 8675,4656 8763,4637 8792,4631 8820,4625 8848,4619 L 10282,3020 C 10281,3018 10280,3016 10278,3014 10196,2882 10159,2753 10159,2601 10159,2449 10196,2320 10278,2188 10360,2056 10462,1962 10604,1886 10746,1810 10885,1775 11049,1775 11212,1775 11351,1810 11493,1886 11635,1962 11737,2056 11819,2188 11901,2320 11938,2449 11938,2601 11938,2753 11901,2882 11819,3014 11737,3146 11635,3240 11493,3316 11435,3348 11377,3372 11317,3390 L 10665,4951 10668,4951 Z M 3540,10858 C 3880,11081 4301,11241 4889,11369 5476,11498 6052,11557 6731,11557 7409,11557 7985,11498 8572,11369 9160,11241 9581,11081 9921,10858 10143,10712 10286,10567 10358,10413 10396,10494 10414,10578 10414,10667 10414,10924 10260,11143 9921,11366 9581,11589 9160,11749 8572,11877 7985,12006 7409,12065 6731,12065 6052,12065 5476,12006 4889,11877 4301,11749 3880,11589 3540,11366 3201,11143 3047,10924 3047,10667 3047,10578 3065,10494 3103,10413 3175,10567 3318,10712 3540,10858 Z"/>
        <path fill="none" stroke="rgb(0,0,0)" stroke-width="305" stroke-linejoin="round" d="M 10668,4951 L 9025,8937 C 9388,9044 9676,9172 9922,9333 10261,9556 10415,9775 10415,10032 10415,10289 10261,10508 9922,10731 9582,10954 9161,11114 8573,11242 7986,11371 7410,11430 6732,11430 6053,11430 5477,11371 4890,11242 4302,11114 3881,10954 3541,10731 3202,10508 3048,10289 3048,10032 3048,9775 3202,9556 3541,9333 3811,9156 4133,9019 4549,8905 L 3376,6060 3374,6061 2273,3426 2283,3419 C 2173,3405 2071,3372 1968,3316 1826,3240 1724,3146 1642,3014 1560,2882 1523,2753 1523,2601 1523,2449 1560,2320 1642,2188 1724,2056 1826,1962 1968,1886 2110,1810 2249,1775 2412,1775 2576,1775 2715,1810 2857,1886 2999,1962 3101,2056 3183,2188 3265,2320 3302,2449 3302,2601 3302,2753 3265,2882 3183,3014 3181,3017 3179,3021 3177,3024 L 4533,4536 C 4651,4568 4776,4599 4909,4628 L 5144,3374 C 5101,3359 5059,3339 5016,3316 4874,3240 4772,3146 4690,3014 4608,2882 4571,2753 4571,2601 4571,2449 4608,2320 4690,2188 4772,2056 4874,1962 5016,1886 5158,1810 5297,1775 5461,1775 5624,1775 5763,1810 5905,1886 6047,1962 6149,2056 6231,2188 6313,2320 6350,2449 6350,2601 6350,2753 6313,2882 6231,3014 6155,3136 6062,3226 5936,3299 L 6568,4821 C 6654,4823 6740,4824 6828,4824 L 7475,3268 C 7374,3201 7296,3119 7230,3014 7148,2882 7111,2753 7111,2601 7111,2449 7148,2320 7230,2188 7312,2056 7414,1962 7556,1886 7698,1810 7837,1775 8001,1775 8164,1775 8303,1810 8445,1886 8587,1962 8689,2056 8771,2188 8853,2320 8890,2449 8890,2601 8890,2753 8853,2882 8771,3014 8689,3146 8587,3240 8445,3316 8383,3350 8321,3375 8257,3393 L 8500,4689 C 8588,4673 8675,4656 8763,4637 8792,4631 8820,4625 8848,4619 L 10282,3020 C 10281,3018 10280,3016 10278,3014 10196,2882 10159,2753 10159,2601 10159,2449 10196,2320 10278,2188 10360,2056 10462,1962 10604,1886 10746,1810 10885,1775 11049,1775 11212,1775 11351,1810 11493,1886 11635,1962 11737,2056 11819,2188 11901,2320 11938,2449 11938,2601 11938,2753 11901,2882 11819,3014 11737,3146 11635,3240 11493,3316 11435,3348 11377,3372 11317,3390 L 10665,4951 10668,4951 Z"/>
        <path fill="none" stroke="rgb(0,0,0)" stroke-width="305" stroke-linejoin="round" d="M 3540,10858 C 3880,11081 4301,11241 4889,11369 5476,11498 6052,11557 6731,11557 7409,11557 7985,11498 8572,11369 9160,11241 9581,11081 9921,10858 10143,10712 10286,10567 10358,10413 10396,10494 10414,10578 10414,10667 10414,10924 10260,11143 9921,11366 9581,11589 9160,11749 8572,11877 7985,12006 7409,12065 6731,12065 6052,12065 5476,12006 4889,11877 4301,11749 3880,11589 3540,11366 3201,11143 3047,10924 3047,10667 3047,10578 3065,10494 3103,10413 3175,10567 3318,10712 3540,10858 Z"/>
       </g>
      </g>
      <g class="com.sun.star.drawing.ClosedBezierShape">
       <g id="id4">
        <rect class="BoundingBox" stroke="none" fill="none" x="2366" y="2033" width="684" height="1015"/>
        <path fill="rgb(153,153,153)" stroke="none" d="M 2607,2872 C 2663,2753 2681,2641 2665,2513 2649,2385 2603,2281 2520,2179 2474,2122 2424,2076 2367,2038 2476,2026 2573,2036 2675,2068 2781,2102 2860,2151 2928,2224 2997,2297 3033,2373 3045,2465 3056,2559 3039,2640 2991,2728 2943,2816 2878,2882 2784,2941 2693,2998 2602,3031 2493,3046 2539,2995 2576,2938 2607,2872 Z"/>
       </g>
      </g>
      <g class="com.sun.star.drawing.ClosedBezierShape">
       <g id="id5">
        <rect class="BoundingBox" stroke="none" fill="none" x="5333" y="2033" width="684" height="1015"/>
        <path fill="rgb(153,153,153)" stroke="none" d="M 5574,2872 C 5630,2753 5648,2641 5632,2513 5616,2385 5570,2281 5487,2179 5441,2122 5391,2076 5334,2038 5443,2026 5540,2036 5642,2068 5748,2102 5827,2151 5895,2224 5964,2297 6000,2373 6012,2465 6023,2559 6006,2640 5958,2728 5910,2816 5845,2882 5751,2941 5660,2998 5569,3031 5460,3046 5506,2995 5543,2938 5574,2872 Z"/>
       </g>
      </g>
      <g class="com.sun.star.drawing.ClosedBezierShape">
       <g id="id6">
        <rect class="BoundingBox" stroke="none" fill="none" x="7873" y="2035" width="684" height="1015"/>
        <path fill="rgb(153,153,153)" stroke="none" d="M 8114,2874 C 8170,2755 8188,2643 8172,2515 8156,2387 8110,2283 8027,2181 7981,2124 7931,2078 7874,2040 7983,2028 8080,2038 8182,2070 8288,2104 8367,2153 8435,2226 8504,2299 8540,2375 8552,2467 8563,2561 8546,2642 8498,2730 8450,2818 8385,2884 8291,2943 8200,3000 8109,3033 8000,3048 8046,2997 8083,2940 8114,2874 Z"/>
       </g>
      </g>
      <g class="com.sun.star.drawing.ClosedBezierShape">
       <g id="id7">
        <rect class="BoundingBox" stroke="none" fill="none" x="4547" y="9590" width="4219" height="789"/>
        <path fill="rgb(51,51,51)" stroke="none" d="M 7672,10084 C 7348,10136 7030,10160 6655,10160 6281,10160 5963,10136 5639,10084 5315,10032 5082,9968 4895,9878 4752,9809 4668,9741 4637,9666 4628,9689 4623,9712 4623,9736 4623,9840 4708,9929 4895,10019 5082,10109 5315,10173 5639,10225 5963,10277 6281,10301 6655,10301 7030,10301 7348,10277 7672,10225 7996,10173 8229,10109 8416,10019 8603,9929 8688,9840 8688,9736 8688,9712 8683,9689 8674,9666 8643,9741 8559,9809 8416,9878 8229,9968 7996,10032 7672,10084 Z"/>
        <path fill="none" stroke="rgb(153,153,153)" stroke-width="152" stroke-linejoin="round" d="M 7672,10084 C 7348,10136 7030,10160 6655,10160 6281,10160 5963,10136 5639,10084 5315,10032 5082,9968 4895,9878 4752,9809 4668,9741 4637,9666 4628,9689 4623,9712 4623,9736 4623,9840 4708,9929 4895,10019 5082,10109 5315,10173 5639,10225 5963,10277 6281,10301 6655,10301 7030,10301 7348,10277 7672,10225 7996,10173 8229,10109 8416,10019 8603,9929 8688,9840 8688,9736 8688,9712 8683,9689 8674,9666 8643,9741 8559,9809 8416,9878 8229,9968 7996,10032 7672,10084 Z"/>
       </g>
      </g>
      <g class="com.sun.star.drawing.ClosedBezierShape">
       <g id="id8">
        <rect class="BoundingBox" stroke="none" fill="none" x="10875" y="2033" width="684" height="1015"/>
        <path fill="rgb(153,153,153)" stroke="none" d="M 11116,2872 C 11172,2753 11190,2641 11174,2513 11158,2385 11112,2281 11029,2179 10983,2122 10933,2076 10876,2038 10985,2026 11082,2036 11184,2068 11290,2102 11369,2151 11437,2224 11506,2297 11542,2373 11554,2465 11565,2559 11548,2640 11500,2728 11452,2816 11387,2882 11293,2941 11202,2998 11111,3031 11002,3046 11048,2995 11085,2938 11116,2872 Z"/>
       </g>
      </g>
      <g class="com.sun.star.drawing.CustomShape">
       <g id="id9">
        <rect class="BoundingBox" stroke="none" fill="none" x="2845" y="3390" width="1336" height="1525"/>
        <path fill="rgb(153,153,153)" stroke="none" d="M 2845,3574 L 2845,3574 3960,4914 3960,4914 4180,4731 4180,4731 3065,3391 3065,3391 2845,3574 Z"/>
       </g>
      </g>
      <g class="com.sun.star.drawing.CustomShape">
       <g id="id10">
        <rect class="BoundingBox" stroke="none" fill="none" x="5409" y="3556" width="785" height="1509"/>
        <path fill="rgb(153,153,153)" stroke="none" d="M 5410,3654 L 5410,3654 5924,5064 5924,5064 6192,4966 6192,4966 5678,3556 5678,3556 5410,3654 Z"/>
       </g>
      </g>
      <g class="com.sun.star.drawing.CustomShape">
       <g id="id11">
        <rect class="BoundingBox" stroke="none" fill="none" x="7746" y="3606" width="495" height="1377"/>
        <path fill="rgb(153,153,153)" stroke="none" d="M 7747,3652 L 7747,3652 7957,4981 7957,4981 8239,4936 8239,4936 8029,3607 8029,3607 7747,3652 Z"/>
       </g>
      </g>
      <g class="com.sun.star.drawing.CustomShape">
       <g id="id12">
        <rect class="BoundingBox" stroke="none" fill="none" x="9902" y="3429" width="988" height="1706"/>
        <path fill="rgb(153,153,153)" stroke="none" d="M 10889,3549 L 10889,3549 10163,5133 10163,5133 9903,5014 9903,5014 10629,3430 10629,3430 10889,3549 Z"/>
       </g>
      </g>
      <g class="com.sun.star.drawing.ClosedBezierShape">
       <g id="id13">
        <rect class="BoundingBox" stroke="none" fill="none" x="5461" y="6350" width="4193" height="3305"/>
        <path fill="rgb(153,153,153)" stroke="none" d="M 9653,6351 C 8228,9046 5462,9272 5462,9272 5462,9272 6097,9653 6859,9653 7621,9653 8307,9003 8307,9003 L 9653,6351 Z"/>
       </g>
      </g>
      <g class="com.sun.star.drawing.ClosedBezierShape">
       <g id="id14">
        <rect class="BoundingBox" stroke="none" fill="none" x="4190" y="5081" width="5209" height="637"/>
        <path fill="rgb(153,153,153)" stroke="none" d="M 8096,5499 C 7681,5551 7274,5575 6795,5575 6315,5575 5908,5551 5493,5499 5078,5447 4779,5383 4540,5293 4356,5224 4249,5156 4209,5081 4197,5104 4191,5127 4191,5151 4191,5255 4300,5344 4540,5434 4779,5524 5078,5588 5493,5640 5908,5692 6315,5716 6795,5716 7274,5716 7681,5692 8096,5640 8511,5588 8810,5524 9049,5434 9289,5344 9398,5255 9398,5151 9398,5127 9392,5104 9380,5081 9340,5156 9233,5224 9049,5293 8810,5383 8511,5447 8096,5499 Z"/>
       </g>
      </g>
     </g>
    </g>
   </g>
  </g>
 </g>
</svg>