<?xml version="1.0" encoding="UTF-8"?>
<!DOCTYPE svg PUBLIC "-//W3C//DTD SVG 1.1//EN" "http://www.w3.org/Graphics/SVG/1.1/DTD/svg11.dtd">
<svg version="1.2" width="129.54mm" height="129.54mm" viewBox="0 0 12954 12954" preserveAspectRatio="xMidYMid" fill-rule="evenodd" stroke-width="28.222" stroke-linejoin="round" xmlns="http://www.w3.org/2000/svg" xmlns:ooo="http://xml.openoffice.org/svg/export" xmlns:xlink="http://www.w3.org/1999/xlink" xmlns:presentation="http://sun.com/xmlns/staroffice/presentation" xmlns:smil="http://www.w3.org/2001/SMIL20/" xmlns:anim="urn:oasis:names:tc:opendocument:xmlns:animation:1.0" xml:space="preserve">
 <defs class="ClipPathGroup">
  <clipPath id="presentation_clip_path" clipPathUnits="userSpaceOnUse">
   <rect x="0" y="0" width="12954" height="12954"/>
  </clipPath>
  <clipPath id="presentation_clip_path_shrink" clipPathUnits="userSpaceOnUse">
   <rect x="12" y="12" width="12929" height="12929"/>
  </clipPath>
 </defs>
 <defs class="TextShapeIndex">
  <g ooo:slide="id1" ooo:id-list="id3 id4 id5 id6 id7 id8 id9"/>
 </defs>
 <defs class="EmbeddedBulletChars">
  <g id="bullet-char-template-57356" transform="scale(0.00048828125,-0.00048828125)">
   <path d="M 580,1141 L 1163,571 580,0 -4,571 580,1141 Z"/>
  </g>
  <g id="bullet-char-template-57354" transform="scale(0.00048828125,-0.00048828125)">
   <path d="M 8,1128 L 1137,1128 1137,0 8,0 8,1128 Z"/>
  </g>
  <g id="bullet-char-template-10146" transform="scale(0.00048828125,-0.00048828125)">
   <path d="M 174,0 L 602,739 174,1481 1456,739 174,0 Z M 1358,739 L 309,1346 659,739 1358,739 Z"/>
  </g>
  <g id="bullet-char-template-10132" transform="scale(0.00048828125,-0.00048828125)">
   <path d="M 2015,739 L 1276,0 717,0 1260,543 174,543 174,936 1260,936 717,1481 1274,1481 2015,739 Z"/>
  </g>
  <g id="bullet-char-template-10007" transform="scale(0.00048828125,-0.00048828125)">
   <path d="M 0,-2 C -7,14 -16,27 -25,37 L 356,567 C 262,823 215,952 215,954 215,979 228,992 255,992 264,992 276,990 289,987 310,991 331,999 354,1012 L 381,999 492,748 772,1049 836,1024 860,1049 C 881,1039 901,1025 922,1006 886,937 835,863 770,784 769,783 710,716 594,584 L 774,223 C 774,196 753,168 711,139 L 727,119 C 717,90 699,76 672,76 641,76 570,178 457,381 L 164,-76 C 142,-110 111,-127 72,-127 30,-127 9,-110 8,-76 1,-67 -2,-52 -2,-32 -2,-23 -1,-13 0,-2 Z"/>
  </g>
  <g id="bullet-char-template-10004" transform="scale(0.00048828125,-0.00048828125)">
   <path d="M 285,-33 C 182,-33 111,30 74,156 52,228 41,333 41,471 41,549 55,616 82,672 116,743 169,778 240,778 293,778 328,747 346,684 L 369,508 C 377,444 397,411 428,410 L 1163,1116 C 1174,1127 1196,1133 1229,1133 1271,1133 1292,1118 1292,1087 L 1292,965 C 1292,929 1282,901 1262,881 L 442,47 C 390,-6 338,-33 285,-33 Z"/>
  </g>
  <g id="bullet-char-template-9679" transform="scale(0.00048828125,-0.00048828125)">
   <path d="M 813,0 C 632,0 489,54 383,161 276,268 223,411 223,592 223,773 276,916 383,1023 489,1130 632,1184 813,1184 992,1184 1136,1130 1245,1023 1353,916 1407,772 1407,592 1407,412 1353,268 1245,161 1136,54 992,0 813,0 Z"/>
  </g>
  <g id="bullet-char-template-8226" transform="scale(0.00048828125,-0.00048828125)">
   <path d="M 346,457 C 273,457 209,483 155,535 101,586 74,649 74,723 74,796 101,859 155,911 209,963 273,989 346,989 419,989 480,963 531,910 582,859 608,796 608,723 608,648 583,586 532,535 482,483 420,457 346,457 Z"/>
  </g>
  <g id="bullet-char-template-8211" transform="scale(0.00048828125,-0.00048828125)">
   <path d="M -4,459 L 1135,459 1135,606 -4,606 -4,459 Z"/>
  </g>
  <g id="bullet-char-template-61548" transform="scale(0.00048828125,-0.00048828125)">
   <path d="M 173,740 C 173,903 231,1043 346,1159 462,1274 601,1332 765,1332 928,1332 1067,1274 1183,1159 1299,1043 1357,903 1357,740 1357,577 1299,437 1183,322 1067,206 928,148 765,148 601,148 462,206 346,322 231,437 173,577 173,740 Z"/>
  </g>
 </defs>
 <defs class="TextEmbeddedBitmaps"/>
 <g>
  <g id="id2" class="Master_Slide">
   <g id="bg-id2" class="Background"/>
   <g id="bo-id2" class="BackgroundObjects"/>
  </g>
 </g>
 <g class="SlideGroup">
  <g>
   <g id="container-id1">
    <g id="id1" class="Slide" clip-path="url(#presentation_clip_path)">
     <g class="Page">
      <g class="com.sun.star.drawing.ClosedBezierShape">
       <g id="id3">
        <rect class="BoundingBox" stroke="none" fill="none" x="2132" y="734" width="9074" height="11612"/>
        <path fill="rgb(238,238,238)" stroke="none" d="M 9794,9461 C 10133,9684 10288,9903 10288,10160 10288,10417 10133,10636 9794,10859 9455,11082 9033,11242 8446,11370 7858,11499 7282,11558 6604,11558 5926,11558 5350,11499 4762,11370 4175,11242 3753,11082 3414,10859 3075,10636 2921,10417 2921,10160 2920,9903 3075,9684 3414,9461 3624,9323 3866,9209 4159,9112 L 2666,6449 C 2494,6297 2413,6142 2413,5969 2413,5880 2435,5796 2478,5715 2562,5869 2727,6014 2983,6160 3021,6181 3059,6202 3099,6222 L 3169,6222 C 2949,6058 2735,5849 2514,5560 2040,4813 2201,3505 3965,3013 4729,2847 5299,2923 5716,3081 L 6047,2358 C 5961,2295 5892,2220 5834,2126 5752,1994 5715,1865 5715,1713 5715,1561 5752,1432 5834,1300 5916,1168 6017,1074 6159,998 6301,922 6440,887 6604,887 6768,887 6907,922 7049,998 7191,1074 7292,1168 7374,1300 7456,1432 7494,1561 7494,1713 7494,1865 7456,1994 7374,2126 7316,2220 7247,2295 7161,2358 L 7513,3126 C 7937,2939 8540,2832 9378,3013 11143,3505 11295,4813 10820,5560 10599,5849 10385,6058 10165,6222 L 10237,6222 C 10277,6202 10315,6181 10352,6160 10609,6014 10774,5869 10857,5715 10901,5796 10922,5880 10922,5969 10922,6143 10841,6300 10666,6452 L 9155,9149 C 9401,9238 9610,9340 9794,9461 Z M 3413,10986 C 3752,11209 4174,11369 4761,11497 5349,11626 5925,11684 6603,11684 7281,11684 7857,11626 8445,11497 9032,11369 9454,11209 9793,10986 10015,10840 10158,10695 10230,10541 10268,10622 10287,10706 10287,10795 10287,11052 10132,11271 9793,11494 9454,11717 9032,11877 8445,12005 7857,12134 7281,12192 6603,12192 5925,12192 5349,12134 4761,12005 4174,11877 3752,11717 3413,11494 3074,11271 2920,11052 2920,10795 2919,10706 2938,10622 2976,10541 3048,10695 3191,10840 3413,10986 Z"/>
        <path fill="none" stroke="rgb(0,0,0)" stroke-width="305" stroke-linejoin="round" d="M 9794,9461 C 10133,9684 10288,9903 10288,10160 10288,10417 10133,10636 9794,10859 9455,11082 9033,11242 8446,11370 7858,11499 7282,11558 6604,11558 5926,11558 5350,11499 4762,11370 4175,11242 3753,11082 3414,10859 3075,10636 2921,10417 2921,10160 2920,9903 3075,9684 3414,9461 3624,9323 3866,9209 4159,9112 L 2666,6449 C 2494,6297 2413,6142 2413,5969 2413,5880 2435,5796 2478,5715 2562,5869 2727,6014 2983,6160 3021,6181 3059,6202 3099,6222 L 3169,6222 C 2949,6058 2735,5849 2514,5560 2040,4813 2201,3505 3965,3013 4729,2847 5299,2923 5716,3081 L 6047,2358 C 5961,2295 5892,2220 5834,2126 5752,1994 5715,1865 5715,1713 5715,1561 5752,1432 5834,1300 5916,1168 6017,1074 6159,998 6301,922 6440,887 6604,887 6768,887 6907,922 7049,998 7191,1074 7292,1168 7374,1300 7456,1432 7494,1561 7494,1713 7494,1865 7456,1994 7374,2126 7316,2220 7247,2295 7161,2358 L 7513,3126 C 7937,2939 8540,2832 9378,3013 11143,3505 11295,4813 10820,5560 10599,5849 10385,6058 10165,6222 L 10237,6222 C 10277,6202 10315,6181 10352,6160 10609,6014 10774,5869 10857,5715 10901,5796 10922,5880 10922,5969 10922,6143 10841,6300 10666,6452 L 9155,9149 C 9401,9238 9610,9340 9794,9461 Z"/>
        <path fill="none" stroke="rgb(0,0,0)" stroke-width="305" stroke-linejoin="round" d="M 3413,10986 C 3752,11209 4174,11369 4761,11497 5349,11626 5925,11684 6603,11684 7281,11684 7857,11626 8445,11497 9032,11369 9454,11209 9793,10986 10015,10840 10158,10695 10230,10541 10268,10622 10287,10706 10287,10795 10287,11052 10132,11271 9793,11494 9454,11717 9032,11877 8445,12005 7857,12134 7281,12192 6603,12192 5925,12192 5349,12134 4761,12005 4174,11877 3752,11717 3413,11494 3074,11271 2920,11052 2920,10795 2919,10706 2938,10622 2976,10541 3048,10695 3191,10840 3413,10986 Z"/>
       </g>
      </g>
      <g class="com.sun.star.drawing.ClosedBezierShape">
       <g id="id4">
        <rect class="BoundingBox" stroke="none" fill="none" x="7747" y="3301" width="2796" height="2923"/>
        <path fill="rgb(153,153,153)" stroke="none" d="M 9765,5862 C 9838,5593 9840,5347 9771,5077 9702,4806 9582,4593 9389,4394 9195,4195 8986,4070 8721,3996 8455,3922 8213,3920 7946,3990 7876,4009 7810,4031 7747,4057 7812,3944 7893,3840 7992,3741 8189,3545 8399,3423 8666,3353 8933,3283 9175,3285 9440,3359 9706,3433 9915,3558 10108,3757 10302,3956 10421,4169 10491,4440 10560,4710 10558,4956 10485,5225 10411,5494 10289,5706 10092,5902 9948,6046 9795,6150 9618,6223 9681,6113 9729,5994 9765,5862 Z"/>
       </g>
      </g>
      <g class="com.sun.star.drawing.ClosedBezierShape">
       <g id="id5">
        <rect class="BoundingBox" stroke="none" fill="none" x="2793" y="3301" width="2796" height="2923"/>
        <path fill="rgb(153,153,153)" stroke="none" d="M 3570,5862 C 3497,5593 3495,5347 3564,5077 3633,4806 3753,4593 3946,4394 4140,4195 4349,4070 4614,3996 4880,3922 5122,3920 5389,3990 5459,4009 5525,4031 5588,4057 5523,3944 5442,3840 5343,3741 5146,3545 4936,3423 4669,3353 4402,3283 4160,3285 3895,3359 3629,3433 3420,3558 3227,3757 3033,3956 2914,4169 2844,4440 2775,4710 2777,4956 2850,5225 2924,5494 3046,5706 3243,5902 3387,6046 3540,6150 3717,6223 3654,6113 3606,5994 3570,5862 Z"/>
       </g>
      </g>
      <g class="com.sun.star.drawing.CustomShape">
       <g id="id6">
        <rect class="BoundingBox" stroke="none" fill="none" x="5334" y="3809" width="2543" height="2923"/>
        <path fill="rgb(153,153,153)" stroke="none" d="M 6605,3809 C 6839,3809 7038,3870 7240,4005 7443,4139 7588,4307 7705,4540 7822,4772 7876,5001 7876,5270 7876,5539 7822,5768 7705,6001 7588,6233 7443,6401 7240,6535 7038,6670 6839,6731 6605,6731 6371,6731 6172,6670 5970,6535 5767,6401 5622,6233 5505,6001 5388,5768 5335,5539 5335,5270 5335,5001 5388,4772 5505,4540 5622,4307 5767,4139 5970,4005 6172,3870 6371,3809 6605,3809 L 6605,3809 Z"/>
       </g>
      </g>
      <g class="com.sun.star.drawing.ClosedBezierShape">
       <g id="id7">
        <rect class="BoundingBox" stroke="none" fill="none" x="6603" y="1142" width="622" height="1019"/>
        <path fill="rgb(153,153,153)" stroke="none" d="M 6739,2000 C 6809,1889 6841,1780 6841,1651 6841,1522 6809,1413 6739,1302 6700,1240 6656,1188 6604,1143 6714,1145 6809,1166 6906,1211 7007,1258 7080,1316 7138,1397 7197,1478 7224,1557 7224,1651 7224,1745 7197,1824 7138,1905 7080,1986 7007,2044 6906,2091 6809,2136 6714,2157 6604,2159 6656,2114 6700,2062 6739,2000 Z"/>
       </g>
      </g>
      <g class="com.sun.star.drawing.ClosedBezierShape">
       <g id="id8">
        <rect class="BoundingBox" stroke="none" fill="none" x="4496" y="9958" width="4219" height="789"/>
        <path fill="rgb(153,153,153)" stroke="none" d="M 7621,10453 C 7297,10505 6979,10528 6605,10528 6231,10528 5913,10505 5589,10453 5265,10401 5032,10336 4845,10246 4701,10177 4618,10109 4587,10034 4577,10057 4572,10081 4572,10105 4572,10209 4658,10297 4845,10387 5032,10477 5265,10542 5589,10594 5913,10646 6231,10669 6605,10669 6979,10669 7297,10646 7621,10594 7945,10542 8178,10477 8365,10387 8552,10297 8637,10209 8637,10105 8637,10081 8633,10057 8623,10034 8592,10109 8509,10177 8365,10246 8178,10336 7945,10401 7621,10453 Z"/>
        <path fill="none" stroke="rgb(153,153,153)" stroke-width="152" stroke-linejoin="round" d="M 7621,10453 C 7297,10505 6979,10528 6605,10528 6231,10528 5913,10505 5589,10453 5265,10401 5032,10336 4845,10246 4701,10177 4618,10109 4587,10034 4577,10057 4572,10081 4572,10105 4572,10209 4658,10297 4845,10387 5032,10477 5265,10542 5589,10594 5913,10646 6231,10669 6605,10669 6979,10669 7297,10646 7621,10594 7945,10542 8178,10477 8365,10387 8552,10297 8637,10209 8637,10105 8637,10081 8633,10057 8623,10034 8592,10109 8509,10177 8365,10246 8178,10336 7945,10401 7621,10453 Z"/>
       </g>
      </g>
      <g class="com.sun.star.drawing.ClosedBezierShape">
       <g id="id9">
        <rect class="BoundingBox" stroke="none" fill="none" x="3937" y="6731" width="5591" height="637"/>
        <path fill="rgb(153,153,153)" stroke="none" d="M 8129,7150 C 7684,7202 7246,7225 6732,7225 6217,7225 5780,7202 5335,7150 4889,7098 4569,7033 4312,6943 4115,6874 4000,6806 3957,6731 3944,6754 3937,6778 3937,6802 3937,6906 4055,6994 4312,7084 4569,7174 4889,7239 5335,7291 5780,7343 6217,7366 6732,7366 7246,7366 7684,7343 8129,7291 8575,7239 8895,7174 9152,7084 9409,6994 9526,6906 9526,6802 9526,6778 9520,6754 9507,6731 9464,6806 9349,6874 9152,6943 8895,7033 8575,7098 8129,7150 Z"/>
       </g>
      </g>
     </g>
    </g>
   </g>
  </g>
 </g>
</svg>