<?xml version="1.0" encoding="UTF-8"?>
<!DOCTYPE svg PUBLIC "-//W3C//DTD SVG 1.1//EN" "http://www.w3.org/Graphics/SVG/1.1/DTD/svg11.dtd">
<svg version="1.2" width="129.54mm" height="129.54mm" viewBox="0 0 12954 12954" preserveAspectRatio="xMidYMid" fill-rule="evenodd" stroke-width="28.222" stroke-linejoin="round" xmlns="http://www.w3.org/2000/svg" xmlns:ooo="http://xml.openoffice.org/svg/export" xmlns:xlink="http://www.w3.org/1999/xlink" xmlns:presentation="http://sun.com/xmlns/staroffice/presentation" xmlns:smil="http://www.w3.org/2001/SMIL20/" xmlns:anim="urn:oasis:names:tc:opendocument:xmlns:animation:1.0" xml:space="preserve">
 <defs class="ClipPathGroup">
  <clipPath id="presentation_clip_path" clipPathUnits="userSpaceOnUse">
   <rect x="0" y="0" width="12954" height="12954"/>
  </clipPath>
  <clipPath id="presentation_clip_path_shrink" clipPathUnits="userSpaceOnUse">
   <rect x="12" y="12" width="12929" height="12929"/>
  </clipPath>
 </defs>
 <defs class="TextShapeIndex">
  <g ooo:slide="id1" ooo:id-list="id3 id4 id5 id6 id7 id8"/>
 </defs>
 <defs class="EmbeddedBulletChars">
  <g id="bullet-char-template-57356" transform="scale(0.00048828125,-0.00048828125)">
   <path d="M 580,1141 L 1163,571 580,0 -4,571 580,1141 Z"/>
  </g>
  <g id="bullet-char-template-57354" transform="scale(0.00048828125,-0.00048828125)">
   <path d="M 8,1128 L 1137,1128 1137,0 8,0 8,1128 Z"/>
  </g>
  <g id="bullet-char-template-10146" transform="scale(0.00048828125,-0.00048828125)">
   <path d="M 174,0 L 602,739 174,1481 1456,739 174,0 Z M 1358,739 L 309,1346 659,739 1358,739 Z"/>
  </g>
  <g id="bullet-char-template-10132" transform="scale(0.00048828125,-0.00048828125)">
   <path d="M 2015,739 L 1276,0 717,0 1260,543 174,543 174,936 1260,936 717,1481 1274,1481 2015,739 Z"/>
  </g>
  <g id="bullet-char-template-10007" transform="scale(0.00048828125,-0.00048828125)">
   <path d="M 0,-2 C -7,14 -16,27 -25,37 L 356,567 C 262,823 215,952 215,954 215,979 228,992 255,992 264,992 276,990 289,987 310,991 331,999 354,1012 L 381,999 492,748 772,1049 836,1024 860,1049 C 881,1039 901,1025 922,1006 886,937 835,863 770,784 769,783 710,716 594,584 L 774,223 C 774,196 753,168 711,139 L 727,119 C 717,90 699,76 672,76 641,76 570,178 457,381 L 164,-76 C 142,-110 111,-127 72,-127 30,-127 9,-110 8,-76 1,-67 -2,-52 -2,-32 -2,-23 -1,-13 0,-2 Z"/>
  </g>
  <g id="bullet-char-template-10004" transform="scale(0.00048828125,-0.00048828125)">
   <path d="M 285,-33 C 182,-33 111,30 74,156 52,228 41,333 41,471 41,549 55,616 82,672 116,743 169,778 240,778 293,778 328,747 346,684 L 369,508 C 377,444 397,411 428,410 L 1163,1116 C 1174,1127 1196,1133 1229,1133 1271,1133 1292,1118 1292,1087 L 1292,965 C 1292,929 1282,901 1262,881 L 442,47 C 390,-6 338,-33 285,-33 Z"/>
  </g>
  <g id="bullet-char-template-9679" transform="scale(0.00048828125,-0.00048828125)">
   <path d="M 813,0 C 632,0 489,54 383,161 276,268 223,411 223,592 223,773 276,916 383,1023 489,1130 632,1184 813,1184 992,1184 1136,1130 1245,1023 1353,916 1407,772 1407,592 1407,412 1353,268 1245,161 1136,54 992,0 813,0 Z"/>
  </g>
  <g id="bullet-char-template-8226" transform="scale(0.00048828125,-0.00048828125)">
   <path d="M 346,457 C 273,457 209,483 155,535 101,586 74,649 74,723 74,796 101,859 155,911 209,963 273,989 346,989 419,989 480,963 531,910 582,859 608,796 608,723 608,648 583,586 532,535 482,483 420,457 346,457 Z"/>
  </g>
  <g id="bullet-char-template-8211" transform="scale(0.00048828125,-0.00048828125)">
   <path d="M -4,459 L 1135,459 1135,606 -4,606 -4,459 Z"/>
  </g>
  <g id="bullet-char-template-61548" transform="scale(0.00048828125,-0.00048828125)">
   <path d="M 173,740 C 173,903 231,1043 346,1159 462,1274 601,1332 765,1332 928,1332 1067,1274 1183,1159 1299,1043 1357,903 1357,740 1357,577 1299,437 1183,322 1067,206 928,148 765,148 601,148 462,206 346,322 231,437 173,577 173,740 Z"/>
  </g>
 </defs>
 <defs class="TextEmbeddedBitmaps"/>
 <g>
  <g id="id2" class="Master_Slide">
   <g id="bg-id2" class="Background"/>
   <g id="bo-id2" class="BackgroundObjects"/>
  </g>
 </g>
 <g class="SlideGroup">
  <g>
   <g id="container-id1">
    <g id="id1" class="Slide" clip-path="url(#presentation_clip_path)">
     <g class="Page">
      <g class="com.sun.star.drawing.ClosedBezierShape">
       <g id="id3">
        <rect class="BoundingBox" stroke="none" fill="none" x="3326" y="887" width="6430" height="11028"/>
        <path fill="rgb(51,51,51)" stroke="none" d="M 8096,8929 C 8592,9043 8949,9186 9235,9384 9522,9582 9652,9776 9652,10005 9652,10234 9522,10428 9235,10626 8949,10824 8592,10967 8096,11081 7600,11195 7113,11248 6540,11248 5967,11248 5480,11195 4984,11081 4488,10967 4131,10824 3845,10626 3558,10428 3428,10234 3428,10005 3428,9776 3558,9582 3845,9384 4131,9186 4488,9043 4984,8929 5016,8922 5049,8914 5081,8907 L 4925,8370 C 4715,8252 4532,8121 4370,7970 4205,7816 4061,7643 3932,7444 3794,7229 3693,7016 3626,6795 3560,6574 3529,6344 3529,6096 3529,5848 3560,5618 3626,5397 3693,5176 3794,4963 3932,4748 4062,4548 4207,4373 4373,4219 L 5930,2524 C 5884,2492 5842,2458 5805,2419 5760,2374 5721,2324 5685,2266 5643,2199 5612,2131 5592,2061 5572,1991 5562,1919 5562,1840 5562,1761 5572,1689 5592,1619 5612,1549 5643,1481 5685,1414 5727,1346 5775,1287 5830,1236 5885,1185 5947,1141 6020,1102 6093,1063 6165,1035 6240,1016 6315,997 6393,989 6477,989 6561,989 6639,997 6714,1016 6789,1035 6861,1063 6934,1102 7007,1141 7069,1185 7124,1236 7179,1287 7227,1346 7269,1414 7311,1481 7342,1549 7362,1619 7382,1689 7392,1761 7392,1840 7392,1919 7382,1991 7362,2061 7342,2131 7311,2199 7269,2266 7220,2345 7164,2411 7097,2468 L 8719,4232 C 8879,4383 9019,4553 9146,4748 9284,4963 9385,5176 9452,5397 9518,5618 9550,5848 9550,6096 9550,6344 9518,6574 9452,6795 9385,7016 9284,7229 9146,7444 9017,7643 8874,7816 8709,7969 8547,8120 8364,8251 8154,8369 L 7998,8907 C 8031,8914 8063,8921 8096,8929 Z M 3846,10739 C 4132,10937 4488,11079 4985,11194 5481,11308 5968,11360 6541,11360 7113,11360 7600,11308 8097,11194 8593,11079 8949,10937 9236,10739 9423,10609 9544,10481 9605,10344 9637,10416 9653,10490 9653,10569 9653,10798 9522,10992 9236,11190 8949,11388 8593,11531 8097,11645 7600,11759 7113,11812 6541,11812 5968,11812 5481,11759 4985,11645 4488,11531 4132,11388 3846,11190 3559,10992 3429,10798 3429,10569 3429,10490 3444,10416 3476,10344 3537,10481 3658,10609 3846,10739 Z"/>
        <path fill="none" stroke="rgb(221,221,221)" stroke-width="203" stroke-linejoin="round" d="M 8096,8929 C 8592,9043 8949,9186 9235,9384 9522,9582 9652,9776 9652,10005 9652,10234 9522,10428 9235,10626 8949,10824 8592,10967 8096,11081 7600,11195 7113,11248 6540,11248 5967,11248 5480,11195 4984,11081 4488,10967 4131,10824 3845,10626 3558,10428 3428,10234 3428,10005 3428,9776 3558,9582 3845,9384 4131,9186 4488,9043 4984,8929 5016,8922 5049,8914 5081,8907 L 4925,8370 C 4715,8252 4532,8121 4370,7970 4205,7816 4061,7643 3932,7444 3794,7229 3693,7016 3626,6795 3560,6574 3529,6344 3529,6096 3529,5848 3560,5618 3626,5397 3693,5176 3794,4963 3932,4748 4062,4548 4207,4373 4373,4219 L 5930,2524 C 5884,2492 5842,2458 5805,2419 5760,2374 5721,2324 5685,2266 5643,2199 5612,2131 5592,2061 5572,1991 5562,1919 5562,1840 5562,1761 5572,1689 5592,1619 5612,1549 5643,1481 5685,1414 5727,1346 5775,1287 5830,1236 5885,1185 5947,1141 6020,1102 6093,1063 6165,1035 6240,1016 6315,997 6393,989 6477,989 6561,989 6639,997 6714,1016 6789,1035 6861,1063 6934,1102 7007,1141 7069,1185 7124,1236 7179,1287 7227,1346 7269,1414 7311,1481 7342,1549 7362,1619 7382,1689 7392,1761 7392,1840 7392,1919 7382,1991 7362,2061 7342,2131 7311,2199 7269,2266 7220,2345 7164,2411 7097,2468 L 8719,4232 C 8879,4383 9019,4553 9146,4748 9284,4963 9385,5176 9452,5397 9518,5618 9550,5848 9550,6096 9550,6344 9518,6574 9452,6795 9385,7016 9284,7229 9146,7444 9017,7643 8874,7816 8709,7969 8547,8120 8364,8251 8154,8369 L 7998,8907 C 8031,8914 8063,8921 8096,8929 Z"/>
        <path fill="none" stroke="rgb(221,221,221)" stroke-width="203" stroke-linejoin="round" d="M 3846,10739 C 4132,10937 4488,11079 4985,11194 5481,11308 5968,11360 6541,11360 7113,11360 7600,11308 8097,11194 8593,11079 8949,10937 9236,10739 9423,10609 9544,10481 9605,10344 9637,10416 9653,10490 9653,10569 9653,10798 9522,10992 9236,11190 8949,11388 8593,11531 8097,11645 7600,11759 7113,11812 6541,11812 5968,11812 5481,11759 4985,11645 4488,11531 4132,11388 3846,11190 3559,10992 3429,10798 3429,10569 3429,10490 3444,10416 3476,10344 3537,10481 3658,10609 3846,10739 Z"/>
       </g>
      </g>
      <g class="com.sun.star.drawing.ClosedBezierShape">
       <g id="id4">
        <rect class="BoundingBox" stroke="none" fill="none" x="6350" y="1144" width="771" height="1046"/>
        <path fill="rgb(204,204,204)" stroke="none" d="M 6870,1975 C 6868,1837 6838,1718 6775,1595 6712,1472 6635,1381 6528,1306 6469,1265 6411,1235 6350,1216 6433,1168 6514,1145 6607,1144 6705,1143 6788,1166 6871,1217 6954,1268 7012,1333 7058,1422 7104,1512 7123,1600 7120,1704 7116,1808 7090,1896 7038,1987 6988,2073 6929,2137 6848,2188 6864,2121 6872,2052 6870,1975 Z"/>
       </g>
      </g>
      <g class="com.sun.star.drawing.ClosedBezierShape">
       <g id="id5">
        <rect class="BoundingBox" stroke="none" fill="none" x="5207" y="9526" width="2669" height="510"/>
        <path fill="rgb(153,153,153)" stroke="none" d="M 7208,9861 C 6995,9903 6786,9922 6541,9922 6295,9922 6087,9903 5874,9861 5661,9819 5509,9768 5386,9696 5292,9641 5237,9586 5217,9526 5210,9545 5207,9563 5207,9583 5207,9666 5263,9737 5386,9809 5509,9881 5661,9932 5874,9974 6087,10015 6295,10034 6541,10034 6786,10034 6995,10015 7208,9974 7420,9932 7573,9881 7696,9809 7818,9737 7874,9666 7874,9583 7874,9563 7871,9545 7865,9526 7845,9586 7790,9641 7696,9696 7573,9768 7420,9819 7208,9861 Z"/>
       </g>
      </g>
      <g class="com.sun.star.drawing.CustomShape">
       <g id="id6">
        <rect class="BoundingBox" stroke="none" fill="none" x="7354" y="8379" width="407" height="1025"/>
        <path fill="rgb(153,153,153)" stroke="none" d="M 7472,8380 L 7759,8386 7641,9402 7355,9396 7472,8380 Z"/>
       </g>
      </g>
      <g class="com.sun.star.drawing.ClosedBezierShape">
       <g id="id7">
        <rect class="BoundingBox" stroke="none" fill="none" x="7111" y="3049" width="1820" height="4460"/>
        <path fill="rgb(153,153,153)" stroke="none" d="M 8381,6351 C 8390,6922 8080,7396 8000,7494 8245,7633 9060,6689 8911,5758 8762,4827 8105,4009 7841,3701 7588,3407 7359,3202 7112,3049 7265,3285 8390,5017 8381,6351 Z"/>
       </g>
      </g>
      <g class="com.sun.star.drawing.ClosedBezierShape">
       <g id="id8">
        <rect class="BoundingBox" stroke="none" fill="none" x="4698" y="3302" width="2796" height="3304"/>
        <path fill="rgb(153,153,153)" stroke="none" d="M 6422,4094 C 6186,3920 5954,3841 5682,3841 5409,3841 5177,3920 4941,4094 4851,4160 4771,4232 4698,4313 4708,4290 4717,4268 4727,4246 4864,3945 5034,3729 5270,3555 5506,3381 5738,3302 6011,3302 6283,3302 6515,3381 6752,3555 6988,3729 7158,3945 7294,4246 7430,4546 7493,4842 7493,5189 7493,5537 7430,5832 7294,6133 7209,6319 7112,6473 6994,6604 7110,6326 7163,6050 7163,5728 7163,5381 7101,5085 6965,4785 6828,4484 6659,4267 6422,4094 Z"/>
       </g>
      </g>
     </g>
    </g>
   </g>
  </g>
 </g>
</svg>