<?xml version="1.0" encoding="UTF-8"?>
<!DOCTYPE svg PUBLIC "-//W3C//DTD SVG 1.1//EN" "http://www.w3.org/Graphics/SVG/1.1/DTD/svg11.dtd">
<svg version="1.2" width="129.54mm" height="129.54mm" viewBox="0 0 12954 12954" preserveAspectRatio="xMidYMid" fill-rule="evenodd" stroke-width="28.222" stroke-linejoin="round" xmlns="http://www.w3.org/2000/svg" xmlns:ooo="http://xml.openoffice.org/svg/export" xmlns:xlink="http://www.w3.org/1999/xlink" xmlns:presentation="http://sun.com/xmlns/staroffice/presentation" xmlns:smil="http://www.w3.org/2001/SMIL20/" xmlns:anim="urn:oasis:names:tc:opendocument:xmlns:animation:1.0" xml:space="preserve">
 <defs class="ClipPathGroup">
  <clipPath id="presentation_clip_path" clipPathUnits="userSpaceOnUse">
   <rect x="0" y="0" width="12954" height="12954"/>
  </clipPath>
  <clipPath id="presentation_clip_path_shrink" clipPathUnits="userSpaceOnUse">
   <rect x="12" y="12" width="12929" height="12929"/>
  </clipPath>
 </defs>
 <defs class="TextShapeIndex">
  <g ooo:slide="id1" ooo:id-list="id3 id4 id5 id6 id7"/>
 </defs>
 <defs class="EmbeddedBulletChars">
  <g id="bullet-char-template-57356" transform="scale(0.00048828125,-0.00048828125)">
   <path d="M 580,1141 L 1163,571 580,0 -4,571 580,1141 Z"/>
  </g>
  <g id="bullet-char-template-57354" transform="scale(0.00048828125,-0.00048828125)">
   <path d="M 8,1128 L 1137,1128 1137,0 8,0 8,1128 Z"/>
  </g>
  <g id="bullet-char-template-10146" transform="scale(0.00048828125,-0.00048828125)">
   <path d="M 174,0 L 602,739 174,1481 1456,739 174,0 Z M 1358,739 L 309,1346 659,739 1358,739 Z"/>
  </g>
  <g id="bullet-char-template-10132" transform="scale(0.00048828125,-0.00048828125)">
   <path d="M 2015,739 L 1276,0 717,0 1260,543 174,543 174,936 1260,936 717,1481 1274,1481 2015,739 Z"/>
  </g>
  <g id="bullet-char-template-10007" transform="scale(0.00048828125,-0.00048828125)">
   <path d="M 0,-2 C -7,14 -16,27 -25,37 L 356,567 C 262,823 215,952 215,954 215,979 228,992 255,992 264,992 276,990 289,987 310,991 331,999 354,1012 L 381,999 492,748 772,1049 836,1024 860,1049 C 881,1039 901,1025 922,1006 886,937 835,863 770,784 769,783 710,716 594,584 L 774,223 C 774,196 753,168 711,139 L 727,119 C 717,90 699,76 672,76 641,76 570,178 457,381 L 164,-76 C 142,-110 111,-127 72,-127 30,-127 9,-110 8,-76 1,-67 -2,-52 -2,-32 -2,-23 -1,-13 0,-2 Z"/>
  </g>
  <g id="bullet-char-template-10004" transform="scale(0.00048828125,-0.00048828125)">
   <path d="M 285,-33 C 182,-33 111,30 74,156 52,228 41,333 41,471 41,549 55,616 82,672 116,743 169,778 240,778 293,778 328,747 346,684 L 369,508 C 377,444 397,411 428,410 L 1163,1116 C 1174,1127 1196,1133 1229,1133 1271,1133 1292,1118 1292,1087 L 1292,965 C 1292,929 1282,901 1262,881 L 442,47 C 390,-6 338,-33 285,-33 Z"/>
  </g>
  <g id="bullet-char-template-9679" transform="scale(0.00048828125,-0.00048828125)">
   <path d="M 813,0 C 632,0 489,54 383,161 276,268 223,411 223,592 223,773 276,916 383,1023 489,1130 632,1184 813,1184 992,1184 1136,1130 1245,1023 1353,916 1407,772 1407,592 1407,412 1353,268 1245,161 1136,54 992,0 813,0 Z"/>
  </g>
  <g id="bullet-char-template-8226" transform="scale(0.00048828125,-0.00048828125)">
   <path d="M 346,457 C 273,457 209,483 155,535 101,586 74,649 74,723 74,796 101,859 155,911 209,963 273,989 346,989 419,989 480,963 531,910 582,859 608,796 608,723 608,648 583,586 532,535 482,483 420,457 346,457 Z"/>
  </g>
  <g id="bullet-char-template-8211" transform="scale(0.00048828125,-0.00048828125)">
   <path d="M -4,459 L 1135,459 1135,606 -4,606 -4,459 Z"/>
  </g>
  <g id="bullet-char-template-61548" transform="scale(0.00048828125,-0.00048828125)">
   <path d="M 173,740 C 173,903 231,1043 346,1159 462,1274 601,1332 765,1332 928,1332 1067,1274 1183,1159 1299,1043 1357,903 1357,740 1357,577 1299,437 1183,322 1067,206 928,148 765,148 601,148 462,206 346,322 231,437 173,577 173,740 Z"/>
  </g>
 </defs>
 <defs class="TextEmbeddedBitmaps"/>
 <g>
  <g id="id2" class="Master_Slide">
   <g id="bg-id2" class="Background"/>
   <g id="bo-id2" class="BackgroundObjects"/>
  </g>
 </g>
 <g class="SlideGroup">
  <g>
   <g id="container-id1">
    <g id="id1" class="Slide" clip-path="url(#presentation_clip_path)">
     <g class="Page">
      <g class="com.sun.star.drawing.ClosedBezierShape">
       <g id="id3">
        <rect class="BoundingBox" stroke="none" fill="none" x="3274" y="2003" width="6532" height="9962"/>
        <path fill="rgb(238,238,238)" stroke="none" d="M 8903,6506 C 9154,6881 9269,7248 9269,7681 9269,8114 9154,8481 8903,8856 8842,8947 8778,9031 8709,9110 8910,9188 9082,9278 9234,9383 9521,9581 9651,9775 9651,10004 9651,10233 9521,10427 9234,10625 8948,10823 8591,10966 8095,11080 7599,11194 7112,11247 6539,11247 5966,11247 5479,11194 4983,11080 4487,10966 4130,10823 3844,10625 3557,10427 3427,10233 3427,10004 3427,9775 3557,9581 3844,9383 3996,9278 4167,9189 4368,9111 4299,9032 4234,8947 4173,8856 3922,8481 3807,8114 3807,7681 3807,7248 3922,6881 4173,6506 4395,6174 4666,5925 5028,5722 4867,5688 4733,5648 4615,5601 4411,5518 4318,5437 4318,5342 4317,5247 4411,5166 4615,5083 4794,5011 5012,4957 5300,4912 5258,4855 5218,4794 5180,4729 5022,4455 4950,4187 4950,3871 4950,3555 5022,3287 5180,3014 5338,2740 5534,2544 5807,2386 6081,2228 6349,2156 6665,2156 6981,2156 7249,2228 7523,2386 7796,2544 7992,2740 8150,3013 8308,3287 8380,3555 8380,3871 8380,4187 8308,4455 8150,4729 8104,4809 8054,4883 8000,4951 8184,4988 8334,5031 8465,5083 8669,5166 8763,5247 8763,5342 8763,5437 8669,5518 8465,5601 8346,5649 8211,5689 8049,5723 8410,5926 8681,6175 8903,6506 Z M 3845,10738 C 4131,10936 4487,11078 4984,11193 5480,11307 5967,11359 6540,11359 7112,11359 7599,11307 8096,11193 8592,11078 8948,10936 9235,10738 9422,10608 9543,10480 9604,10343 9636,10415 9652,10489 9652,10568 9652,10797 9521,10991 9235,11189 8948,11387 8592,11530 8096,11644 7599,11758 7112,11811 6540,11811 5967,11811 5480,11758 4984,11644 4487,11530 4131,11387 3845,11189 3558,10991 3428,10797 3428,10568 3428,10489 3443,10415 3475,10343 3536,10480 3657,10608 3845,10738 Z"/>
        <path fill="none" stroke="rgb(51,51,51)" stroke-width="305" stroke-linejoin="round" d="M 8903,6506 C 9154,6881 9269,7248 9269,7681 9269,8114 9154,8481 8903,8856 8842,8947 8778,9031 8709,9110 8910,9188 9082,9278 9234,9383 9521,9581 9651,9775 9651,10004 9651,10233 9521,10427 9234,10625 8948,10823 8591,10966 8095,11080 7599,11194 7112,11247 6539,11247 5966,11247 5479,11194 4983,11080 4487,10966 4130,10823 3844,10625 3557,10427 3427,10233 3427,10004 3427,9775 3557,9581 3844,9383 3996,9278 4167,9189 4368,9111 4299,9032 4234,8947 4173,8856 3922,8481 3807,8114 3807,7681 3807,7248 3922,6881 4173,6506 4395,6174 4666,5925 5028,5722 4867,5688 4733,5648 4615,5601 4411,5518 4318,5437 4318,5342 4317,5247 4411,5166 4615,5083 4794,5011 5012,4957 5300,4912 5258,4855 5218,4794 5180,4729 5022,4455 4950,4187 4950,3871 4950,3555 5022,3287 5180,3014 5338,2740 5534,2544 5807,2386 6081,2228 6349,2156 6665,2156 6981,2156 7249,2228 7523,2386 7796,2544 7992,2740 8150,3013 8308,3287 8380,3555 8380,3871 8380,4187 8308,4455 8150,4729 8104,4809 8054,4883 8000,4951 8184,4988 8334,5031 8465,5083 8669,5166 8763,5247 8763,5342 8763,5437 8669,5518 8465,5601 8346,5649 8211,5689 8049,5723 8410,5926 8681,6175 8903,6506 Z"/>
        <path fill="none" stroke="rgb(51,51,51)" stroke-width="305" stroke-linejoin="round" d="M 3845,10738 C 4131,10936 4487,11078 4984,11193 5480,11307 5967,11359 6540,11359 7112,11359 7599,11307 8096,11193 8592,11078 8948,10936 9235,10738 9422,10608 9543,10480 9604,10343 9636,10415 9652,10489 9652,10568 9652,10797 9521,10991 9235,11189 8948,11387 8592,11530 8096,11644 7599,11758 7112,11811 6540,11811 5967,11811 5480,11758 4984,11644 4487,11530 4131,11387 3845,11189 3558,10991 3428,10797 3428,10568 3428,10489 3443,10415 3475,10343 3536,10480 3657,10608 3845,10738 Z"/>
       </g>
      </g>
      <g class="com.sun.star.drawing.ClosedBezierShape">
       <g id="id4">
        <rect class="BoundingBox" stroke="none" fill="none" x="6312" y="2577" width="1652" height="2289"/>
        <path fill="rgb(153,153,153)" stroke="none" d="M 7356,4472 C 7371,4204 7323,3950 7202,3662 7080,3374 6921,3138 6695,2907 6570,2780 6445,2675 6312,2588 6504,2563 6688,2585 6897,2658 7116,2736 7296,2846 7474,3012 7651,3177 7773,3348 7861,3558 7950,3767 7979,3953 7955,4150 7930,4348 7860,4498 7729,4630 7605,4757 7461,4830 7273,4865 7320,4749 7347,4621 7356,4472 Z"/>
       </g>
      </g>
      <g class="com.sun.star.drawing.ClosedBezierShape">
       <g id="id5">
        <rect class="BoundingBox" stroke="none" fill="none" x="5587" y="6222" width="3050" height="3127"/>
        <path fill="rgb(153,153,153)" stroke="none" d="M 7620,7984 C 7227,8711 5878,8862 5635,8902 5205,9521 7831,9592 8471,8488 9112,7384 7695,6392 7345,6223 7438,6420 8013,7257 7620,7984 Z"/>
       </g>
      </g>
      <g class="com.sun.star.drawing.ClosedBezierShape">
       <g id="id6">
        <rect class="BoundingBox" stroke="none" fill="none" x="5054" y="9654" width="3076" height="662"/>
        <path fill="rgb(153,153,153)" stroke="none" d="M 7322,10065 C 7089,10107 6860,10126 6591,10126 6322,10126 6094,10107 5861,10065 5628,10023 5461,9972 5326,9900 5223,9845 5163,9790 5141,9730 5134,9749 5130,9767 5130,9787 5130,9870 5192,9941 5326,10013 5461,10085 5628,10136 5861,10178 6094,10219 6322,10238 6591,10238 6860,10238 7089,10219 7322,10178 7555,10136 7722,10085 7857,10013 7991,9941 8052,9870 8052,9787 8052,9767 8049,9749 8042,9730 8020,9790 7960,9845 7857,9900 7722,9972 7555,10023 7322,10065 Z"/>
        <path fill="none" stroke="rgb(153,153,153)" stroke-width="152" stroke-linejoin="round" d="M 7322,10065 C 7089,10107 6860,10126 6591,10126 6322,10126 6094,10107 5861,10065 5628,10023 5461,9972 5326,9900 5223,9845 5163,9790 5141,9730 5134,9749 5130,9767 5130,9787 5130,9870 5192,9941 5326,10013 5461,10085 5628,10136 5861,10178 6094,10219 6322,10238 6591,10238 6860,10238 7089,10219 7322,10178 7555,10136 7722,10085 7857,10013 7991,9941 8052,9870 8052,9787 8052,9767 8049,9749 8042,9730 8020,9790 7960,9845 7857,9900 7722,9972 7555,10023 7322,10065 Z"/>
       </g>
      </g>
      <g class="com.sun.star.drawing.ClosedBezierShape">
       <g id="id7">
        <rect class="BoundingBox" stroke="none" fill="none" x="5587" y="4952" width="2161" height="510"/>
        <path fill="rgb(153,153,153)" stroke="none" d="M 7204,5326 C 7032,5356 6863,5365 6664,5356 6465,5347 6297,5323 6125,5278 5953,5232 5830,5180 5731,5111 5656,5058 5612,5007 5596,4953 5591,4969 5588,4986 5588,5003 5587,5078 5632,5143 5730,5213 5829,5282 5952,5334 6124,5379 6295,5424 6464,5449 6663,5458 6862,5466 7031,5457 7203,5427 7376,5398 7500,5357 7600,5297 7700,5236 7746,5175 7747,5100 7747,5083 7745,5066 7740,5049 7723,5102 7678,5149 7601,5195 7501,5256 7377,5296 7204,5326 Z"/>
       </g>
      </g>
     </g>
    </g>
   </g>
  </g>
 </g>
</svg>