<?xml version="1.0" encoding="UTF-8"?>
<!DOCTYPE svg PUBLIC "-//W3C//DTD SVG 1.1//EN" "http://www.w3.org/Graphics/SVG/1.1/DTD/svg11.dtd">
<svg version="1.2" width="129.54mm" height="129.54mm" viewBox="0 0 12954 12954" preserveAspectRatio="xMidYMid" fill-rule="evenodd" stroke-width="28.222" stroke-linejoin="round" xmlns="http://www.w3.org/2000/svg" xmlns:ooo="http://xml.openoffice.org/svg/export" xmlns:xlink="http://www.w3.org/1999/xlink" xmlns:presentation="http://sun.com/xmlns/staroffice/presentation" xmlns:smil="http://www.w3.org/2001/SMIL20/" xmlns:anim="urn:oasis:names:tc:opendocument:xmlns:animation:1.0" xml:space="preserve">
 <defs class="ClipPathGroup">
  <clipPath id="presentation_clip_path" clipPathUnits="userSpaceOnUse">
   <rect x="0" y="0" width="12954" height="12954"/>
  </clipPath>
  <clipPath id="presentation_clip_path_shrink" clipPathUnits="userSpaceOnUse">
   <rect x="12" y="12" width="12929" height="12929"/>
  </clipPath>
 </defs>
 <defs class="TextShapeIndex">
  <g ooo:slide="id1" ooo:id-list="id3 id4 id5 id6 id7 id8 id9 id10"/>
 </defs>
 <defs class="EmbeddedBulletChars">
  <g id="bullet-char-template-57356" transform="scale(0.00048828125,-0.00048828125)">
   <path d="M 580,1141 L 1163,571 580,0 -4,571 580,1141 Z"/>
  </g>
  <g id="bullet-char-template-57354" transform="scale(0.00048828125,-0.00048828125)">
   <path d="M 8,1128 L 1137,1128 1137,0 8,0 8,1128 Z"/>
  </g>
  <g id="bullet-char-template-10146" transform="scale(0.00048828125,-0.00048828125)">
   <path d="M 174,0 L 602,739 174,1481 1456,739 174,0 Z M 1358,739 L 309,1346 659,739 1358,739 Z"/>
  </g>
  <g id="bullet-char-template-10132" transform="scale(0.00048828125,-0.00048828125)">
   <path d="M 2015,739 L 1276,0 717,0 1260,543 174,543 174,936 1260,936 717,1481 1274,1481 2015,739 Z"/>
  </g>
  <g id="bullet-char-template-10007" transform="scale(0.00048828125,-0.00048828125)">
   <path d="M 0,-2 C -7,14 -16,27 -25,37 L 356,567 C 262,823 215,952 215,954 215,979 228,992 255,992 264,992 276,990 289,987 310,991 331,999 354,1012 L 381,999 492,748 772,1049 836,1024 860,1049 C 881,1039 901,1025 922,1006 886,937 835,863 770,784 769,783 710,716 594,584 L 774,223 C 774,196 753,168 711,139 L 727,119 C 717,90 699,76 672,76 641,76 570,178 457,381 L 164,-76 C 142,-110 111,-127 72,-127 30,-127 9,-110 8,-76 1,-67 -2,-52 -2,-32 -2,-23 -1,-13 0,-2 Z"/>
  </g>
  <g id="bullet-char-template-10004" transform="scale(0.00048828125,-0.00048828125)">
   <path d="M 285,-33 C 182,-33 111,30 74,156 52,228 41,333 41,471 41,549 55,616 82,672 116,743 169,778 240,778 293,778 328,747 346,684 L 369,508 C 377,444 397,411 428,410 L 1163,1116 C 1174,1127 1196,1133 1229,1133 1271,1133 1292,1118 1292,1087 L 1292,965 C 1292,929 1282,901 1262,881 L 442,47 C 390,-6 338,-33 285,-33 Z"/>
  </g>
  <g id="bullet-char-template-9679" transform="scale(0.00048828125,-0.00048828125)">
   <path d="M 813,0 C 632,0 489,54 383,161 276,268 223,411 223,592 223,773 276,916 383,1023 489,1130 632,1184 813,1184 992,1184 1136,1130 1245,1023 1353,916 1407,772 1407,592 1407,412 1353,268 1245,161 1136,54 992,0 813,0 Z"/>
  </g>
  <g id="bullet-char-template-8226" transform="scale(0.00048828125,-0.00048828125)">
   <path d="M 346,457 C 273,457 209,483 155,535 101,586 74,649 74,723 74,796 101,859 155,911 209,963 273,989 346,989 419,989 480,963 531,910 582,859 608,796 608,723 608,648 583,586 532,535 482,483 420,457 346,457 Z"/>
  </g>
  <g id="bullet-char-template-8211" transform="scale(0.00048828125,-0.00048828125)">
   <path d="M -4,459 L 1135,459 1135,606 -4,606 -4,459 Z"/>
  </g>
  <g id="bullet-char-template-61548" transform="scale(0.00048828125,-0.00048828125)">
   <path d="M 173,740 C 173,903 231,1043 346,1159 462,1274 601,1332 765,1332 928,1332 1067,1274 1183,1159 1299,1043 1357,903 1357,740 1357,577 1299,437 1183,322 1067,206 928,148 765,148 601,148 462,206 346,322 231,437 173,577 173,740 Z"/>
  </g>
 </defs>
 <defs class="TextEmbeddedBitmaps"/>
 <g>
  <g id="id2" class="Master_Slide">
   <g id="bg-id2" class="Background"/>
   <g id="bo-id2" class="BackgroundObjects"/>
  </g>
 </g>
 <g class="SlideGroup">
  <g>
   <g id="container-id1">
    <g id="id1" class="Slide" clip-path="url(#presentation_clip_path)">
     <g class="Page">
      <g class="com.sun.star.drawing.ClosedBezierShape">
       <g id="id3">
        <rect class="BoundingBox" stroke="none" fill="none" x="2204" y="1244" width="8237" height="10722"/>
        <path fill="rgb(238,238,238)" stroke="none" d="M 6455,1397 C 11840,3112 10224,7070 9264,8810 9464,8889 9638,8979 9794,9081 10133,9304 10288,9523 10288,9780 10288,10037 10133,10256 9794,10479 9455,10702 9033,10862 8446,10990 7858,11119 7282,11178 6604,11178 5926,11178 5350,11119 4762,10990 4175,10862 3753,10702 3414,10479 3075,10256 2921,10037 2921,9780 2920,9523 3075,9304 3414,9081 3683,8905 4004,8767 4418,8654 4523,8364 4667,8096 4865,7817 5122,7456 5392,7187 5730,6957 5925,6824 6108,6727 6291,6661 L 6315,5884 C 6191,5929 6108,6001 6088,6095 6002,6504 5245,6711 4381,6566 L 3748,7105 C 3623,7212 3390,7193 3283,7068 L 2427,6064 C 2320,5938 2339,5706 2464,5599 L 3413,4790 C 3853,2868 5082,2223 6426,2320 L 6455,1397 Z M 3413,10606 C 3752,10829 4174,10989 4761,11117 5349,11246 5925,11305 6603,11305 7281,11305 7857,11246 8445,11117 9032,10989 9454,10829 9793,10606 10015,10460 10158,10315 10230,10161 10268,10242 10287,10326 10287,10415 10287,10672 10132,10891 9793,11114 9454,11337 9032,11497 8445,11625 7857,11754 7281,11813 6603,11813 5925,11813 5349,11754 4761,11625 4174,11497 3752,11337 3413,11114 3074,10891 2920,10672 2920,10415 2919,10326 2938,10242 2976,10161 3048,10315 3191,10460 3413,10606 Z"/>
        <path fill="none" stroke="rgb(0,0,0)" stroke-width="305" stroke-linejoin="round" d="M 6455,1397 C 11840,3112 10224,7070 9264,8810 9464,8889 9638,8979 9794,9081 10133,9304 10288,9523 10288,9780 10288,10037 10133,10256 9794,10479 9455,10702 9033,10862 8446,10990 7858,11119 7282,11178 6604,11178 5926,11178 5350,11119 4762,10990 4175,10862 3753,10702 3414,10479 3075,10256 2921,10037 2921,9780 2920,9523 3075,9304 3414,9081 3683,8905 4004,8767 4418,8654 4523,8364 4667,8096 4865,7817 5122,7456 5392,7187 5730,6957 5925,6824 6108,6727 6291,6661 L 6315,5884 C 6191,5929 6108,6001 6088,6095 6002,6504 5245,6711 4381,6566 L 3748,7105 C 3623,7212 3390,7193 3283,7068 L 2427,6064 C 2320,5938 2339,5706 2464,5599 L 3413,4790 C 3853,2868 5082,2223 6426,2320 L 6455,1397 Z"/>
        <path fill="none" stroke="rgb(0,0,0)" stroke-width="305" stroke-linejoin="round" d="M 3413,10606 C 3752,10829 4174,10989 4761,11117 5349,11246 5925,11305 6603,11305 7281,11305 7857,11246 8445,11117 9032,10989 9454,10829 9793,10606 10015,10460 10158,10315 10230,10161 10268,10242 10287,10326 10287,10415 10287,10672 10132,10891 9793,11114 9454,11337 9032,11497 8445,11625 7857,11754 7281,11813 6603,11813 5925,11813 5349,11754 4761,11625 4174,11497 3752,11337 3413,11114 3074,10891 2920,10672 2920,10415 2919,10326 2938,10242 2976,10161 3048,10315 3191,10460 3413,10606 Z"/>
       </g>
      </g>
      <g class="Group">
       <g class="com.sun.star.drawing.EllipseShape">
        <g id="id4">
         <rect class="BoundingBox" stroke="none" fill="none" x="4584" y="3674" width="219" height="242"/>
        </g>
       </g>
       <g class="com.sun.star.drawing.CustomShape">
        <g id="id5">
         <rect class="BoundingBox" stroke="none" fill="none" x="4838" y="3330" width="866" height="784"/>
         <path fill="rgb(51,51,51)" stroke="none" d="M 5082,3488 C 5154,3431 5223,3392 5302,3363 5381,3335 5447,3326 5513,3334 5579,3342 5624,3366 5659,3409 5693,3452 5707,3501 5701,3567 5695,3633 5672,3696 5627,3767 5583,3839 5530,3897 5458,3955 5386,4013 5318,4052 5239,4080 5159,4109 5093,4118 5028,4109 4962,4101 4916,4078 4882,4035 4847,3992 4834,3942 4840,3876 4846,3810 4869,3747 4913,3676 4958,3605 5011,3546 5082,3488 L 5082,3488 Z"/>
        </g>
       </g>
       <g class="com.sun.star.drawing.CustomShape">
        <g id="id6">
         <rect class="BoundingBox" stroke="none" fill="none" x="4571" y="3421" width="923" height="798"/>
         <path fill="rgb(51,51,51)" stroke="none" d="M 5493,3662 L 4571,4218 5173,3422 5493,3662 5493,3662 Z"/>
        </g>
       </g>
      </g>
      <g class="com.sun.star.drawing.ClosedBezierShape">
       <g id="id7">
        <rect class="BoundingBox" stroke="none" fill="none" x="6477" y="2668" width="3303" height="3558"/>
        <path fill="rgb(153,153,153)" stroke="none" d="M 7199,3174 C 7653,3523 8021,3886 8373,4333 8726,4780 8959,5176 9116,5601 9202,5836 9252,6040 9265,6224 9493,6159 9636,6034 9718,5827 9804,5610 9799,5369 9700,5057 9602,4744 9440,4454 9184,4129 8927,3804 8652,3542 8306,3291 7960,3041 7646,2878 7303,2770 6976,2666 6716,2643 6477,2695 6712,2824 6948,2981 7199,3174 Z"/>
       </g>
      </g>
      <g class="com.sun.star.drawing.ClosedBezierShape">
       <g id="id8">
        <rect class="BoundingBox" stroke="none" fill="none" x="4623" y="9576" width="3964" height="789"/>
        <path fill="rgb(51,51,51)" stroke="none" d="M 7557,10071 C 7253,10123 6955,10146 6604,10146 6254,10146 5956,10123 5652,10071 5348,10019 5130,9954 4955,9864 4820,9795 4742,9727 4713,9652 4704,9675 4699,9699 4699,9723 4699,9827 4779,9915 4955,10005 5130,10095 5348,10160 5652,10212 5956,10264 6254,10287 6604,10287 6955,10287 7253,10264 7557,10212 7861,10160 8079,10095 8254,10005 8430,9915 8509,9827 8509,9723 8509,9699 8505,9675 8496,9652 8467,9727 8389,9795 8254,9864 8079,9954 7861,10019 7557,10071 Z"/>
        <path fill="none" stroke="rgb(153,153,153)" stroke-width="152" stroke-linejoin="round" d="M 7557,10071 C 7253,10123 6955,10146 6604,10146 6254,10146 5956,10123 5652,10071 5348,10019 5130,9954 4955,9864 4820,9795 4742,9727 4713,9652 4704,9675 4699,9699 4699,9723 4699,9827 4779,9915 4955,10005 5130,10095 5348,10160 5652,10212 5956,10264 6254,10287 6604,10287 6955,10287 7253,10264 7557,10212 7861,10160 8079,10095 8254,10005 8430,9915 8509,9827 8509,9723 8509,9699 8505,9675 8496,9652 8467,9727 8389,9795 8254,9864 8079,9954 7861,10019 7557,10071 Z"/>
       </g>
      </g>
      <g class="Group">
       <g class="com.sun.star.drawing.EllipseShape">
        <g id="id9">
         <rect class="BoundingBox" stroke="none" fill="none" x="2420" y="1650" width="219" height="242"/>
        </g>
       </g>
       <g class="com.sun.star.drawing.CustomShape">
        <g id="id10">
         <rect class="BoundingBox" stroke="none" fill="none" x="2998" y="6290" width="941" height="579"/>
         <path fill="rgb(51,51,51)" stroke="none" d="M 2998,6563 L 3938,6291 3258,6868 2998,6563 2998,6563 Z"/>
        </g>
       </g>
      </g>
     </g>
    </g>
   </g>
  </g>
 </g>
</svg>