<?xml version="1.0" encoding="UTF-8"?>
<!DOCTYPE svg PUBLIC "-//W3C//DTD SVG 1.1//EN" "http://www.w3.org/Graphics/SVG/1.1/DTD/svg11.dtd">
<svg version="1.2" width="129.54mm" height="129.54mm" viewBox="0 0 12954 12954" preserveAspectRatio="xMidYMid" fill-rule="evenodd" stroke-width="28.222" stroke-linejoin="round" xmlns="http://www.w3.org/2000/svg" xmlns:ooo="http://xml.openoffice.org/svg/export" xmlns:xlink="http://www.w3.org/1999/xlink" xmlns:presentation="http://sun.com/xmlns/staroffice/presentation" xmlns:smil="http://www.w3.org/2001/SMIL20/" xmlns:anim="urn:oasis:names:tc:opendocument:xmlns:animation:1.0" xml:space="preserve">
 <defs class="ClipPathGroup">
  <clipPath id="presentation_clip_path" clipPathUnits="userSpaceOnUse">
   <rect x="0" y="0" width="12954" height="12954"/>
  </clipPath>
  <clipPath id="presentation_clip_path_shrink" clipPathUnits="userSpaceOnUse">
   <rect x="12" y="12" width="12929" height="12929"/>
  </clipPath>
 </defs>
 <defs class="TextShapeIndex">
  <g ooo:slide="id1" ooo:id-list="id3 id4 id5 id6 id7 id8 id9"/>
 </defs>
 <defs class="EmbeddedBulletChars">
  <g id="bullet-char-template-57356" transform="scale(0.00048828125,-0.00048828125)">
   <path d="M 580,1141 L 1163,571 580,0 -4,571 580,1141 Z"/>
  </g>
  <g id="bullet-char-template-57354" transform="scale(0.00048828125,-0.00048828125)">
   <path d="M 8,1128 L 1137,1128 1137,0 8,0 8,1128 Z"/>
  </g>
  <g id="bullet-char-template-10146" transform="scale(0.00048828125,-0.00048828125)">
   <path d="M 174,0 L 602,739 174,1481 1456,739 174,0 Z M 1358,739 L 309,1346 659,739 1358,739 Z"/>
  </g>
  <g id="bullet-char-template-10132" transform="scale(0.00048828125,-0.00048828125)">
   <path d="M 2015,739 L 1276,0 717,0 1260,543 174,543 174,936 1260,936 717,1481 1274,1481 2015,739 Z"/>
  </g>
  <g id="bullet-char-template-10007" transform="scale(0.00048828125,-0.00048828125)">
   <path d="M 0,-2 C -7,14 -16,27 -25,37 L 356,567 C 262,823 215,952 215,954 215,979 228,992 255,992 264,992 276,990 289,987 310,991 331,999 354,1012 L 381,999 492,748 772,1049 836,1024 860,1049 C 881,1039 901,1025 922,1006 886,937 835,863 770,784 769,783 710,716 594,584 L 774,223 C 774,196 753,168 711,139 L 727,119 C 717,90 699,76 672,76 641,76 570,178 457,381 L 164,-76 C 142,-110 111,-127 72,-127 30,-127 9,-110 8,-76 1,-67 -2,-52 -2,-32 -2,-23 -1,-13 0,-2 Z"/>
  </g>
  <g id="bullet-char-template-10004" transform="scale(0.00048828125,-0.00048828125)">
   <path d="M 285,-33 C 182,-33 111,30 74,156 52,228 41,333 41,471 41,549 55,616 82,672 116,743 169,778 240,778 293,778 328,747 346,684 L 369,508 C 377,444 397,411 428,410 L 1163,1116 C 1174,1127 1196,1133 1229,1133 1271,1133 1292,1118 1292,1087 L 1292,965 C 1292,929 1282,901 1262,881 L 442,47 C 390,-6 338,-33 285,-33 Z"/>
  </g>
  <g id="bullet-char-template-9679" transform="scale(0.00048828125,-0.00048828125)">
   <path d="M 813,0 C 632,0 489,54 383,161 276,268 223,411 223,592 223,773 276,916 383,1023 489,1130 632,1184 813,1184 992,1184 1136,1130 1245,1023 1353,916 1407,772 1407,592 1407,412 1353,268 1245,161 1136,54 992,0 813,0 Z"/>
  </g>
  <g id="bullet-char-template-8226" transform="scale(0.00048828125,-0.00048828125)">
   <path d="M 346,457 C 273,457 209,483 155,535 101,586 74,649 74,723 74,796 101,859 155,911 209,963 273,989 346,989 419,989 480,963 531,910 582,859 608,796 608,723 608,648 583,586 532,535 482,483 420,457 346,457 Z"/>
  </g>
  <g id="bullet-char-template-8211" transform="scale(0.00048828125,-0.00048828125)">
   <path d="M -4,459 L 1135,459 1135,606 -4,606 -4,459 Z"/>
  </g>
  <g id="bullet-char-template-61548" transform="scale(0.00048828125,-0.00048828125)">
   <path d="M 173,740 C 173,903 231,1043 346,1159 462,1274 601,1332 765,1332 928,1332 1067,1274 1183,1159 1299,1043 1357,903 1357,740 1357,577 1299,437 1183,322 1067,206 928,148 765,148 601,148 462,206 346,322 231,437 173,577 173,740 Z"/>
  </g>
 </defs>
 <defs class="TextEmbeddedBitmaps"/>
 <g>
  <g id="id2" class="Master_Slide">
   <g id="bg-id2" class="Background"/>
   <g id="bo-id2" class="BackgroundObjects"/>
  </g>
 </g>
 <g class="SlideGroup">
  <g>
   <g id="container-id1">
    <g id="id1" class="Slide" clip-path="url(#presentation_clip_path)">
     <g class="Page">
      <g class="com.sun.star.drawing.ClosedBezierShape">
       <g id="id3">
        <rect class="BoundingBox" stroke="none" fill="none" x="2819" y="1549" width="7573" height="10366"/>
        <path fill="rgb(51,51,51)" stroke="none" d="M 4370,4353 C 4226,4280 4098,4199 3982,4108 3690,3879 3556,3654 3556,3389 3556,3373 3557,3358 3558,3342 3882,3468 4276,3565 4791,3645 5410,3741 6017,3785 6732,3785 7446,3785 8053,3741 8672,3645 9187,3565 9581,3468 9905,3342 9906,3358 9907,3373 9907,3389 9907,3654 9773,3879 9481,4108 9333,4224 9167,4323 8973,4410 L 9629,8980 C 9687,9012 9742,9045 9796,9080 10135,9303 10289,9522 10289,9779 10289,10036 10135,10255 9796,10478 9456,10701 9035,10861 8447,10989 7860,11118 7284,11177 6606,11177 5927,11177 5351,11118 4764,10989 4176,10861 3755,10701 3415,10478 3076,10255 2922,10036 2922,9779 2922,9522 3076,9303 3415,9080 3509,9019 3608,8962 3716,8910 L 4370,4353 Z M 3414,10605 C 3754,10828 4175,10988 4763,11116 5350,11245 5926,11304 6605,11304 7283,11304 7859,11245 8446,11116 9034,10988 9455,10828 9795,10605 10017,10459 10160,10314 10232,10160 10270,10241 10288,10325 10288,10414 10288,10671 10134,10890 9795,11113 9455,11336 9034,11496 8446,11624 7859,11753 7283,11812 6605,11812 5926,11812 5350,11753 4763,11624 4175,11496 3754,11336 3414,11113 3075,10890 2921,10671 2921,10414 2921,10325 2939,10241 2977,10160 3049,10314 3192,10459 3414,10605 Z M 3684,1948 L 3706,1948 4509,1651 5312,1948 5335,1948 5335,1956 5335,3124 5335,3132 5312,3132 4509,3429 3706,3132 3684,3132 3684,3124 3684,1956 3684,1948 Z M 5970,2202 L 5992,2202 6795,1905 7598,2202 7621,2202 7621,2210 7621,3378 7621,3386 7598,3386 6795,3683 5992,3386 5970,3386 5970,3378 5970,2210 5970,2202 Z M 8129,1948 L 8151,1948 8954,1651 9757,1948 9780,1948 9780,1956 9780,3124 9780,3132 9757,3132 8954,3429 8151,3132 8129,3132 8129,3124 8129,1956 8129,1948 Z"/>
        <path fill="none" stroke="rgb(204,204,204)" stroke-width="203" stroke-linejoin="round" d="M 4370,4353 C 4226,4280 4098,4199 3982,4108 3690,3879 3556,3654 3556,3389 3556,3373 3557,3358 3558,3342 3882,3468 4276,3565 4791,3645 5410,3741 6017,3785 6732,3785 7446,3785 8053,3741 8672,3645 9187,3565 9581,3468 9905,3342 9906,3358 9907,3373 9907,3389 9907,3654 9773,3879 9481,4108 9333,4224 9167,4323 8973,4410 L 9629,8980 C 9687,9012 9742,9045 9796,9080 10135,9303 10289,9522 10289,9779 10289,10036 10135,10255 9796,10478 9456,10701 9035,10861 8447,10989 7860,11118 7284,11177 6606,11177 5927,11177 5351,11118 4764,10989 4176,10861 3755,10701 3415,10478 3076,10255 2922,10036 2922,9779 2922,9522 3076,9303 3415,9080 3509,9019 3608,8962 3716,8910 L 4370,4353 Z"/>
        <path fill="none" stroke="rgb(204,204,204)" stroke-width="203" stroke-linejoin="round" d="M 3414,10605 C 3754,10828 4175,10988 4763,11116 5350,11245 5926,11304 6605,11304 7283,11304 7859,11245 8446,11116 9034,10988 9455,10828 9795,10605 10017,10459 10160,10314 10232,10160 10270,10241 10288,10325 10288,10414 10288,10671 10134,10890 9795,11113 9455,11336 9034,11496 8446,11624 7859,11753 7283,11812 6605,11812 5926,11812 5350,11753 4763,11624 4175,11496 3754,11336 3414,11113 3075,10890 2921,10671 2921,10414 2921,10325 2939,10241 2977,10160 3049,10314 3192,10459 3414,10605 Z"/>
        <path fill="none" stroke="rgb(204,204,204)" stroke-width="203" stroke-linejoin="round" d="M 3684,1948 L 3706,1948 4509,1651 5312,1948 5335,1948 5335,1956 5335,3124 5335,3132 5312,3132 4509,3429 3706,3132 3684,3132 3684,3124 3684,1956 3684,1948 Z"/>
        <path fill="none" stroke="rgb(204,204,204)" stroke-width="203" stroke-linejoin="round" d="M 5970,2202 L 5992,2202 6795,1905 7598,2202 7621,2202 7621,2210 7621,3378 7621,3386 7598,3386 6795,3683 5992,3386 5970,3386 5970,3378 5970,2210 5970,2202 Z"/>
        <path fill="none" stroke="rgb(204,204,204)" stroke-width="203" stroke-linejoin="round" d="M 8129,1948 L 8151,1948 8954,1651 9757,1948 9780,1948 9780,1956 9780,3124 9780,3132 9757,3132 8954,3429 8151,3132 8129,3132 8129,3124 8129,1956 8129,1948 Z"/>
       </g>
      </g>
      <g class="com.sun.star.drawing.ClosedBezierShape">
       <g id="id4">
        <rect class="BoundingBox" stroke="none" fill="none" x="4061" y="9422" width="5209" height="637"/>
        <path fill="rgb(153,153,153)" stroke="none" d="M 7967,9840 C 7552,9892 7145,9916 6666,9916 6186,9916 5779,9892 5364,9840 4949,9788 4650,9724 4411,9634 4227,9565 4120,9497 4080,9422 4068,9445 4062,9468 4062,9492 4062,9596 4171,9685 4411,9775 4650,9865 4949,9929 5364,9981 5779,10033 6186,10057 6666,10057 7145,10057 7552,10033 7967,9981 8382,9929 8681,9865 8920,9775 9160,9685 9269,9596 9269,9492 9269,9468 9263,9445 9251,9422 9211,9497 9104,9565 8920,9634 8681,9724 8382,9788 7967,9840 Z"/>
       </g>
      </g>
      <g class="com.sun.star.drawing.CustomShape">
       <g id="id5">
        <rect class="BoundingBox" stroke="none" fill="none" x="3934" y="2182" width="1145" height="384"/>
        <path fill="rgb(153,153,153)" stroke="none" d="M 4506,2182 L 5078,2373 4506,2564 3934,2373 4506,2182 4506,2182 Z"/>
       </g>
      </g>
      <g class="com.sun.star.drawing.CustomShape">
       <g id="id6">
        <rect class="BoundingBox" stroke="none" fill="none" x="6220" y="2436" width="1145" height="383"/>
        <path fill="rgb(153,153,153)" stroke="none" d="M 6792,2436 L 7364,2627 6792,2818 6220,2627 6792,2436 6792,2436 Z"/>
       </g>
      </g>
      <g class="com.sun.star.drawing.CustomShape">
       <g id="id7">
        <rect class="BoundingBox" stroke="none" fill="none" x="8379" y="2182" width="1145" height="384"/>
        <path fill="rgb(153,153,153)" stroke="none" d="M 8951,2182 L 9523,2373 8951,2564 8379,2373 8951,2182 8951,2182 Z"/>
       </g>
      </g>
      <g class="com.sun.star.drawing.ClosedBezierShape">
       <g id="id8">
        <rect class="BoundingBox" stroke="none" fill="none" x="6860" y="5023" width="2232" height="4391"/>
        <path fill="rgb(153,153,153)" stroke="none" d="M 8572,5023 C 8874,8056 6861,9356 6861,9356 6861,9356 7361,9511 8263,9308 9164,9106 9089,8928 9089,8928 L 8572,5023 Z"/>
       </g>
      </g>
      <g class="com.sun.star.drawing.ClosedBezierShape">
       <g id="id9">
        <rect class="BoundingBox" stroke="none" fill="none" x="4799" y="4681" width="3684" height="426"/>
        <path fill="rgb(153,153,153)" stroke="none" d="M 7556,4993 C 7263,5018 6974,5026 6636,5018 6296,5011 6008,4990 5716,4953 5423,4915 5212,4872 5045,4814 4916,4770 4841,4728 4814,4682 4804,4696 4800,4710 4800,4724 4798,4787 4874,4841 5043,4899 5211,4957 5421,4999 5714,5038 6006,5075 6294,5096 6634,5103 6973,5111 7261,5103 7554,5078 7849,5053 8061,5019 8231,4969 8402,4919 8480,4868 8482,4805 8482,4791 8478,4777 8470,4762 8441,4807 8364,4846 8233,4884 8063,4934 7851,4969 7556,4993 Z"/>
       </g>
      </g>
     </g>
    </g>
   </g>
  </g>
 </g>
</svg>