<?xml version="1.0" encoding="UTF-8"?>
<!DOCTYPE svg PUBLIC "-//W3C//DTD SVG 1.1//EN" "http://www.w3.org/Graphics/SVG/1.1/DTD/svg11.dtd">
<svg version="1.2" width="129.54mm" height="129.54mm" viewBox="0 0 12954 12954" preserveAspectRatio="xMidYMid" fill-rule="evenodd" stroke-width="28.222" stroke-linejoin="round" xmlns="http://www.w3.org/2000/svg" xmlns:ooo="http://xml.openoffice.org/svg/export" xmlns:xlink="http://www.w3.org/1999/xlink" xmlns:presentation="http://sun.com/xmlns/staroffice/presentation" xmlns:smil="http://www.w3.org/2001/SMIL20/" xmlns:anim="urn:oasis:names:tc:opendocument:xmlns:animation:1.0" xml:space="preserve">
 <defs class="ClipPathGroup">
  <clipPath id="presentation_clip_path" clipPathUnits="userSpaceOnUse">
   <rect x="0" y="0" width="12954" height="12954"/>
  </clipPath>
  <clipPath id="presentation_clip_path_shrink" clipPathUnits="userSpaceOnUse">
   <rect x="12" y="12" width="12929" height="12929"/>
  </clipPath>
 </defs>
 <defs class="TextShapeIndex">
  <g ooo:slide="id1" ooo:id-list="id3 id4 id5 id6 id7 id8 id9"/>
 </defs>
 <defs class="EmbeddedBulletChars">
  <g id="bullet-char-template-57356" transform="scale(0.00048828125,-0.00048828125)">
   <path d="M 580,1141 L 1163,571 580,0 -4,571 580,1141 Z"/>
  </g>
  <g id="bullet-char-template-57354" transform="scale(0.00048828125,-0.00048828125)">
   <path d="M 8,1128 L 1137,1128 1137,0 8,0 8,1128 Z"/>
  </g>
  <g id="bullet-char-template-10146" transform="scale(0.00048828125,-0.00048828125)">
   <path d="M 174,0 L 602,739 174,1481 1456,739 174,0 Z M 1358,739 L 309,1346 659,739 1358,739 Z"/>
  </g>
  <g id="bullet-char-template-10132" transform="scale(0.00048828125,-0.00048828125)">
   <path d="M 2015,739 L 1276,0 717,0 1260,543 174,543 174,936 1260,936 717,1481 1274,1481 2015,739 Z"/>
  </g>
  <g id="bullet-char-template-10007" transform="scale(0.00048828125,-0.00048828125)">
   <path d="M 0,-2 C -7,14 -16,27 -25,37 L 356,567 C 262,823 215,952 215,954 215,979 228,992 255,992 264,992 276,990 289,987 310,991 331,999 354,1012 L 381,999 492,748 772,1049 836,1024 860,1049 C 881,1039 901,1025 922,1006 886,937 835,863 770,784 769,783 710,716 594,584 L 774,223 C 774,196 753,168 711,139 L 727,119 C 717,90 699,76 672,76 641,76 570,178 457,381 L 164,-76 C 142,-110 111,-127 72,-127 30,-127 9,-110 8,-76 1,-67 -2,-52 -2,-32 -2,-23 -1,-13 0,-2 Z"/>
  </g>
  <g id="bullet-char-template-10004" transform="scale(0.00048828125,-0.00048828125)">
   <path d="M 285,-33 C 182,-33 111,30 74,156 52,228 41,333 41,471 41,549 55,616 82,672 116,743 169,778 240,778 293,778 328,747 346,684 L 369,508 C 377,444 397,411 428,410 L 1163,1116 C 1174,1127 1196,1133 1229,1133 1271,1133 1292,1118 1292,1087 L 1292,965 C 1292,929 1282,901 1262,881 L 442,47 C 390,-6 338,-33 285,-33 Z"/>
  </g>
  <g id="bullet-char-template-9679" transform="scale(0.00048828125,-0.00048828125)">
   <path d="M 813,0 C 632,0 489,54 383,161 276,268 223,411 223,592 223,773 276,916 383,1023 489,1130 632,1184 813,1184 992,1184 1136,1130 1245,1023 1353,916 1407,772 1407,592 1407,412 1353,268 1245,161 1136,54 992,0 813,0 Z"/>
  </g>
  <g id="bullet-char-template-8226" transform="scale(0.00048828125,-0.00048828125)">
   <path d="M 346,457 C 273,457 209,483 155,535 101,586 74,649 74,723 74,796 101,859 155,911 209,963 273,989 346,989 419,989 480,963 531,910 582,859 608,796 608,723 608,648 583,586 532,535 482,483 420,457 346,457 Z"/>
  </g>
  <g id="bullet-char-template-8211" transform="scale(0.00048828125,-0.00048828125)">
   <path d="M -4,459 L 1135,459 1135,606 -4,606 -4,459 Z"/>
  </g>
  <g id="bullet-char-template-61548" transform="scale(0.00048828125,-0.00048828125)">
   <path d="M 173,740 C 173,903 231,1043 346,1159 462,1274 601,1332 765,1332 928,1332 1067,1274 1183,1159 1299,1043 1357,903 1357,740 1357,577 1299,437 1183,322 1067,206 928,148 765,148 601,148 462,206 346,322 231,437 173,577 173,740 Z"/>
  </g>
 </defs>
 <defs class="TextEmbeddedBitmaps"/>
 <g>
  <g id="id2" class="Master_Slide">
   <g id="bg-id2" class="Background"/>
   <g id="bo-id2" class="BackgroundObjects"/>
  </g>
 </g>
 <g class="SlideGroup">
  <g>
   <g id="container-id1">
    <g id="id1" class="Slide" clip-path="url(#presentation_clip_path)">
     <g class="Page">
      <g class="com.sun.star.drawing.ClosedBezierShape">
       <g id="id3">
        <rect class="BoundingBox" stroke="none" fill="none" x="3327" y="1013" width="6430" height="11028"/>
        <path fill="rgb(51,51,51)" stroke="none" d="M 8097,9055 C 8593,9170 8950,9312 9236,9510 9523,9708 9653,9903 9653,10132 9653,10360 9523,10555 9236,10753 8950,10951 8593,11093 8097,11208 7601,11322 7114,11374 6541,11374 5968,11374 5481,11322 4985,11208 4489,11093 4132,10951 3846,10753 3559,10555 3429,10360 3429,10132 3429,9903 3559,9708 3846,9510 4132,9312 4489,9170 4985,9055 5017,9048 5050,9041 5082,9034 L 4926,8496 C 4716,8379 4533,8247 4371,8096 4206,7943 4062,7769 3933,7570 3795,7355 3694,7142 3627,6921 3561,6700 3530,6471 3530,6223 3530,5974 3561,5745 3627,5524 3694,5303 3795,5090 3933,4875 4063,4674 4208,4500 4374,4346 L 5931,2650 C 5885,2619 5843,2584 5806,2546 5761,2501 5722,2450 5686,2393 5644,2325 5613,2258 5593,2188 5573,2118 5563,2045 5563,1967 5563,1888 5573,1815 5593,1745 5613,1675 5644,1608 5686,1540 5728,1472 5776,1414 5831,1363 5886,1312 5948,1268 6021,1229 6094,1190 6166,1161 6241,1143 6316,1124 6394,1115 6478,1115 6562,1115 6640,1124 6715,1143 6790,1161 6862,1190 6935,1229 7008,1268 7070,1312 7125,1363 7180,1414 7228,1472 7270,1540 7312,1608 7343,1675 7363,1745 7383,1815 7393,1888 7393,1967 7393,2045 7383,2118 7363,2188 7343,2258 7312,2325 7270,2393 7221,2472 7165,2537 7098,2594 L 8720,4359 C 8880,4510 9020,4680 9147,4875 9285,5090 9386,5303 9453,5524 9519,5745 9551,5974 9551,6222 9551,6471 9519,6700 9453,6921 9386,7142 9285,7355 9147,7570 9018,7769 8875,7942 8710,8096 8548,8246 8365,8378 8155,8496 L 7999,9034 C 8032,9041 8064,9048 8097,9055 Z M 3847,10865 C 4133,11063 4489,11206 4986,11320 5482,11434 5969,11486 6542,11486 7114,11486 7601,11434 8098,11320 8594,11206 8950,11063 9237,10865 9424,10736 9545,10607 9606,10470 9638,10542 9654,10617 9654,10696 9654,10924 9523,11119 9237,11317 8950,11515 8594,11657 8098,11772 7601,11886 7114,11938 6542,11938 5969,11938 5482,11886 4986,11772 4489,11657 4133,11515 3847,11317 3560,11119 3430,10924 3430,10696 3430,10617 3445,10542 3477,10470 3538,10607 3659,10736 3847,10865 Z"/>
        <path fill="none" stroke="rgb(221,221,221)" stroke-width="203" stroke-linejoin="round" d="M 8097,9055 C 8593,9170 8950,9312 9236,9510 9523,9708 9653,9903 9653,10132 9653,10360 9523,10555 9236,10753 8950,10951 8593,11093 8097,11208 7601,11322 7114,11374 6541,11374 5968,11374 5481,11322 4985,11208 4489,11093 4132,10951 3846,10753 3559,10555 3429,10360 3429,10132 3429,9903 3559,9708 3846,9510 4132,9312 4489,9170 4985,9055 5017,9048 5050,9041 5082,9034 L 4926,8496 C 4716,8379 4533,8247 4371,8096 4206,7943 4062,7769 3933,7570 3795,7355 3694,7142 3627,6921 3561,6700 3530,6471 3530,6223 3530,5974 3561,5745 3627,5524 3694,5303 3795,5090 3933,4875 4063,4674 4208,4500 4374,4346 L 5931,2650 C 5885,2619 5843,2584 5806,2546 5761,2501 5722,2450 5686,2393 5644,2325 5613,2258 5593,2188 5573,2118 5563,2045 5563,1967 5563,1888 5573,1815 5593,1745 5613,1675 5644,1608 5686,1540 5728,1472 5776,1414 5831,1363 5886,1312 5948,1268 6021,1229 6094,1190 6166,1161 6241,1143 6316,1124 6394,1115 6478,1115 6562,1115 6640,1124 6715,1143 6790,1161 6862,1190 6935,1229 7008,1268 7070,1312 7125,1363 7180,1414 7228,1472 7270,1540 7312,1608 7343,1675 7363,1745 7383,1815 7393,1888 7393,1967 7393,2045 7383,2118 7363,2188 7343,2258 7312,2325 7270,2393 7221,2472 7165,2537 7098,2594 L 8720,4359 C 8880,4510 9020,4680 9147,4875 9285,5090 9386,5303 9453,5524 9519,5745 9551,5974 9551,6222 9551,6471 9519,6700 9453,6921 9386,7142 9285,7355 9147,7570 9018,7769 8875,7942 8710,8096 8548,8246 8365,8378 8155,8496 L 7999,9034 C 8032,9041 8064,9048 8097,9055 Z"/>
        <path fill="none" stroke="rgb(221,221,221)" stroke-width="203" stroke-linejoin="round" d="M 3847,10865 C 4133,11063 4489,11206 4986,11320 5482,11434 5969,11486 6542,11486 7114,11486 7601,11434 8098,11320 8594,11206 8950,11063 9237,10865 9424,10736 9545,10607 9606,10470 9638,10542 9654,10617 9654,10696 9654,10924 9523,11119 9237,11317 8950,11515 8594,11657 8098,11772 7601,11886 7114,11938 6542,11938 5969,11938 5482,11886 4986,11772 4489,11657 4133,11515 3847,11317 3560,11119 3430,10924 3430,10696 3430,10617 3445,10542 3477,10470 3538,10607 3659,10736 3847,10865 Z"/>
       </g>
      </g>
      <g class="com.sun.star.drawing.ClosedBezierShape">
       <g id="id4">
        <rect class="BoundingBox" stroke="none" fill="none" x="6351" y="1270" width="771" height="1046"/>
        <path fill="rgb(204,204,204)" stroke="none" d="M 6871,2101 C 6869,1963 6838,1844 6776,1721 6713,1598 6635,1507 6529,1433 6471,1391 6412,1361 6351,1342 6434,1293 6515,1271 6608,1271 6706,1270 6789,1292 6872,1343 6955,1395 7013,1459 7059,1548 7105,1637 7124,1726 7120,1830 7117,1934 7092,2022 7039,2112 6989,2199 6930,2262 6849,2315 6865,2247 6872,2178 6871,2101 Z"/>
       </g>
      </g>
      <g class="com.sun.star.drawing.ClosedBezierShape">
       <g id="id5">
        <rect class="BoundingBox" stroke="none" fill="none" x="5208" y="9652" width="2669" height="510"/>
        <path fill="rgb(153,153,153)" stroke="none" d="M 7208,9987 C 6996,10028 6787,10047 6541,10047 6296,10047 6087,10028 5875,9987 5662,9945 5509,9893 5387,9821 5293,9766 5238,9712 5217,9652 5211,9670 5208,9689 5208,9708 5208,9792 5264,9862 5387,9934 5509,10006 5662,10058 5875,10099 6087,10141 6296,10160 6541,10160 6787,10160 6996,10141 7208,10099 7421,10058 7574,10006 7696,9934 7819,9862 7875,9792 7875,9708 7875,9689 7872,9670 7866,9652 7845,9712 7790,9766 7696,9821 7574,9893 7421,9945 7208,9987 Z"/>
       </g>
      </g>
      <g class="com.sun.star.drawing.CustomShape">
       <g id="id6">
        <rect class="BoundingBox" stroke="none" fill="none" x="7356" y="8504" width="407" height="1025"/>
        <path fill="rgb(153,153,153)" stroke="none" d="M 7474,8505 L 7761,8511 7643,9527 7357,9521 7474,8505 Z"/>
       </g>
      </g>
      <g class="com.sun.star.drawing.ClosedBezierShape">
       <g id="id7">
        <rect class="BoundingBox" stroke="none" fill="none" x="7112" y="3174" width="1819" height="4461"/>
        <path fill="rgb(153,153,153)" stroke="none" d="M 8382,6477 C 8390,7048 8080,7522 8000,7620 8246,7759 9061,6815 8912,5884 8763,4952 8105,4134 7842,3827 7589,3533 7360,3328 7112,3174 7265,3410 8391,5143 8382,6477 Z"/>
       </g>
      </g>
      <g class="com.sun.star.drawing.ClosedBezierShape">
       <g id="id8">
        <rect class="BoundingBox" stroke="none" fill="none" x="4698" y="3428" width="2796" height="3304"/>
        <path fill="rgb(153,153,153)" stroke="none" d="M 6423,4220 C 6187,4046 5955,3967 5682,3967 5410,3967 5178,4046 4941,4220 4852,4286 4771,4358 4699,4439 4708,4416 4718,4394 4728,4372 4865,4071 5034,3855 5271,3681 5507,3507 5739,3428 6012,3428 6284,3428 6516,3507 6752,3681 6989,3855 7158,4071 7295,4372 7431,4672 7493,4968 7493,5315 7493,5663 7431,5958 7295,6259 7210,6445 7113,6599 6995,6730 7111,6452 7164,6176 7164,5854 7164,5507 7102,5211 6966,4911 6829,4610 6660,4393 6423,4220 Z"/>
       </g>
      </g>
      <g class="com.sun.star.drawing.CustomShape">
       <g id="id9">
        <rect class="BoundingBox" stroke="none" fill="none" x="4824" y="4950" width="1527" height="1401"/>
        <path fill="rgb(255,255,255)" stroke="none" d="M 5587,4951 C 5727,4951 5847,4980 5968,5045 6089,5109 6177,5189 6247,5301 6317,5412 6349,5521 6349,5650 6349,5779 6317,5888 6247,6000 6177,6111 6089,6191 5968,6255 5847,6320 5727,6349 5587,6349 5447,6349 5327,6320 5206,6255 5085,6191 4997,6111 4927,6000 4857,5888 4825,5779 4825,5650 4825,5521 4857,5412 4927,5301 4997,5189 5085,5109 5206,5045 5327,4980 5447,4951 5587,4951 L 5587,4951 Z"/>
        <path fill="none" stroke="rgb(52,101,164)" d="M 5587,4951 C 5727,4951 5847,4980 5968,5045 6089,5109 6177,5189 6247,5301 6317,5412 6349,5521 6349,5650 6349,5779 6317,5888 6247,6000 6177,6111 6089,6191 5968,6255 5847,6320 5727,6349 5587,6349 5447,6349 5327,6320 5206,6255 5085,6191 4997,6111 4927,6000 4857,5888 4825,5779 4825,5650 4825,5521 4857,5412 4927,5301 4997,5189 5085,5109 5206,5045 5327,4980 5447,4951 5587,4951 L 5587,4951 Z"/>
       </g>
      </g>
     </g>
    </g>
   </g>
  </g>
 </g>
</svg>