<?xml version="1.0" encoding="UTF-8"?>
<!DOCTYPE svg PUBLIC "-//W3C//DTD SVG 1.1//EN" "http://www.w3.org/Graphics/SVG/1.1/DTD/svg11.dtd">
<svg version="1.2" width="129.54mm" height="129.54mm" viewBox="0 0 12954 12954" preserveAspectRatio="xMidYMid" fill-rule="evenodd" stroke-width="28.222" stroke-linejoin="round" xmlns="http://www.w3.org/2000/svg" xmlns:ooo="http://xml.openoffice.org/svg/export" xmlns:xlink="http://www.w3.org/1999/xlink" xmlns:presentation="http://sun.com/xmlns/staroffice/presentation" xmlns:smil="http://www.w3.org/2001/SMIL20/" xmlns:anim="urn:oasis:names:tc:opendocument:xmlns:animation:1.0" xml:space="preserve">
 <defs class="ClipPathGroup">
  <clipPath id="presentation_clip_path" clipPathUnits="userSpaceOnUse">
   <rect x="0" y="0" width="12954" height="12954"/>
  </clipPath>
  <clipPath id="presentation_clip_path_shrink" clipPathUnits="userSpaceOnUse">
   <rect x="12" y="12" width="12929" height="12929"/>
  </clipPath>
 </defs>
 <defs class="TextShapeIndex">
  <g ooo:slide="id1" ooo:id-list="id3 id4 id5 id6 id7"/>
 </defs>
 <defs class="EmbeddedBulletChars">
  <g id="bullet-char-template-57356" transform="scale(0.00048828125,-0.00048828125)">
   <path d="M 580,1141 L 1163,571 580,0 -4,571 580,1141 Z"/>
  </g>
  <g id="bullet-char-template-57354" transform="scale(0.00048828125,-0.00048828125)">
   <path d="M 8,1128 L 1137,1128 1137,0 8,0 8,1128 Z"/>
  </g>
  <g id="bullet-char-template-10146" transform="scale(0.00048828125,-0.00048828125)">
   <path d="M 174,0 L 602,739 174,1481 1456,739 174,0 Z M 1358,739 L 309,1346 659,739 1358,739 Z"/>
  </g>
  <g id="bullet-char-template-10132" transform="scale(0.00048828125,-0.00048828125)">
   <path d="M 2015,739 L 1276,0 717,0 1260,543 174,543 174,936 1260,936 717,1481 1274,1481 2015,739 Z"/>
  </g>
  <g id="bullet-char-template-10007" transform="scale(0.00048828125,-0.00048828125)">
   <path d="M 0,-2 C -7,14 -16,27 -25,37 L 356,567 C 262,823 215,952 215,954 215,979 228,992 255,992 264,992 276,990 289,987 310,991 331,999 354,1012 L 381,999 492,748 772,1049 836,1024 860,1049 C 881,1039 901,1025 922,1006 886,937 835,863 770,784 769,783 710,716 594,584 L 774,223 C 774,196 753,168 711,139 L 727,119 C 717,90 699,76 672,76 641,76 570,178 457,381 L 164,-76 C 142,-110 111,-127 72,-127 30,-127 9,-110 8,-76 1,-67 -2,-52 -2,-32 -2,-23 -1,-13 0,-2 Z"/>
  </g>
  <g id="bullet-char-template-10004" transform="scale(0.00048828125,-0.00048828125)">
   <path d="M 285,-33 C 182,-33 111,30 74,156 52,228 41,333 41,471 41,549 55,616 82,672 116,743 169,778 240,778 293,778 328,747 346,684 L 369,508 C 377,444 397,411 428,410 L 1163,1116 C 1174,1127 1196,1133 1229,1133 1271,1133 1292,1118 1292,1087 L 1292,965 C 1292,929 1282,901 1262,881 L 442,47 C 390,-6 338,-33 285,-33 Z"/>
  </g>
  <g id="bullet-char-template-9679" transform="scale(0.00048828125,-0.00048828125)">
   <path d="M 813,0 C 632,0 489,54 383,161 276,268 223,411 223,592 223,773 276,916 383,1023 489,1130 632,1184 813,1184 992,1184 1136,1130 1245,1023 1353,916 1407,772 1407,592 1407,412 1353,268 1245,161 1136,54 992,0 813,0 Z"/>
  </g>
  <g id="bullet-char-template-8226" transform="scale(0.00048828125,-0.00048828125)">
   <path d="M 346,457 C 273,457 209,483 155,535 101,586 74,649 74,723 74,796 101,859 155,911 209,963 273,989 346,989 419,989 480,963 531,910 582,859 608,796 608,723 608,648 583,586 532,535 482,483 420,457 346,457 Z"/>
  </g>
  <g id="bullet-char-template-8211" transform="scale(0.00048828125,-0.00048828125)">
   <path d="M -4,459 L 1135,459 1135,606 -4,606 -4,459 Z"/>
  </g>
  <g id="bullet-char-template-61548" transform="scale(0.00048828125,-0.00048828125)">
   <path d="M 173,740 C 173,903 231,1043 346,1159 462,1274 601,1332 765,1332 928,1332 1067,1274 1183,1159 1299,1043 1357,903 1357,740 1357,577 1299,437 1183,322 1067,206 928,148 765,148 601,148 462,206 346,322 231,437 173,577 173,740 Z"/>
  </g>
 </defs>
 <defs class="TextEmbeddedBitmaps"/>
 <g>
  <g id="id2" class="Master_Slide">
   <g id="bg-id2" class="Background"/>
   <g id="bo-id2" class="BackgroundObjects"/>
  </g>
 </g>
 <g class="SlideGroup">
  <g>
   <g id="container-id1">
    <g id="id1" class="Slide" clip-path="url(#presentation_clip_path)">
     <g class="Page">
      <g class="com.sun.star.drawing.ClosedBezierShape">
       <g id="id3">
        <rect class="BoundingBox" stroke="none" fill="none" x="2255" y="1295" width="8135" height="10620"/>
        <path fill="rgb(51,51,51)" stroke="none" d="M 6455,1397 C 11840,3112 10224,7070 9264,8810 9464,8889 9638,8979 9794,9081 10133,9304 10288,9523 10288,9780 10288,10037 10133,10256 9794,10479 9455,10702 9033,10862 8446,10990 7858,11119 7282,11178 6604,11178 5926,11178 5350,11119 4762,10990 4175,10862 3753,10702 3414,10479 3075,10256 2921,10037 2921,9780 2920,9523 3075,9304 3414,9081 3683,8905 4004,8767 4418,8654 4523,8364 4667,8096 4865,7817 5122,7456 5392,7187 5730,6957 5925,6824 6108,6727 6291,6661 L 6315,5884 C 6191,5929 6108,6001 6088,6095 6002,6504 5245,6711 4381,6566 L 3748,7105 C 3623,7212 3390,7193 3283,7068 L 2427,6064 C 2320,5938 2339,5706 2464,5599 L 3413,4790 C 3853,2868 5082,2223 6426,2320 L 6455,1397 Z M 3413,10606 C 3752,10829 4174,10989 4761,11117 5349,11246 5925,11305 6603,11305 7281,11305 7857,11246 8445,11117 9032,10989 9454,10829 9793,10606 10015,10460 10158,10315 10230,10161 10268,10242 10287,10326 10287,10415 10287,10672 10132,10891 9793,11114 9454,11337 9032,11497 8445,11625 7857,11754 7281,11813 6603,11813 5925,11813 5349,11754 4761,11625 4174,11497 3752,11337 3413,11114 3074,10891 2920,10672 2920,10415 2919,10326 2938,10242 2976,10161 3048,10315 3191,10460 3413,10606 Z"/>
        <path fill="none" stroke="rgb(204,204,204)" stroke-width="203" stroke-linejoin="round" d="M 6455,1397 C 11840,3112 10224,7070 9264,8810 9464,8889 9638,8979 9794,9081 10133,9304 10288,9523 10288,9780 10288,10037 10133,10256 9794,10479 9455,10702 9033,10862 8446,10990 7858,11119 7282,11178 6604,11178 5926,11178 5350,11119 4762,10990 4175,10862 3753,10702 3414,10479 3075,10256 2921,10037 2921,9780 2920,9523 3075,9304 3414,9081 3683,8905 4004,8767 4418,8654 4523,8364 4667,8096 4865,7817 5122,7456 5392,7187 5730,6957 5925,6824 6108,6727 6291,6661 L 6315,5884 C 6191,5929 6108,6001 6088,6095 6002,6504 5245,6711 4381,6566 L 3748,7105 C 3623,7212 3390,7193 3283,7068 L 2427,6064 C 2320,5938 2339,5706 2464,5599 L 3413,4790 C 3853,2868 5082,2223 6426,2320 L 6455,1397 Z"/>
        <path fill="none" stroke="rgb(204,204,204)" stroke-width="203" stroke-linejoin="round" d="M 3413,10606 C 3752,10829 4174,10989 4761,11117 5349,11246 5925,11305 6603,11305 7281,11305 7857,11246 8445,11117 9032,10989 9454,10829 9793,10606 10015,10460 10158,10315 10230,10161 10268,10242 10287,10326 10287,10415 10287,10672 10132,10891 9793,11114 9454,11337 9032,11497 8445,11625 7857,11754 7281,11813 6603,11813 5925,11813 5349,11754 4761,11625 4174,11497 3752,11337 3413,11114 3074,10891 2920,10672 2920,10415 2919,10326 2938,10242 2976,10161 3048,10315 3191,10460 3413,10606 Z"/>
       </g>
      </g>
      <g class="Group">
       <g class="com.sun.star.drawing.ClosedBezierShape">
        <g id="id4">
         <rect class="BoundingBox" stroke="none" fill="none" x="4572" y="3326" width="1133" height="889"/>
         <path fill="rgb(238,238,238)" stroke="none" d="M 5303,3359 C 5382,3331 5448,3322 5514,3330 5580,3338 5625,3362 5660,3405 5694,3448 5708,3497 5702,3563 5696,3629 5673,3692 5628,3763 5584,3835 5531,3893 5459,3951 5387,4009 5319,4048 5240,4076 5160,4105 5094,4114 5029,4105 4963,4097 4917,4074 4883,4031 4882,4030 4881,4029 4881,4028 L 4572,4214 4842,3856 C 4850,3796 4873,3738 4914,3672 4959,3601 5012,3542 5083,3484 5113,3461 5141,3440 5170,3423 L 5174,3418 5176,3419 C 5217,3395 5258,3375 5303,3359 Z"/>
        </g>
       </g>
      </g>
      <g class="com.sun.star.drawing.ClosedBezierShape">
       <g id="id5">
        <rect class="BoundingBox" stroke="none" fill="none" x="6477" y="2669" width="3303" height="3558"/>
        <path fill="rgb(153,153,153)" stroke="none" d="M 7199,3175 C 7653,3524 8021,3887 8373,4334 8726,4781 8959,5177 9116,5602 9202,5837 9252,6041 9265,6225 9493,6160 9636,6035 9718,5828 9804,5611 9799,5370 9700,5058 9602,4745 9440,4455 9184,4130 8927,3805 8652,3543 8306,3292 7960,3042 7646,2879 7303,2771 6976,2667 6716,2644 6477,2696 6712,2825 6948,2982 7199,3175 Z"/>
       </g>
      </g>
      <g class="com.sun.star.drawing.ClosedBezierShape">
       <g id="id6">
        <rect class="BoundingBox" stroke="none" fill="none" x="4699" y="9653" width="3812" height="637"/>
        <path fill="rgb(153,153,153)" stroke="none" d="M 7557,10072 C 7253,10124 6955,10147 6604,10147 6254,10147 5956,10124 5652,10072 5348,10020 5130,9955 4955,9865 4820,9796 4742,9728 4713,9653 4704,9676 4699,9700 4699,9724 4699,9828 4779,9916 4955,10006 5130,10096 5348,10161 5652,10213 5956,10265 6254,10288 6604,10288 6955,10288 7253,10265 7557,10213 7861,10161 8079,10096 8254,10006 8430,9916 8509,9828 8509,9724 8509,9700 8505,9676 8496,9653 8467,9728 8389,9796 8254,9865 8079,9955 7861,10020 7557,10072 Z"/>
       </g>
      </g>
      <g class="Group">
       <g class="com.sun.star.drawing.CustomShape">
        <g id="id7">
         <rect class="BoundingBox" stroke="none" fill="none" x="2998" y="6281" width="941" height="579"/>
         <path fill="rgb(238,238,238)" stroke="none" d="M 2998,6554 L 3938,6282 3258,6859 2998,6554 2998,6554 Z"/>
        </g>
       </g>
      </g>
     </g>
    </g>
   </g>
  </g>
 </g>
</svg>