<?xml version="1.0" encoding="UTF-8"?>
<!DOCTYPE svg PUBLIC "-//W3C//DTD SVG 1.1//EN" "http://www.w3.org/Graphics/SVG/1.1/DTD/svg11.dtd">
<svg version="1.2" width="129.54mm" height="129.54mm" viewBox="0 0 12954 12954" preserveAspectRatio="xMidYMid" fill-rule="evenodd" stroke-width="28.222" stroke-linejoin="round" xmlns="http://www.w3.org/2000/svg" xmlns:ooo="http://xml.openoffice.org/svg/export" xmlns:xlink="http://www.w3.org/1999/xlink" xmlns:presentation="http://sun.com/xmlns/staroffice/presentation" xmlns:smil="http://www.w3.org/2001/SMIL20/" xmlns:anim="urn:oasis:names:tc:opendocument:xmlns:animation:1.0" xml:space="preserve">
 <defs class="ClipPathGroup">
  <clipPath id="presentation_clip_path" clipPathUnits="userSpaceOnUse">
   <rect x="0" y="0" width="12954" height="12954"/>
  </clipPath>
  <clipPath id="presentation_clip_path_shrink" clipPathUnits="userSpaceOnUse">
   <rect x="12" y="12" width="12929" height="12929"/>
  </clipPath>
 </defs>
 <defs class="TextShapeIndex">
  <g ooo:slide="id1" ooo:id-list="id3 id4 id5 id6 id7 id8 id9 id10 id11 id12 id13 id14"/>
 </defs>
 <defs class="EmbeddedBulletChars">
  <g id="bullet-char-template-57356" transform="scale(0.00048828125,-0.00048828125)">
   <path d="M 580,1141 L 1163,571 580,0 -4,571 580,1141 Z"/>
  </g>
  <g id="bullet-char-template-57354" transform="scale(0.00048828125,-0.00048828125)">
   <path d="M 8,1128 L 1137,1128 1137,0 8,0 8,1128 Z"/>
  </g>
  <g id="bullet-char-template-10146" transform="scale(0.00048828125,-0.00048828125)">
   <path d="M 174,0 L 602,739 174,1481 1456,739 174,0 Z M 1358,739 L 309,1346 659,739 1358,739 Z"/>
  </g>
  <g id="bullet-char-template-10132" transform="scale(0.00048828125,-0.00048828125)">
   <path d="M 2015,739 L 1276,0 717,0 1260,543 174,543 174,936 1260,936 717,1481 1274,1481 2015,739 Z"/>
  </g>
  <g id="bullet-char-template-10007" transform="scale(0.00048828125,-0.00048828125)">
   <path d="M 0,-2 C -7,14 -16,27 -25,37 L 356,567 C 262,823 215,952 215,954 215,979 228,992 255,992 264,992 276,990 289,987 310,991 331,999 354,1012 L 381,999 492,748 772,1049 836,1024 860,1049 C 881,1039 901,1025 922,1006 886,937 835,863 770,784 769,783 710,716 594,584 L 774,223 C 774,196 753,168 711,139 L 727,119 C 717,90 699,76 672,76 641,76 570,178 457,381 L 164,-76 C 142,-110 111,-127 72,-127 30,-127 9,-110 8,-76 1,-67 -2,-52 -2,-32 -2,-23 -1,-13 0,-2 Z"/>
  </g>
  <g id="bullet-char-template-10004" transform="scale(0.00048828125,-0.00048828125)">
   <path d="M 285,-33 C 182,-33 111,30 74,156 52,228 41,333 41,471 41,549 55,616 82,672 116,743 169,778 240,778 293,778 328,747 346,684 L 369,508 C 377,444 397,411 428,410 L 1163,1116 C 1174,1127 1196,1133 1229,1133 1271,1133 1292,1118 1292,1087 L 1292,965 C 1292,929 1282,901 1262,881 L 442,47 C 390,-6 338,-33 285,-33 Z"/>
  </g>
  <g id="bullet-char-template-9679" transform="scale(0.00048828125,-0.00048828125)">
   <path d="M 813,0 C 632,0 489,54 383,161 276,268 223,411 223,592 223,773 276,916 383,1023 489,1130 632,1184 813,1184 992,1184 1136,1130 1245,1023 1353,916 1407,772 1407,592 1407,412 1353,268 1245,161 1136,54 992,0 813,0 Z"/>
  </g>
  <g id="bullet-char-template-8226" transform="scale(0.00048828125,-0.00048828125)">
   <path d="M 346,457 C 273,457 209,483 155,535 101,586 74,649 74,723 74,796 101,859 155,911 209,963 273,989 346,989 419,989 480,963 531,910 582,859 608,796 608,723 608,648 583,586 532,535 482,483 420,457 346,457 Z"/>
  </g>
  <g id="bullet-char-template-8211" transform="scale(0.00048828125,-0.00048828125)">
   <path d="M -4,459 L 1135,459 1135,606 -4,606 -4,459 Z"/>
  </g>
  <g id="bullet-char-template-61548" transform="scale(0.00048828125,-0.00048828125)">
   <path d="M 173,740 C 173,903 231,1043 346,1159 462,1274 601,1332 765,1332 928,1332 1067,1274 1183,1159 1299,1043 1357,903 1357,740 1357,577 1299,437 1183,322 1067,206 928,148 765,148 601,148 462,206 346,322 231,437 173,577 173,740 Z"/>
  </g>
 </defs>
 <defs class="TextEmbeddedBitmaps"/>
 <g>
  <g id="id2" class="Master_Slide">
   <g id="bg-id2" class="Background"/>
   <g id="bo-id2" class="BackgroundObjects"/>
  </g>
 </g>
 <g class="SlideGroup">
  <g>
   <g id="container-id1">
    <g id="id1" class="Slide" clip-path="url(#presentation_clip_path)">
     <g class="Page">
      <g class="com.sun.star.drawing.ClosedBezierShape">
       <g id="id3">
        <rect class="BoundingBox" stroke="none" fill="none" x="1295" y="1801" width="10620" height="10495"/>
        <path fill="rgb(51,51,51)" stroke="none" d="M 10542,5079 L 8899,9065 C 9262,9172 9550,9300 9796,9461 10135,9684 10289,9903 10289,10160 10289,10417 10135,10636 9796,10859 9456,11082 9035,11242 8447,11370 7860,11499 7284,11558 6606,11558 5927,11558 5351,11499 4764,11370 4176,11242 3755,11082 3415,10859 3076,10636 2922,10417 2922,10160 2922,9903 3076,9684 3415,9461 3685,9284 4007,9147 4423,9033 L 3250,6188 3248,6189 2147,3554 2157,3547 C 2047,3533 1945,3500 1842,3444 1700,3368 1598,3274 1516,3142 1434,3010 1397,2881 1397,2729 1397,2577 1434,2448 1516,2316 1598,2184 1700,2090 1842,2014 1984,1938 2123,1903 2286,1903 2450,1903 2589,1938 2731,2014 2873,2090 2975,2184 3057,2316 3139,2448 3176,2577 3176,2729 3176,2881 3139,3010 3057,3142 3055,3145 3053,3149 3051,3152 L 4407,4664 C 4525,4696 4650,4727 4783,4756 L 5018,3502 C 4975,3487 4933,3467 4890,3444 4748,3368 4646,3274 4564,3142 4482,3010 4445,2881 4445,2729 4445,2577 4482,2448 4564,2316 4646,2184 4748,2090 4890,2014 5032,1938 5171,1903 5335,1903 5498,1903 5637,1938 5779,2014 5921,2090 6023,2184 6105,2316 6187,2448 6224,2577 6224,2729 6224,2881 6187,3010 6105,3142 6029,3264 5936,3354 5810,3427 L 6442,4949 C 6528,4951 6614,4952 6702,4952 L 7349,3396 C 7248,3329 7170,3247 7104,3142 7022,3010 6985,2881 6985,2729 6985,2577 7022,2448 7104,2316 7186,2184 7288,2090 7430,2014 7572,1938 7711,1903 7875,1903 8038,1903 8177,1938 8319,2014 8461,2090 8563,2184 8645,2316 8727,2448 8764,2577 8764,2729 8764,2881 8727,3010 8645,3142 8563,3274 8461,3368 8319,3444 8257,3478 8195,3503 8131,3521 L 8374,4817 C 8462,4801 8549,4784 8637,4765 8666,4759 8694,4753 8722,4747 L 10156,3148 C 10155,3146 10154,3144 10152,3142 10070,3010 10033,2881 10033,2729 10033,2577 10070,2448 10152,2316 10234,2184 10336,2090 10478,2014 10620,1938 10759,1903 10923,1903 11086,1903 11225,1938 11367,2014 11509,2090 11611,2184 11693,2316 11775,2448 11812,2577 11812,2729 11812,2881 11775,3010 11693,3142 11611,3274 11509,3368 11367,3444 11309,3476 11251,3500 11191,3518 L 10539,5079 10542,5079 Z M 3414,10986 C 3754,11209 4175,11369 4763,11497 5350,11626 5926,11685 6605,11685 7283,11685 7859,11626 8446,11497 9034,11369 9455,11209 9795,10986 10017,10840 10160,10695 10232,10541 10270,10622 10288,10706 10288,10795 10288,11052 10134,11271 9795,11494 9455,11717 9034,11877 8446,12005 7859,12134 7283,12193 6605,12193 5926,12193 5350,12134 4763,12005 4175,11877 3754,11717 3414,11494 3075,11271 2921,11052 2921,10795 2921,10706 2939,10622 2977,10541 3049,10695 3192,10840 3414,10986 Z"/>
        <path fill="none" stroke="rgb(204,204,204)" stroke-width="203" stroke-linejoin="round" d="M 10542,5079 L 8899,9065 C 9262,9172 9550,9300 9796,9461 10135,9684 10289,9903 10289,10160 10289,10417 10135,10636 9796,10859 9456,11082 9035,11242 8447,11370 7860,11499 7284,11558 6606,11558 5927,11558 5351,11499 4764,11370 4176,11242 3755,11082 3415,10859 3076,10636 2922,10417 2922,10160 2922,9903 3076,9684 3415,9461 3685,9284 4007,9147 4423,9033 L 3250,6188 3248,6189 2147,3554 2157,3547 C 2047,3533 1945,3500 1842,3444 1700,3368 1598,3274 1516,3142 1434,3010 1397,2881 1397,2729 1397,2577 1434,2448 1516,2316 1598,2184 1700,2090 1842,2014 1984,1938 2123,1903 2286,1903 2450,1903 2589,1938 2731,2014 2873,2090 2975,2184 3057,2316 3139,2448 3176,2577 3176,2729 3176,2881 3139,3010 3057,3142 3055,3145 3053,3149 3051,3152 L 4407,4664 C 4525,4696 4650,4727 4783,4756 L 5018,3502 C 4975,3487 4933,3467 4890,3444 4748,3368 4646,3274 4564,3142 4482,3010 4445,2881 4445,2729 4445,2577 4482,2448 4564,2316 4646,2184 4748,2090 4890,2014 5032,1938 5171,1903 5335,1903 5498,1903 5637,1938 5779,2014 5921,2090 6023,2184 6105,2316 6187,2448 6224,2577 6224,2729 6224,2881 6187,3010 6105,3142 6029,3264 5936,3354 5810,3427 L 6442,4949 C 6528,4951 6614,4952 6702,4952 L 7349,3396 C 7248,3329 7170,3247 7104,3142 7022,3010 6985,2881 6985,2729 6985,2577 7022,2448 7104,2316 7186,2184 7288,2090 7430,2014 7572,1938 7711,1903 7875,1903 8038,1903 8177,1938 8319,2014 8461,2090 8563,2184 8645,2316 8727,2448 8764,2577 8764,2729 8764,2881 8727,3010 8645,3142 8563,3274 8461,3368 8319,3444 8257,3478 8195,3503 8131,3521 L 8374,4817 C 8462,4801 8549,4784 8637,4765 8666,4759 8694,4753 8722,4747 L 10156,3148 C 10155,3146 10154,3144 10152,3142 10070,3010 10033,2881 10033,2729 10033,2577 10070,2448 10152,2316 10234,2184 10336,2090 10478,2014 10620,1938 10759,1903 10923,1903 11086,1903 11225,1938 11367,2014 11509,2090 11611,2184 11693,2316 11775,2448 11812,2577 11812,2729 11812,2881 11775,3010 11693,3142 11611,3274 11509,3368 11367,3444 11309,3476 11251,3500 11191,3518 L 10539,5079 10542,5079 Z"/>
        <path fill="none" stroke="rgb(204,204,204)" stroke-width="203" stroke-linejoin="round" d="M 3414,10986 C 3754,11209 4175,11369 4763,11497 5350,11626 5926,11685 6605,11685 7283,11685 7859,11626 8446,11497 9034,11369 9455,11209 9795,10986 10017,10840 10160,10695 10232,10541 10270,10622 10288,10706 10288,10795 10288,11052 10134,11271 9795,11494 9455,11717 9034,11877 8446,12005 7859,12134 7283,12193 6605,12193 5926,12193 5350,12134 4763,12005 4175,11877 3754,11717 3414,11494 3075,11271 2921,11052 2921,10795 2921,10706 2939,10622 2977,10541 3049,10695 3192,10840 3414,10986 Z"/>
       </g>
      </g>
      <g class="com.sun.star.drawing.ClosedBezierShape">
       <g id="id4">
        <rect class="BoundingBox" stroke="none" fill="none" x="2285" y="2161" width="684" height="1015"/>
        <path fill="rgb(153,153,153)" stroke="none" d="M 2526,3000 C 2582,2881 2600,2769 2584,2641 2568,2513 2522,2409 2439,2307 2393,2250 2343,2204 2286,2166 2395,2154 2492,2164 2594,2196 2700,2230 2779,2279 2847,2352 2916,2425 2952,2501 2964,2593 2975,2687 2958,2768 2910,2856 2862,2944 2797,3010 2703,3069 2612,3126 2521,3159 2412,3174 2458,3123 2495,3066 2526,3000 Z"/>
       </g>
      </g>
      <g class="com.sun.star.drawing.ClosedBezierShape">
       <g id="id5">
        <rect class="BoundingBox" stroke="none" fill="none" x="5333" y="2160" width="684" height="1015"/>
        <path fill="rgb(153,153,153)" stroke="none" d="M 5574,2999 C 5630,2880 5648,2768 5632,2640 5616,2512 5570,2408 5487,2306 5441,2249 5391,2203 5334,2165 5443,2153 5540,2163 5642,2195 5748,2229 5827,2278 5895,2351 5964,2424 6000,2500 6012,2592 6023,2686 6006,2767 5958,2855 5910,2943 5845,3009 5751,3068 5660,3125 5569,3158 5460,3173 5506,3122 5543,3065 5574,2999 Z"/>
       </g>
      </g>
      <g class="com.sun.star.drawing.ClosedBezierShape">
       <g id="id6">
        <rect class="BoundingBox" stroke="none" fill="none" x="7873" y="2162" width="684" height="1015"/>
        <path fill="rgb(153,153,153)" stroke="none" d="M 8114,3001 C 8170,2882 8188,2770 8172,2642 8156,2514 8110,2410 8027,2308 7981,2251 7931,2205 7874,2167 7983,2155 8080,2165 8182,2197 8288,2231 8367,2280 8435,2353 8504,2426 8540,2502 8552,2594 8563,2688 8546,2769 8498,2857 8450,2945 8385,3011 8291,3070 8200,3127 8109,3160 8000,3175 8046,3124 8083,3067 8114,3001 Z"/>
       </g>
      </g>
      <g class="com.sun.star.drawing.ClosedBezierShape">
       <g id="id7">
        <rect class="BoundingBox" stroke="none" fill="none" x="4623" y="9793" width="4067" height="637"/>
        <path fill="rgb(153,153,153)" stroke="none" d="M 7672,10211 C 7348,10263 7030,10287 6655,10287 6281,10287 5963,10263 5639,10211 5315,10159 5082,10095 4895,10005 4752,9936 4668,9868 4637,9793 4628,9816 4623,9839 4623,9863 4623,9967 4708,10056 4895,10146 5082,10236 5315,10300 5639,10352 5963,10404 6281,10428 6655,10428 7030,10428 7348,10404 7672,10352 7996,10300 8229,10236 8416,10146 8603,10056 8688,9967 8688,9863 8688,9839 8683,9816 8674,9793 8643,9868 8559,9936 8416,10005 8229,10095 7996,10159 7672,10211 Z"/>
       </g>
      </g>
      <g class="com.sun.star.drawing.ClosedBezierShape">
       <g id="id8">
        <rect class="BoundingBox" stroke="none" fill="none" x="10875" y="2160" width="684" height="1015"/>
        <path fill="rgb(153,153,153)" stroke="none" d="M 11116,2999 C 11172,2880 11190,2768 11174,2640 11158,2512 11112,2408 11029,2306 10983,2249 10933,2203 10876,2165 10985,2153 11082,2163 11184,2195 11290,2229 11369,2278 11437,2351 11506,2424 11542,2500 11554,2592 11565,2686 11548,2767 11500,2855 11452,2943 11387,3009 11293,3068 11202,3125 11111,3158 11002,3173 11048,3122 11085,3065 11116,2999 Z"/>
       </g>
      </g>
      <g class="com.sun.star.drawing.CustomShape">
       <g id="id9">
        <rect class="BoundingBox" stroke="none" fill="none" x="2845" y="3517" width="1336" height="1525"/>
        <path fill="rgb(153,153,153)" stroke="none" d="M 2845,3701 L 2845,3701 3960,5041 3960,5041 4180,4858 4180,4858 3065,3518 3065,3518 2845,3701 Z"/>
       </g>
      </g>
      <g class="com.sun.star.drawing.CustomShape">
       <g id="id10">
        <rect class="BoundingBox" stroke="none" fill="none" x="5409" y="3683" width="785" height="1509"/>
        <path fill="rgb(153,153,153)" stroke="none" d="M 5410,3781 L 5410,3781 5924,5191 5924,5191 6192,5093 6192,5093 5678,3683 5678,3683 5410,3781 Z"/>
       </g>
      </g>
      <g class="com.sun.star.drawing.CustomShape">
       <g id="id11">
        <rect class="BoundingBox" stroke="none" fill="none" x="7636" y="3704" width="495" height="1377"/>
        <path fill="rgb(153,153,153)" stroke="none" d="M 7637,3750 L 7637,3750 7847,5079 7847,5079 8129,5034 8129,5034 7919,3705 7919,3705 7637,3750 Z"/>
       </g>
      </g>
      <g class="com.sun.star.drawing.CustomShape">
       <g id="id12">
        <rect class="BoundingBox" stroke="none" fill="none" x="9902" y="3556" width="988" height="1706"/>
        <path fill="rgb(153,153,153)" stroke="none" d="M 10889,3676 L 10889,3676 10163,5260 10163,5260 9903,5141 9903,5141 10629,3557 10629,3557 10889,3676 Z"/>
       </g>
      </g>
      <g class="com.sun.star.drawing.ClosedBezierShape">
       <g id="id13">
        <rect class="BoundingBox" stroke="none" fill="none" x="5461" y="6477" width="4193" height="3305"/>
        <path fill="rgb(153,153,153)" stroke="none" d="M 9653,6478 C 8228,9173 5462,9399 5462,9399 5462,9399 6097,9780 6859,9780 7621,9780 8307,9130 8307,9130 L 9653,6478 Z"/>
       </g>
      </g>
      <g class="com.sun.star.drawing.ClosedBezierShape">
       <g id="id14">
        <rect class="BoundingBox" stroke="none" fill="none" x="4190" y="5206" width="5209" height="638"/>
        <path fill="rgb(153,153,153)" stroke="none" d="M 8096,5626 C 7681,5678 7274,5702 6795,5702 6315,5702 5908,5678 5493,5626 5078,5574 4779,5509 4540,5419 4356,5350 4249,5282 4209,5207 4197,5230 4191,5253 4191,5278 4191,5382 4300,5470 4540,5560 4779,5650 5078,5715 5493,5767 5908,5819 6315,5843 6795,5843 7274,5843 7681,5819 8096,5767 8511,5715 8810,5650 9049,5560 9289,5470 9398,5382 9398,5278 9398,5253 9392,5230 9380,5207 9340,5282 9233,5350 9049,5419 8810,5509 8511,5574 8096,5626 Z"/>
       </g>
      </g>
     </g>
    </g>
   </g>
  </g>
 </g>
</svg>